<svg xmlns="http://www.w3.org/2000/svg" xmlns:xlink="http://www.w3.org/1999/xlink" viewBox="0 0 168.78 154.96"><defs><style>.cls-1{opacity:0.92;}.cls-15,.cls-2,.cls-20,.cls-22{fill:none;}.cls-2{stroke:#f8dff4;stroke-width:2px;stroke-dasharray:4.96 4.96;}.cls-15,.cls-2,.cls-22{stroke-linecap:round;stroke-linejoin:round;}.cls-3{fill:#fffabd;opacity:0.87;}.cls-21,.cls-4{fill:#7a7af3;}.cls-4{opacity:0.22;}.cls-5{fill:#f5c494;}.cls-6{fill:#b6955f;}.cls-7{fill:#f2a0a0;}.cls-8{fill:#f2e750;}.cls-9{fill:#eab7b7;}.cls-10{fill:#cca27d;opacity:0.25;}.cls-11{fill:#f4b073;}.cls-12{fill:#f8ae9b;}.cls-13{fill:#3f2f29;}.cls-14{fill:#fff;}.cls-15{stroke:#b6955f;}.cls-16{fill:#d3aa71;}.cls-17{fill:#8f1f1d;}.cls-18{fill:#e23a26;}.cls-19{fill:#e33b26;}.cls-22{stroke:#f3674e;stroke-width:0.75px;}.cls-23{fill:#afafaf;}.cls-24{fill:#9e9e9e;opacity:0.56;}.cls-25{fill:url(#Безымянный_градиент_28);}.cls-26{fill:url(#Безымянный_градиент_18);}</style><linearGradient id="Безымянный_градиент_28" x1="85.57" y1="96.89" x2="85.33" y2="143.27" gradientUnits="userSpaceOnUse"><stop offset="0" stop-color="#fff"/><stop offset="0.24" stop-color="#e8eced"/><stop offset="0.74" stop-color="#a4b7bb"/><stop offset="1" stop-color="#76a0b0"/></linearGradient><linearGradient id="Безымянный_градиент_18" x1="84.63" y1="111.06" x2="84.63" y2="132.49" gradientUnits="userSpaceOnUse"><stop offset="0" stop-color="#fff"/><stop offset="0.27" stop-color="#e8eced"/><stop offset="0.62" stop-color="#a4b7bb"/><stop offset="0.96" stop-color="#76a0b0"/></linearGradient></defs><title>money-block-1</title><g id="Слой_2" data-name="Слой 2"><g class="cls-1"><circle class="cls-2" cx="67.25" cy="59.65" r="39.44" transform="translate(2.98 122.5) rotate(-85.93)"/></g><circle class="cls-3" cx="100.75" cy="92.7" r="46.36"/><circle class="cls-4" cx="59.85" cy="102.8" r="38.75"/><path class="cls-5" d="M87.74,131.14c-2,1.37-2.77,3.72-1.73,5.22l1.9,2.73c1,1.5,3.52,1.61,5.51.24l34.63-23.81c2.88-2,3.93-5.42,2.36-7.69h0c-1.57-2.26-5.16-2.49-8-.52Z"/><ellipse class="cls-5" cx="94.21" cy="136.04" rx="6.89" ry="5.36" transform="translate(-61.46 79.92) rotate(-35.47)"/><path class="cls-5" d="M131.41,109.1a3.11,3.11,0,0,1-1.29,4.18L127.31,115a3.15,3.15,0,0,1-4.35-.65L108.34,91.31c-1.22-1.92-.3-4.66,2-6.13h0c2.34-1.46,5.2-1.09,6.41.82Z"/><rect class="cls-6" x="62.48" y="43.37" width="44.05" height="30.56"/><path class="cls-7" d="M112.46,75.58H116a5.13,5.13,0,0,1,5.13,5.13v27.22a0,0,0,0,1,0,0H108.09a.69.69,0,0,1-.69-.69V80.64A5.06,5.06,0,0,1,112.46,75.58Z" transform="translate(-30.93 71.97) rotate(-31)"/><rect class="cls-8" x="114.57" y="101.28" width="13.77" height="4.8" transform="translate(-36.05 77.36) rotate(-31)"/><path class="cls-5" d="M76.76,131.19c1.93,1.45,2.61,3.83,1.51,5.29l-2,2.65c-1.1,1.46-3.59,1.47-5.52,0L37.11,114c-2.79-2.09-3.71-5.58-2-7.78h0c1.66-2.19,5.25-2.28,8-.2Z"/><ellipse class="cls-5" cx="70.09" cy="135.82" rx="5.36" ry="6.89" transform="translate(-80.19 107.95) rotate(-52.19)"/><path class="cls-5" d="M35.45,105.46a3.09,3.09,0,0,0,.75,4.27l2.55,2.13a3.12,3.12,0,0,0,4.35,0L60.32,91.47c1.43-1.69.87-4.5-1.24-6.27h0c-2.11-1.76-5-1.83-6.4-.14Z"/><path class="cls-7" d="M48.11,75H61.2a0,0,0,0,1,0,0v27.22a5.13,5.13,0,0,1-5.13,5.13H52.49a5.06,5.06,0,0,1-5.06-5.06V75.7a.69.69,0,0,1,.69-.69Z" transform="translate(39.43 196.25) rotate(-141.16)"/><rect class="cls-8" x="38.7" y="99.62" width="13.77" height="4.8" transform="translate(17.11 210.07) rotate(-141.16)"/><rect class="cls-9" x="60" y="76.07" width="49.76" height="66.51" rx="0.83"/><rect class="cls-5" x="76.2" y="54.99" width="16.33" height="32.77" rx="6.91"/><path class="cls-10" d="M76.34,67.17v1.9c0,3.3,3.67,6,8.16,6h0c4.49,0,8.16-2.69,8.16-6V67.31"/><path class="cls-5" d="M66.69,39.21V35.49c0-10.44,7.93-18.9,17.71-18.9h0c9.78,0,17.72,8.46,17.72,18.9v17.9c0,10.43-7.94,18.9-17.72,18.9h0c-9.78,0-17.71-8.47-17.71-18.9V39.21"/><ellipse class="cls-5" cx="102.77" cy="44" rx="4.59" ry="4.81"/><path class="cls-11" d="M102.77,41.34v5.31a2.66,2.66,0,0,0,0-5.31Z"/><ellipse class="cls-5" cx="67.17" cy="44" rx="4.59" ry="4.81"/><path class="cls-11" d="M64.64,44a2.59,2.59,0,0,0,2.53,2.65V41.34A2.6,2.6,0,0,0,64.64,44Z"/><path class="cls-12" d="M86.77,51.45a2.26,2.26,0,0,1-4.52,0Z"/><rect class="cls-13" x="90.7" y="35.87" width="4.62" height="7.57" rx="2.31"/><circle class="cls-14" cx="93.01" cy="41.53" r="1.11"/><rect class="cls-13" x="74.32" y="35.87" width="4.62" height="7.57" rx="2.31"/><circle class="cls-14" cx="76.63" cy="41.53" r="1.11"/><path class="cls-15" d="M88.36,34.27a5.58,5.58,0,0,1,4.09-2.11A5.94,5.94,0,0,1,97,33.88"/><path class="cls-15" d="M72.32,34.27a5.58,5.58,0,0,1,4.09-2.11,5.89,5.89,0,0,1,4.53,1.72"/><path class="cls-16" d="M62.47,55.87a6.3,6.3,0,0,0,1.44,0h0c2.48,0,4.5-3.58,4.5-8,0,0,.56-17.42,2.55-22.86.57-1.56-1.64-1-1.8-1.3a4.21,4.21,0,0,0-1.46-1.32c-.31-.2.32-.6.12-1,0,0-3.44,5.78-3.78,8.34-.24,1.76-1.14,5.33-1.48,8.33a57.06,57.06,0,0,0-.07,7C62.46,47.75,62.47,55.87,62.47,55.87Z"/><path class="cls-16" d="M105.82,40.38h-1.65c-2.85,0-4.38-2.48-4.75-4.43S97.3,23.51,97.56,23s2.69-1.72,3.59-1.34,1.81,3.32,2.44,4.7c.83,1.8,1.65,7.65,1.68,8.44S105.82,40.38,105.82,40.38Z"/><path class="cls-16" d="M67.26,22.55c.21-1.3,4.3-5.36,7.12-7.1a19.76,19.76,0,0,1,10.64-3c9.78,0,16,7.92,16.84,10.08.5,1.2-2,2.82-2.42,3.52s-2.24-6.82-13-6.88-12.22,2.3-14.09,4.56a8,8,0,0,0-2,4.2S67.05,23.89,67.26,22.55Z"/><path class="cls-17" d="M97.78,95.16A1.18,1.18,0,0,1,97,93.93l.42-.05s-.27.6.48.92l-.12.36"/><path class="cls-17" d="M103.38,96.84a1.18,1.18,0,0,0,1.32-.6l-.33-.28s-.09.66-.9.51l-.09.37"/><path class="cls-17" d="M100.94,94.72a8.18,8.18,0,0,0-2.28-.39l-.43,1.42a8.45,8.45,0,0,0,2.12.93,8.22,8.22,0,0,0,2.54.39l.38-1.28a7.71,7.71,0,0,0-2.33-1.07"/><path class="cls-17" d="M103,96.75a.41.41,0,0,1,.06-.24c.08-.14.22-.2.3-.12a.16.16,0,0,1,0,.07h0a.68.68,0,0,1-.21.76,3.08,3.08,0,0,1-.79.43c-.08,0,.27-.55.59-.9"/><path class="cls-17" d="M98.31,95.26a.29.29,0,0,0,.1-.22c0-.17-.07-.32-.19-.33l-.09,0h0a.56.56,0,0,0-.3.71,5,5,0,0,0,.45,1c.08,0,.11-.63,0-1.14"/><path class="cls-18" d="M97.79,95.15h0"/><path class="cls-19" d="M103.74,96.4v-.07l.28-.22a.1.1,0,0,0,0-.1.11.11,0,0,0,0-.09l-.32-.15s0-.06,0-.09l.24-.29a.11.11,0,0,0,0-.1.1.1,0,0,0-.07-.07l-.35-.09,0-.09.18-.32a.12.12,0,0,0,0-.1.1.1,0,0,0-.09-.06l-.36,0,0-.07.12-.36a.09.09,0,0,0,0-.1.13.13,0,0,0-.1,0l-.35.06-.07-.07,0-.36a.09.09,0,0,0,0-.1.12.12,0,0,0-.1,0l-.34.13-.07,0,0-.37a.15.15,0,0,0-.06-.09.09.09,0,0,0-.1,0l-.31.19-.08,0-.09-.36a.12.12,0,0,0-.07-.07.12.12,0,0,0-.1,0l-.27.25h-.09l-.15-.33a.1.1,0,0,0-.09-.06.09.09,0,0,0-.09,0l-.22.3h-.09l-.21-.29a.1.1,0,0,0-.1,0s-.06,0-.08.06l-.16.33-.09,0-.26-.24a.12.12,0,0,0-.1,0,.1.1,0,0,0-.07.08l-.1.36-.08,0-.31-.19a.17.17,0,0,0-.1,0,.18.18,0,0,0-.06.09l0,.37-.08.06-.33-.12a.11.11,0,0,0-.1,0,.1.1,0,0,0,0,.1l0,.37-.06.06-.35,0a.1.1,0,0,0-.1,0,.12.12,0,0,0,0,.1l.11.35h0l-.15.09.17.5a7.29,7.29,0,0,0,5.43,1.65c.31,0,.52-.4.52-.4"/><path class="cls-14" d="M101.64,95.72c0,.13-.14.21-.23.18s-.14-.15-.1-.28.14-.21.24-.18.13.15.09.28"/><ellipse cx="100.01" cy="95.34" rx="0.45" ry="0.37" transform="translate(-20 163.83) rotate(-73.34)"/><rect class="cls-20" x="98.14" y="91.78" width="5.29" height="7.17" transform="translate(-19.46 164.58) rotate(-73.34)"/><path class="cls-14" d="M100.17,95.28c0,.13-.15.22-.25.19a.23.23,0,0,1-.1-.29c0-.14.15-.22.25-.19a.23.23,0,0,1,.1.29"/><ellipse cx="101.51" cy="95.79" rx="0.45" ry="0.37" transform="matrix(0.29, -0.96, 0.96, 0.29, -19.36, 165.58)"/><path class="cls-14" d="M101.66,95.73a.24.24,0,0,1-.25.19.24.24,0,0,1-.1-.3c0-.13.15-.22.25-.19a.24.24,0,0,1,.1.3"/><path class="cls-19" d="M97.86,95.25c.1-.06.3-.11.32-.23a.39.39,0,0,0-.3-.47h-.15a.71.71,0,0,0-.59.9,5.8,5.8,0,0,0,.66,1.37c.12.09.12-.87.06-1.57"/><path class="cls-19" d="M103.32,96.85c-.06-.09-.26-.22-.22-.34a.39.39,0,0,1,.46-.31.37.37,0,0,1,.14.07h0a.71.71,0,0,1,.15,1.06,5.79,5.79,0,0,1-1.17,1c-.15,0,.29-.84.63-1.46"/><rect class="cls-20" x="98.14" y="91.78" width="5.28" height="7.16" transform="translate(-19.47 164.58) rotate(-73.34)"/><rect class="cls-20" x="98.14" y="91.78" width="5.29" height="7.17" transform="translate(-19.46 164.58) rotate(-73.34)"/><path class="cls-19" d="M97.22,93.35s-.07-.37-.21-.86a.8.8,0,0,0-.58.8.68.68,0,1,0,1.33,0,.91.91,0,0,0-.14-.53,2.72,2.72,0,0,1-.4.56"/><rect class="cls-20" x="98.14" y="91.78" width="5.28" height="7.16" transform="translate(-19.47 164.58) rotate(-73.34)"/><path class="cls-19" d="M104.84,95.63a8,8,0,0,1,.64-.6.77.77,0,0,1,0,1,.68.68,0,1,1-1.13-.71,1,1,0,0,1,.41-.36,3,3,0,0,0,0,.69"/><path d="M101,96.22a.39.39,0,0,1-.48.28.38.38,0,0,1-.27-.47Z"/><path class="cls-16" d="M104.1,28.81c-3.77-11-11.12-13.54-19.64-13.54s-16.38,5-18.79,13.54Z"/><path class="cls-5" d="M73.87,30.12s.39-2.68,1.7-3.82-.95.63-.06,3.77"/><path class="cls-5" d="M76,31.3a11.52,11.52,0,0,1,1-4.16c.86-1.37-.63.79.06,3.83"/><path class="cls-5" d="M78.11,29.38a20.78,20.78,0,0,1,2-5.42c1.16-1.73-.81,1-.78,5.1"/><circle class="cls-21" cx="103.91" cy="49.09" r="1.39"/><circle class="cls-14" cx="103.38" cy="48.6" r="0.32"/><path class="cls-22" d="M78.9,60a6.35,6.35,0,0,0,4.49,2.41A7.19,7.19,0,0,0,89.83,60"/><rect class="cls-23" x="50.67" y="140.26" width="69.67" height="3.28" rx="1.01"/><rect class="cls-24" x="50.67" y="140.26" width="69.6" height="2.28" rx="1.01"/><path class="cls-25" d="M119.12,140.3H51.91a1.13,1.13,0,0,1-1.13-1.08l-1.71-37.51a4.21,4.21,0,0,1,4.21-4.21h64.53a4.2,4.2,0,0,1,4.21,4.21l-1.77,37.51A1.14,1.14,0,0,1,119.12,140.3Z"/><path class="cls-26" d="M87.86,121a3.25,3.25,0,0,1-3.19,2.81,3.41,3.41,0,0,1-3.27-2.91A3.25,3.25,0,0,1,84.65,117,3.4,3.4,0,0,1,87.86,121Z"/></g></svg>