<svg id="Слой_1" data-name="Слой 1" xmlns="http://www.w3.org/2000/svg" xmlns:xlink="http://www.w3.org/1999/xlink" viewBox="0 0 231.15 209.39"><defs><style>.cls-1,.cls-16,.cls-31,.cls-32,.cls-35,.cls-36,.cls-37{fill:none;}.cls-2{fill:#7a7af3;opacity:0.1;}.cls-3,.cls-34{fill:#bcdfe4;}.cls-3{opacity:0.11;}.cls-4{clip-path:url(#clip-path);}.cls-5{fill:#0e1733;}.cls-6{fill:#f5c494;}.cls-7{fill:#f2a0a0;}.cls-8{fill:#f2e750;}.cls-9{fill:#b6955f;}.cls-10{fill:#eab7b7;}.cls-11{fill:#cca27d;opacity:0.25;}.cls-12{fill:#f4b073;}.cls-13{fill:#f8ae9b;}.cls-14{fill:#3f2f29;}.cls-15{fill:#fff;}.cls-16{stroke:#b6955f;}.cls-16,.cls-31,.cls-32{stroke-linecap:round;stroke-linejoin:round;}.cls-17{fill:#d3aa71;}.cls-18{fill:#8f1f1d;}.cls-19{fill:#e23a26;}.cls-20{fill:#e33b26;}.cls-21{fill:#91bed4;}.cls-22{fill:#683034;}.cls-23{clip-path:url(#clip-path-2);}.cls-24{fill:#ededef;}.cls-25{clip-path:url(#clip-path-3);}.cls-26{fill:#f27171;}.cls-27{fill:#f9f1a5;}.cls-28{fill:#fffabd;}.cls-29{fill:#d6a374;}.cls-30{fill:#296d7e;}.cls-31{stroke:#f3674e;}.cls-32{stroke:#3f2e00;stroke-width:0.75px;}.cls-33{fill:#504039;}.cls-34{opacity:0.12;}.cls-35{stroke:#bcdfe4;}.cls-35,.cls-36,.cls-37{stroke-miterlimit:10;}.cls-36{stroke:#d29cff;}.cls-36,.cls-37{opacity:0.42;}.cls-37{stroke:#49f2d3;}</style><clipPath id="clip-path"><rect class="cls-1" x="-96.55" y="201.3" width="37.22" height="56.77" rx="13.98"/></clipPath><clipPath id="clip-path-2"><path class="cls-1" d="M96.22,76.19a6.64,6.64,0,0,1-.11,1.13c0,.06-3.17,2.56-5.8,2.56s-5.74-2.39-5.78-2.5a7,7,0,0,1-.12-1.19Z"/></clipPath><clipPath id="clip-path-3"><path class="cls-1" d="M96.22,76.19a5.91,5.91,0,0,1-11.81,0Z"/></clipPath></defs><title>signin</title><polygon class="cls-2" points="232.01 178.62 232.01 101.68 194.15 143.93 232.01 178.62"/><polygon class="cls-2" points="231.41 166.2 231.41 114.59 204.06 142.92 231.41 166.2"/><polygon class="cls-3" points="-1.98 101.77 -1.98 5.21 49.83 58.22 -1.98 101.77"/><g class="cls-4"><rect class="cls-5" x="6.44" y="208.16" width="44.75" height="34.2"/></g><ellipse class="cls-6" cx="117.68" cy="160.43" rx="4.11" ry="5.22"/><path class="cls-6" d="M62.22,133.35c-.76,1.93-2.61,3-4.11,2.43l-2.74-1.09c-1.51-.6-2.12-2.67-1.36-4.61l13.2-33.62c1.1-2.79,3.83-4.33,6.1-3.42h0c2.27.9,3.22,3.88,2.12,6.66Z"/><path class="cls-7" d="M61.59,92H73.1a0,0,0,0,1,0,0v30.42A5.13,5.13,0,0,1,68,127.58H66a5.06,5.06,0,0,1-5.06-5.06V92.72A.69.69,0,0,1,61.59,92Z" transform="translate(89.02 236.53) rotate(-158.47)"/><path class="cls-7" d="M61.66,92.06H73.17a0,0,0,0,1,0,0v30.42A5.13,5.13,0,0,1,68,127.61H66A5.06,5.06,0,0,1,61,122.54V92.75a.69.69,0,0,1,.69-.69Z" transform="translate(89.16 236.61) rotate(-158.47)"/><ellipse class="cls-6" cx="79.41" cy="161.43" rx="6.1" ry="4.75" transform="translate(-99.28 140.56) rotate(-57.14)"/><rect class="cls-8" x="54.86" y="123.39" width="12.31" height="3.28" transform="translate(71.9 263.73) rotate(-158.47)"/><path class="cls-6" d="M165.52,103.61c2.87,0,5.24-1.23,5.26-2.85l0-2.94c0-1.62-2.32-3-5.19-3l-50-.9c-4.15-.07-7.55,1.85-7.58,4.3h0c0,2.43,3.3,4.46,7.43,4.54Z"/><path class="cls-7" d="M114.07,81.38h2a5.13,5.13,0,0,1,5.13,5.13v29.55a0,0,0,0,1,0,0H109.7a.69.69,0,0,1-.69-.69V86.45A5.06,5.06,0,0,1,114.07,81.38Z" transform="translate(16.23 213.71) rotate(-89.93)"/><ellipse class="cls-6" cx="166.41" cy="98.45" rx="4.75" ry="5.57" transform="translate(67.72 264.72) rotate(-89.92)"/><rect class="cls-8" x="127.48" y="94.63" width="7.17" height="3.2" transform="translate(34.67 227.18) rotate(-89.93)"/><rect class="cls-9" x="70.47" y="63.35" width="39.02" height="25.49"/><rect class="cls-10" x="69.85" y="92.31" width="40.93" height="76.71" rx="0.83"/><rect class="cls-6" x="82.62" y="73.65" width="14.47" height="29.04" rx="6.91"/><path class="cls-11" d="M82.75,84.44v1.68c0,2.92,3.25,5.3,7.23,5.3h0c4,0,7.23-2.38,7.23-5.3V84.56"/><path class="cls-6" d="M74.2,59.66V56.37c0-9.25,7-16.75,15.69-16.75h0c8.67,0,15.69,7.5,15.69,16.75V72.22c0,9.25-7,16.75-15.69,16.75h0c-8.67,0-15.69-7.5-15.69-16.75V59.66"/><ellipse class="cls-6" cx="106.16" cy="63.9" rx="4.07" ry="4.26"/><path class="cls-12" d="M106.16,61.55v4.71a2.36,2.36,0,0,0,0-4.71Z"/><ellipse class="cls-6" cx="74.62" cy="63.9" rx="4.07" ry="4.26"/><path class="cls-12" d="M72.38,63.9a2.3,2.3,0,0,0,2.24,2.36V61.55A2.3,2.3,0,0,0,72.38,63.9Z"/><path class="cls-13" d="M92,70.51a2,2,0,0,1-4,0Z"/><rect class="cls-14" x="95.47" y="56.7" width="4.1" height="6.71" rx="2.05"/><circle class="cls-15" cx="97.52" cy="59.72" r="0.99"/><rect class="cls-14" x="80.96" y="56.7" width="4.1" height="6.71" rx="2.05"/><circle class="cls-15" cx="83.01" cy="59.72" r="0.99"/><path class="cls-16" d="M93.4,55.28A5,5,0,0,1,97,53.42a5.24,5.24,0,0,1,4,1.52"/><path class="cls-16" d="M79.19,55.28a5,5,0,0,1,3.62-1.86,5.24,5.24,0,0,1,4,1.52"/><path class="cls-17" d="M70.46,74.43a6,6,0,0,0,1.27,0h0c2.2,0,4-3.18,4-7.06,0,0,.5-15.43,2.26-20.25.5-1.38-1.45-.92-1.6-1.15A3.6,3.6,0,0,0,75.1,44.8c-.28-.18.28-.53.1-.86,0,0-3,5.11-3.35,7.39-.21,1.55-1,4.72-1.32,7.38a53.74,53.74,0,0,0,0,6.16C70.45,67.23,70.46,74.43,70.46,74.43Z"/><path class="cls-17" d="M108.86,60.7H107.4c-2.52,0-3.88-2.2-4.2-3.93s-1.88-11-1.65-11.45,2.38-1.53,3.18-1.19,1.6,2.95,2.16,4.16c.74,1.6,1.46,6.78,1.48,7.48S108.86,60.7,108.86,60.7Z"/><path class="cls-17" d="M74.7,44.9c.18-1.15,3.81-4.75,6.31-6.29A17.41,17.41,0,0,1,90.44,36c8.66,0,14.13,7,14.92,8.92.44,1.07-1.78,2.5-2.15,3.12s-2-6-11.54-6.09-10.82,2-12.48,4a7.09,7.09,0,0,0-1.76,3.72S74.51,46.09,74.7,44.9Z"/><path class="cls-18" d="M101.74,109.23a1,1,0,0,1-.69-1.08l.38-.05s-.25.53.42.81l-.11.32"/><path class="cls-18" d="M106.7,110.72a1,1,0,0,0,1.17-.54l-.29-.24s-.08.58-.8.45l-.08.33"/><path class="cls-18" d="M104.54,108.84a7.65,7.65,0,0,0-2-.35l-.38,1.27a7.76,7.76,0,0,0,1.88.82,7,7,0,0,0,2.25.34l.34-1.13a7.18,7.18,0,0,0-2.07-1"/><path class="cls-18" d="M106.39,110.64a.46.46,0,0,1,.06-.22c.07-.12.19-.17.26-.1a.21.21,0,0,1,0,.06h0a.58.58,0,0,1-.18.67,2.86,2.86,0,0,1-.7.38c-.07,0,.24-.49.52-.8"/><path class="cls-18" d="M102.21,109.32a.31.31,0,0,0,.09-.2c0-.15-.07-.28-.17-.28a.11.11,0,0,0-.08,0h0a.49.49,0,0,0-.26.63,4,4,0,0,0,.4.85c.07,0,.09-.56,0-1"/><path class="cls-19" d="M101.75,109.22h0"/><path class="cls-20" d="M107,110.33v-.06l.25-.2a.1.1,0,0,0,0-.09.08.08,0,0,0,0-.07l-.28-.14s0-.06,0-.08l.21-.25a.1.1,0,0,0,0-.09.09.09,0,0,0-.06-.07l-.31-.08,0-.07.16-.29a.1.1,0,0,0,0-.09.1.1,0,0,0-.08,0l-.32,0a.21.21,0,0,0,0-.06l.11-.32a.1.1,0,0,0,0-.09.11.11,0,0,0-.08,0l-.32,0,0-.06,0-.32a.09.09,0,0,0,0-.09.1.1,0,0,0-.09,0l-.3.12a.18.18,0,0,0-.07,0v-.33a.1.1,0,0,0-.14-.07l-.28.17-.07,0-.08-.32a.09.09,0,0,0-.06-.06.1.1,0,0,0-.09,0l-.24.22-.07,0-.14-.29s0,0-.07,0a.1.1,0,0,0-.09,0l-.19.26h-.08l-.19-.26a.11.11,0,0,0-.08,0,.09.09,0,0,0-.08,0l-.14.3-.08,0-.23-.22a.1.1,0,0,0-.09,0s-.06,0-.06.06l-.09.32-.07,0-.27-.16a.14.14,0,0,0-.09,0,.1.1,0,0,0,0,.08l0,.33-.06,0-.3-.1a.1.1,0,0,0-.09,0s0,.06,0,.09l0,.32-.06.06-.31,0a.08.08,0,0,0-.09,0,.1.1,0,0,0,0,.09l.1.31h0l-.13.08.15.44a6.43,6.43,0,0,0,4.81,1.46c.28,0,.46-.35.46-.35"/><path class="cls-15" d="M105.16,109.73a.16.16,0,1,1-.29-.09c0-.11.12-.19.21-.16s.12.13.08.25"/><ellipse cx="103.72" cy="109.39" rx="0.4" ry="0.32" transform="translate(-30.81 177.41) rotate(-73.34)"/><rect class="cls-1" x="102.06" y="106.23" width="4.68" height="6.35" transform="translate(-30.34 178.07) rotate(-73.34)"/><path class="cls-15" d="M103.86,109.34c0,.12-.14.19-.22.16s-.13-.14-.09-.26.13-.19.22-.16.12.14.09.26"/><ellipse cx="105.04" cy="109.79" rx="0.4" ry="0.32" transform="translate(-30.25 178.95) rotate(-73.34)"/><path class="cls-15" d="M105.18,109.73c0,.12-.13.2-.22.17a.19.19,0,0,1-.09-.26.2.2,0,0,1,.22-.17.21.21,0,0,1,.09.26"/><path class="cls-20" d="M101.81,109.31c.09,0,.27-.09.29-.2a.35.35,0,0,0-.27-.42h-.14a.62.62,0,0,0-.51.8,5.15,5.15,0,0,0,.57,1.21c.12.08.11-.77.06-1.39"/><path class="cls-20" d="M106.65,110.73c-.05-.08-.23-.2-.2-.31a.36.36,0,0,1,.41-.27.23.23,0,0,1,.12.06h0a.63.63,0,0,1,.14.94,5.06,5.06,0,0,1-1,.87c-.13,0,.26-.75.56-1.29"/><rect class="cls-1" x="102.06" y="106.24" width="4.68" height="6.35" transform="translate(-30.34 178.07) rotate(-73.34)"/><rect class="cls-1" x="102.06" y="106.23" width="4.68" height="6.35" transform="translate(-30.34 178.07) rotate(-73.34)"/><path class="cls-20" d="M101.24,107.63a6.05,6.05,0,0,0-.18-.76.69.69,0,0,0-.51.7.6.6,0,1,0,1.18,0,.89.89,0,0,0-.13-.47,2.19,2.19,0,0,1-.36.5"/><rect class="cls-1" x="102.06" y="106.24" width="4.68" height="6.35" transform="translate(-30.34 178.07) rotate(-73.34)"/><path class="cls-20" d="M108,109.65s.23-.24.57-.54a.69.69,0,0,1,0,.87.6.6,0,1,1-1-.62A.79.79,0,0,1,108,109a2.66,2.66,0,0,0,0,.61"/><path d="M104.59,110.17a.34.34,0,0,1-.42.25.34.34,0,0,1-.24-.42Z"/><path class="cls-17" d="M107.34,50.45c-3.34-9.76-9.85-12-17.4-12s-14.51,4.47-16.64,12Z"/><path class="cls-6" d="M80.56,51.61s.35-2.37,1.5-3.38-.84.55,0,3.34"/><path class="cls-6" d="M82.47,52.66A10.3,10.3,0,0,1,83.4,49c.76-1.21-.56.7.06,3.4"/><path class="cls-6" d="M84.31,51a18.48,18.48,0,0,1,1.75-4.8c1-1.53-.71.87-.69,4.52"/><circle class="cls-21" cx="107.17" cy="68.41" r="1.23"/><circle class="cls-15" cx="106.71" cy="67.98" r="0.28"/><path class="cls-22" d="M96.22,76.19a5.91,5.91,0,0,1-11.81,0Z"/><g class="cls-23"><rect class="cls-24" x="82.77" y="75.27" width="14.76" height="2.05"/></g><g class="cls-25"><path class="cls-26" d="M86.54,82.75a3.77,3.77,0,0,1,7.54,0Z"/></g><path class="cls-6" d="M195.61,58.1a2.51,2.51,0,0,0-2.26-2.72l-2.51-.29a2.49,2.49,0,0,0-2.77,2.16l-2.49,23.29a3.69,3.69,0,0,0,3.4,3.93h0a3.63,3.63,0,0,0,4.14-3.06Z"/><path class="cls-27" d="M187.76,81.66l4.68,9.18c.16.3.13.63-.05.72l-28.6,14.89c-1.34.69-3.34-.56-4.47-2.79l-.82-1.6c-1.15-2.26-1-4.66.36-5.36Z"/><path class="cls-6" d="M122.71,160.27c0,2.8-1.15,5.11-2.65,5.13l-2.73,0c-1.5,0-2.76-2.26-2.81-5.07l-.78-48.8c-.07-4,1.72-7.36,4-7.39h0c2.26,0,4.13,3.23,4.2,7.26Z"/><path class="cls-27" d="M113.21,94.41h10.66a0,0,0,0,1,0,0v56.22a4.75,4.75,0,0,1-4.75,4.75h-1.86a4.69,4.69,0,0,1-4.69-4.69V95.05A.64.64,0,0,1,113.21,94.41Z" transform="translate(236.44 249.79) rotate(-180)"/><rect class="cls-14" x="124.42" y="63.42" width="32.61" height="44.61"/><rect class="cls-28" x="118.48" y="94.41" width="45.19" height="71.99" rx="0.83"/><polygon class="cls-8" points="139.89 102.2 129.42 109.3 129.42 95.1 139.89 102.2"/><polygon class="cls-8" points="141.94 102.2 152.73 109.3 152.73 95.1 141.94 102.2"/><rect class="cls-8" x="129.42" y="94.41" width="23.3" height="8.08"/><rect class="cls-6" x="133.96" y="85.05" width="13.4" height="16.63" rx="5.07"/><path class="cls-11" d="M134,87.94v1.83c0,3.16,3,5.75,6.69,5.75h0c3.68,0,6.69-2.59,6.69-5.75V88.08"/><path class="cls-6" d="M126.13,65.06V62c0-8.56,6.5-15.5,14.53-15.5h0c8,0,14.52,6.94,14.52,15.5V76.69c0,8.56-6.5,15.5-14.52,15.5h0c-8,0-14.53-6.94-14.53-15.5V65.06"/><ellipse class="cls-6" cx="155.63" cy="69.86" rx="3.76" ry="3.95"/><path class="cls-12" d="M155.63,67.69V72a2.18,2.18,0,0,0,0-4.35Z"/><ellipse class="cls-6" cx="126.44" cy="69.86" rx="3.76" ry="3.95"/><path class="cls-12" d="M124.36,69.86A2.13,2.13,0,0,0,126.44,72V67.69A2.12,2.12,0,0,0,124.36,69.86Z"/><path class="cls-29" d="M138.8,77.94a2.17,2.17,0,0,1,4.33,0Z"/><rect class="cls-30" x="145.73" y="64.49" width="3.79" height="5.37" rx="1.9"/><circle class="cls-15" cx="147.63" cy="67.28" r="0.91"/><rect class="cls-30" x="132.3" y="64.49" width="3.79" height="5.37" rx="1.9"/><path class="cls-31" d="M136.12,83.82a5.62,5.62,0,0,0,4,2.14,6.39,6.39,0,0,0,5.71-2.14"/><circle class="cls-15" cx="134.2" cy="67.28" r="0.91"/><path class="cls-32" d="M143.82,63.18a4.53,4.53,0,0,1,3.35-1.73,4.84,4.84,0,0,1,3.72,1.41"/><path class="cls-32" d="M130.66,63.18A4.56,4.56,0,0,1,134,61.45a4.82,4.82,0,0,1,3.72,1.41"/><rect class="cls-14" x="133.29" y="44.15" width="22.87" height="9.64" rx="4.02"/><path class="cls-14" d="M124.42,66.34a6.81,6.81,0,0,0,1,0h0a3.31,3.31,0,0,0,3.15-3.43l.71-9.94c0-.92-1.41-.71-1.94-1.33,0,0-1.32,2.67-1.71,3.74a28.72,28.72,0,0,0-1.2,6.31C124.41,62.84,124.42,66.34,124.42,66.34Z"/><path class="cls-14" d="M157,66.05a6.68,6.68,0,0,1-1,0h0a3.27,3.27,0,0,1-3.16-3.36l-.71-9.75c0-.89,1.41-.7,2-1.3,0,0,1.31,2.62,1.7,3.66A27.24,27.24,0,0,1,157,61.49C157,62.62,157,66.05,157,66.05Z"/><rect class="cls-13" x="147.63" y="72.04" width="4.23" height="1.77" rx="0.74"/><rect class="cls-13" x="130.19" y="72.04" width="4.23" height="1.77" rx="0.74"/><rect class="cls-33" x="126.91" y="48.66" width="11.67" height="5.97" rx="2.49"/><rect class="cls-8" x="140" y="111.89" width="1.94" height="1.94" rx="0.81"/><rect class="cls-8" x="140.22" y="122.56" width="1.49" height="1.64" rx="0.62"/><rect class="cls-8" x="140.22" y="131.5" width="1.49" height="1.64" rx="0.62"/><rect class="cls-8" x="140.22" y="140.44" width="1.49" height="1.64" rx="0.62"/><rect class="cls-8" x="140.22" y="149.38" width="1.49" height="1.64" rx="0.62"/><path class="cls-6" d="M30.2,121a3,3,0,0,1-.95-4.11l1.6-2.47A3,3,0,0,1,35,113.6l24.44,15.71a4.38,4.38,0,0,1,1.26,6.08h0a4.4,4.4,0,0,1-6.06,1.34Z"/><path class="cls-27" d="M186.12,58.3,196,59.42c.33,0,.57.22.56.41L193.4,89.41c-.14,1.37-2.2,2.27-4.59,2l-1.71-.2c-2.42-.28-4.26-1.63-4.12-3Z"/><ellipse class="cls-6" cx="192.37" cy="53.79" rx="5.22" ry="4.11" transform="matrix(0.15, -0.99, 0.99, 0.15, 111.03, 236.22)"/><polygon class="cls-8" points="186.28 58.01 196.8 59.23 195.9 66.34 185.43 64.88 186.28 58.01"/><polygon class="cls-8" points="112.54 148.39 118.43 148.32 118.54 155.34 112.66 155.31 112.54 148.39"/><ellipse class="cls-6" cx="29.53" cy="115.13" rx="5.18" ry="5.77" transform="translate(-78.76 66.12) rotate(-51.26)"/><polygon class="cls-34" points="-1.23 86.17 -1.23 21.41 33.43 56.97 -1.23 86.17"/><circle class="cls-35" cx="168.06" cy="12.55" r="2.36"/><circle class="cls-36" cx="172.78" cy="57.8" r="2.36"/><circle class="cls-35" cx="47.47" cy="152.93" r="2.36"/><circle class="cls-35" cx="196.51" cy="180.43" r="2.36"/><circle class="cls-37" cx="69.77" cy="19.38" r="2.36"/><rect class="cls-36" x="31.1" y="89.12" width="4.62" height="4.62" transform="translate(55.5 -3.37) rotate(33.19)"/><rect class="cls-36" x="115.91" y="183.98" width="4.62" height="4.62" transform="translate(242.32 3.86) rotate(66.63)"/><polygon class="cls-35" points="199.48 118.41 198.03 115.04 201.38 113.58 202.82 116.95 199.48 118.41"/></svg>