<svg xmlns="http://www.w3.org/2000/svg" xmlns:xlink="http://www.w3.org/1999/xlink" viewBox="0 0 231.15 209.39"><defs><style>.cls-1,.cls-13,.cls-28,.cls-29,.cls-31,.cls-32,.cls-33{fill:none;}.cls-2{fill:url(#Безымянный_градиент_8);}.cls-3{fill:#f5c494;}.cls-4{fill:#f2a0a0;}.cls-5{fill:#f2e750;}.cls-6{fill:#b6955f;}.cls-7{fill:#eab7b7;}.cls-8{fill:#cca27d;opacity:0.25;}.cls-9{fill:#f4b073;}.cls-10{fill:#f8ae9b;}.cls-11{fill:#3f2f29;}.cls-12{fill:#fff;}.cls-13{stroke:#b6955f;}.cls-13,.cls-28,.cls-29{stroke-linecap:round;stroke-linejoin:round;}.cls-14{fill:#d3aa71;}.cls-15{fill:#8f1f1d;}.cls-16{fill:#e23a26;}.cls-17{fill:#e33b26;}.cls-18{fill:#91bed4;}.cls-19{fill:#683034;}.cls-20{clip-path:url(#clip-path);}.cls-21{fill:#ededef;}.cls-22{clip-path:url(#clip-path-2);}.cls-23{fill:#f27171;}.cls-24{fill:#f9f1a5;}.cls-25{fill:#fffabd;}.cls-26{fill:#d6a374;}.cls-27{fill:#296d7e;}.cls-28{stroke:#f3674e;}.cls-29{stroke:#3f2e00;stroke-width:0.75px;}.cls-30{fill:#504039;}.cls-31{stroke:#bcdfe4;}.cls-31,.cls-32,.cls-33{stroke-miterlimit:10;}.cls-32{stroke:#d29cff;}.cls-32,.cls-33{opacity:0.42;}.cls-33{stroke:#49f2d3;}.cls-34{clip-path:url(#clip-path-3);}.cls-35{fill:#0e1733;}</style><linearGradient id="Безымянный_градиент_8" x1="21.34" y1="34.95" x2="184.05" y2="156.82" gradientUnits="userSpaceOnUse"><stop offset="0" stop-color="#d29cff" stop-opacity="0.1"/><stop offset="1" stop-color="#bcdfe4" stop-opacity="0.26"/></linearGradient><clipPath id="clip-path"><path class="cls-1" d="M100.54,84.22a4.69,4.69,0,0,1-.07.78s-2.2,1.78-4,1.78a7.66,7.66,0,0,1-4-1.74,4.35,4.35,0,0,1-.08-.82Z"/></clipPath><clipPath id="clip-path-2"><path class="cls-1" d="M100.54,84.22a4.1,4.1,0,0,1-8.2,0Z"/></clipPath><clipPath id="clip-path-3"><rect class="cls-1" x="-150.14" y="44.85" width="38.57" height="60.46" rx="18.61"/></clipPath></defs><title>signin5svg_Монтажная область 1 копия 15</title><g id="Слой_1" data-name="Слой 1"><rect class="cls-2" y="0.84" width="231.15" height="209.39"/><ellipse class="cls-3" cx="115.45" cy="142.75" rx="2.86" ry="3.62"/><path class="cls-3" d="M76.93,123.93a2.39,2.39,0,0,1-2.86,1.69l-1.9-.76a2.4,2.4,0,0,1-1-3.2L80.39,98.3c.76-1.94,2.66-3,4.24-2.37h0c1.57.62,2.23,2.69,1.47,4.63Z"/><path class="cls-4" d="M76.58,95.23h7.9a0,0,0,0,1,0,0v20.43a4.27,4.27,0,0,1-4.27,4.27h0A4.21,4.21,0,0,1,76,115.71V95.8a.58.58,0,0,1,.58-.58Z" transform="translate(115.41 237.09) rotate(-158.47)"/><path class="cls-4" d="M76.63,95.25h7.9a0,0,0,0,1,0,0v20.43a4.27,4.27,0,0,1-4.27,4.27h0a4.21,4.21,0,0,1-4.21-4.21V95.82A.58.58,0,0,1,76.63,95.25Z" transform="translate(115.51 237.14) rotate(-158.47)"/><ellipse class="cls-3" cx="88.87" cy="143.44" rx="4.24" ry="3.3" transform="translate(-79.84 140.28) rotate(-57.14)"/><rect class="cls-5" x="71.81" y="117.01" width="8.55" height="2.28" transform="translate(103.51 255.98) rotate(-158.47)"/><path class="cls-3" d="M148.69,103.27c2,0,3.64-.85,3.66-2l0-2.05c0-1.12-1.61-2.07-3.61-2.11L114,96.51c-2.88-.05-5.24,1.29-5.26,3h0c0,1.69,2.29,3.1,5.16,3.15Z"/><path class="cls-4" d="M113.64,87.83h0a4.27,4.27,0,0,1,4.27,4.27v19.83a0,0,0,0,1,0,0H110a.58.58,0,0,1-.58-.58V92a4.21,4.21,0,0,1,4.21-4.21Z" transform="translate(13.65 213.42) rotate(-89.93)"/><ellipse class="cls-3" cx="149.31" cy="99.69" rx="3.3" ry="3.87" transform="translate(49.41 248.85) rotate(-89.92)"/><rect class="cls-5" x="122.26" y="97.03" width="4.98" height="2.22" transform="translate(26.46 222.78) rotate(-89.93)"/><rect class="cls-6" x="82.66" y="75.3" width="27.11" height="17.71"/><rect class="cls-7" x="82.23" y="95.42" width="28.43" height="53.29" rx="0.83"/><rect class="cls-3" x="91.1" y="82.45" width="10.05" height="20.17" rx="5.03"/><path class="cls-8" d="M91.19,90v1.17c0,2,2.26,3.68,5,3.68h0c2.77,0,5-1.65,5-3.68V90"/><path class="cls-3" d="M85.24,72.74V70.45c0-6.42,4.89-11.63,10.91-11.63h0c6,0,10.9,5.21,10.9,11.63v11c0,6.42-4.88,11.63-10.9,11.63h0c-6,0-10.91-5.21-10.91-11.63V72.74"/><ellipse class="cls-3" cx="107.45" cy="75.69" rx="2.82" ry="2.96"/><path class="cls-9" d="M107.45,74.05v3.27a1.64,1.64,0,0,0,0-3.27Z"/><ellipse class="cls-3" cx="85.54" cy="75.69" rx="2.82" ry="2.96"/><path class="cls-9" d="M84,75.69a1.6,1.6,0,0,0,1.56,1.63V74.05A1.6,1.6,0,0,0,84,75.69Z"/><path class="cls-10" d="M97.6,80.27a1.39,1.39,0,0,1-2.78,0Z"/><rect class="cls-11" x="100.02" y="70.68" width="2.85" height="4.66" rx="1.42"/><circle class="cls-12" cx="101.45" cy="72.78" r="0.69"/><rect class="cls-11" x="89.94" y="70.68" width="2.85" height="4.66" rx="1.42"/><circle class="cls-12" cx="91.37" cy="72.78" r="0.69"/><path class="cls-13" d="M98.59,69.7a3.4,3.4,0,0,1,2.51-1.3,3.64,3.64,0,0,1,2.79,1.06"/><path class="cls-13" d="M88.71,69.7a3.43,3.43,0,0,1,2.52-1.3A3.66,3.66,0,0,1,94,69.46"/><path class="cls-14" d="M82.65,83a4.31,4.31,0,0,0,.88,0h0c1.53,0,2.78-2.21,2.78-4.9,0,0,.34-10.73,1.56-14.08.35-1-1-.63-1.11-.8a2.4,2.4,0,0,0-.89-.81c-.19-.12.2-.37.07-.6,0,0-2.11,3.56-2.33,5.14-.14,1.08-.7,3.28-.91,5.12a34.83,34.83,0,0,0,0,4.29C82.64,78,82.65,83,82.65,83Z"/><path class="cls-14" d="M109.33,73.46h-1a3.13,3.13,0,0,1-2.92-2.73c-.22-1.2-1.3-7.65-1.14-8s1.65-1.06,2.21-.82,1.11,2,1.5,2.89a25.82,25.82,0,0,1,1,5.2C109,70.52,109.33,73.46,109.33,73.46Z"/><path class="cls-14" d="M85.6,62.49c.12-.81,2.64-3.3,4.38-4.38a12.18,12.18,0,0,1,6.55-1.83,12.41,12.41,0,0,1,10.37,6.21c.3.73-1.24,1.73-1.5,2.16s-1.38-4.2-8-4.23-7.52,1.41-8.67,2.8a5,5,0,0,0-1.22,2.59S85.47,63.31,85.6,62.49Z"/><path class="cls-15" d="M104.38,107.18a.74.74,0,0,1-.48-.76l.26,0s-.17.37.3.56l-.08.23"/><path class="cls-15" d="M107.83,108.21a.72.72,0,0,0,.81-.37l-.2-.17s-.06.4-.56.31l0,.23"/><path class="cls-15" d="M106.33,106.9a5.93,5.93,0,0,0-1.41-.24l-.26.88a5,5,0,0,0,1.3.57,5,5,0,0,0,1.57.24l.23-.79a5,5,0,0,0-1.43-.66"/><path class="cls-15" d="M107.61,108.15a.31.31,0,0,1,0-.15c0-.08.13-.11.18-.07l0,0h0a.39.39,0,0,1-.12.46,1.89,1.89,0,0,1-.49.27s.17-.34.36-.56"/><path class="cls-15" d="M104.71,107.24a.2.2,0,0,0,.06-.14.18.18,0,0,0-.12-.2h-.06a.34.34,0,0,0-.18.44,2.57,2.57,0,0,0,.28.59,1.61,1.61,0,0,0,0-.7"/><path class="cls-16" d="M104.39,107.17h0"/><path class="cls-17" d="M108.05,107.94v0l.17-.14a.09.09,0,0,0,0-.06.07.07,0,0,0,0,0l-.19-.1v-.06l.14-.17a.07.07,0,0,0,0-.06.08.08,0,0,0,0-.05l-.21,0,0-.06.11-.19a.09.09,0,0,0,0-.07.05.05,0,0,0,0,0h-.22l0,0,.07-.22a0,0,0,0,0,0-.06,0,0,0,0,0-.05,0l-.22,0,0,0,0-.23a.14.14,0,0,0,0-.06h-.06l-.21.08,0,0V106a.05.05,0,0,0,0,0H107l-.19.12,0,0-.05-.22a.08.08,0,0,0,0-.05s0,0-.06,0l-.16.15h-.06l-.09-.2a.07.07,0,0,0,0,0,.06.06,0,0,0-.06,0l-.14.18h0l-.13-.18s0,0-.06,0a.05.05,0,0,0,0,0l-.1.21h-.05l-.17-.15a.06.06,0,0,0-.06,0,.07.07,0,0,0,0,0l-.06.22,0,0-.19-.11H105a.07.07,0,0,0,0,.06v.22l0,0-.21-.07a0,0,0,0,0-.06,0s0,0,0,.06l0,.22,0,0-.22,0s0,0-.06,0a.08.08,0,0,0,0,.07l.07.21h0l-.09,0,.11.31a4.44,4.44,0,0,0,3.34,1c.19,0,.32-.24.32-.24"/><path class="cls-12" d="M106.76,107.52a.13.13,0,0,1-.15.11s-.08-.09-.06-.17.09-.13.15-.11.08.09.06.17"/><ellipse cx="105.76" cy="107.29" rx="0.28" ry="0.23" transform="translate(-27.34 177.86) rotate(-73.34)"/><rect class="cls-1" x="104.6" y="105.09" width="3.25" height="4.41" transform="matrix(0.29, -0.96, 0.96, 0.29, -27.02, 178.32)"/><path class="cls-12" d="M105.85,107.25a.15.15,0,0,1-.15.12c-.06,0-.09-.1-.06-.19a.13.13,0,0,1,.15-.11.13.13,0,0,1,.06.18"/><ellipse cx="106.67" cy="107.56" rx="0.28" ry="0.23" transform="translate(-26.95 178.93) rotate(-73.34)"/><path class="cls-12" d="M106.77,107.52c0,.09-.09.14-.15.12a.15.15,0,0,1-.07-.18.16.16,0,0,1,.16-.12c.06,0,.08.1.06.18"/><path class="cls-17" d="M104.43,107.23c.06,0,.18-.06.2-.14a.25.25,0,0,0-.18-.29h-.1a.44.44,0,0,0-.36.55,3.72,3.72,0,0,0,.4.85c.08,0,.08-.54,0-1"/><path class="cls-17" d="M107.79,108.22c0-.06-.16-.14-.14-.22a.24.24,0,0,1,.29-.18.12.12,0,0,1,.08,0h0a.43.43,0,0,1,.09.65,3.3,3.3,0,0,1-.72.6c-.09,0,.18-.52.39-.89"/><rect class="cls-1" x="104.6" y="105.09" width="3.25" height="4.41" transform="translate(-27.02 178.32) rotate(-73.34)"/><rect class="cls-1" x="104.6" y="105.09" width="3.25" height="4.41" transform="matrix(0.29, -0.96, 0.96, 0.29, -27.02, 178.32)"/><path class="cls-17" d="M104,106.06a5.08,5.08,0,0,0-.13-.53.49.49,0,0,0-.36.49.48.48,0,0,0,.4.52.47.47,0,0,0,.42-.5.55.55,0,0,0-.09-.32,1.77,1.77,0,0,1-.24.34"/><rect class="cls-1" x="104.6" y="105.09" width="3.25" height="4.41" transform="translate(-27.02 178.32) rotate(-73.34)"/><path class="cls-17" d="M108.72,107.47s.16-.17.4-.38a.49.49,0,0,1,0,.61.42.42,0,1,1-.69-.44.53.53,0,0,1,.25-.22,2.1,2.1,0,0,0,0,.43"/><path d="M106.36,107.83a.24.24,0,1,1-.46-.12Z"/><path class="cls-14" d="M108.27,66.34C106,59.56,101.43,58,96.19,58a11.73,11.73,0,0,0-11.57,8.34Z"/><path class="cls-3" d="M89.66,67.15a4.72,4.72,0,0,1,1-2.36c.81-.7-.59.39,0,2.33"/><path class="cls-3" d="M91,67.87a7.14,7.14,0,0,1,.65-2.56c.53-.84-.39.49,0,2.36"/><path class="cls-3" d="M92.27,66.69a12.75,12.75,0,0,1,1.22-3.34c.71-1.06-.5.61-.48,3.14"/><circle class="cls-18" cx="108.15" cy="78.82" r="0.85"/><circle class="cls-12" cx="107.83" cy="78.52" r="0.19"/><path class="cls-19" d="M100.54,84.22a4.1,4.1,0,0,1-8.2,0Z"/><g class="cls-20"><rect class="cls-21" x="91.2" y="83.58" width="10.25" height="1.42"/></g><g class="cls-22"><path class="cls-23" d="M93.82,88.78a2.62,2.62,0,0,1,5.24,0Z"/></g><path class="cls-3" d="M169.59,71.65A1.75,1.75,0,0,0,168,69.76l-1.75-.2a1.73,1.73,0,0,0-1.92,1.5l-1.73,16.18A2.55,2.55,0,0,0,165,90h0a2.51,2.51,0,0,0,2.87-2.12Z"/><path class="cls-24" d="M164.14,88l3.25,6.38c.11.21.1.44,0,.5l-19.87,10.34c-.93.48-2.32-.38-3.11-1.93l-.57-1.12c-.8-1.57-.68-3.24.25-3.72Z"/><path class="cls-3" d="M119,142.63c0,2-.8,3.56-1.84,3.57l-1.9,0c-1,0-1.92-1.57-1.95-3.52l-.54-33.91c0-2.81,1.19-5.11,2.76-5.13h0c1.57,0,2.87,2.24,2.92,5Z"/><path class="cls-24" d="M112.44,96.88h7.31a0,0,0,0,1,0,0v38.41a3.95,3.95,0,0,1-3.95,3.95h0a3.9,3.9,0,0,1-3.9-3.9V97.41a.53.53,0,0,1,.53-.53Z" transform="translate(231.66 236.12) rotate(-180)"/><rect class="cls-11" x="120.14" y="75.35" width="22.65" height="30.99"/><rect class="cls-25" x="116.01" y="96.88" width="31.39" height="50.02" rx="0.83"/><polygon class="cls-5" points="130.89 102.29 123.61 107.22 123.61 97.36 130.89 102.29"/><polygon class="cls-5" points="132.31 102.29 139.8 107.22 139.8 97.36 132.31 102.29"/><rect class="cls-5" x="123.61" y="96.88" width="16.19" height="5.61"/><rect class="cls-3" x="126.76" y="90.38" width="9.31" height="11.55" rx="4.65"/><path class="cls-8" d="M126.76,92.39v1.26c0,2.2,2.1,4,4.66,4h0c2.56,0,4.65-1.8,4.65-4V92.48"/><path class="cls-3" d="M121.32,76.49V74.37c0-6,4.52-10.77,10.1-10.77h0c5.57,0,10.09,4.82,10.09,10.77v10.2c0,5.94-4.52,10.76-10.09,10.76h0c-5.58,0-10.1-4.82-10.1-10.76V76.49"/><ellipse class="cls-3" cx="141.82" cy="79.82" rx="2.61" ry="2.74"/><path class="cls-9" d="M141.82,78.31v3a1.52,1.52,0,0,0,0-3Z"/><ellipse class="cls-3" cx="121.54" cy="79.82" rx="2.61" ry="2.74"/><path class="cls-9" d="M120.1,79.82a1.48,1.48,0,0,0,1.44,1.52v-3A1.48,1.48,0,0,0,120.1,79.82Z"/><path class="cls-26" d="M130.13,85.43a1.51,1.51,0,0,1,3,0Z"/><rect class="cls-27" x="134.94" y="76.09" width="2.63" height="3.73" rx="1.32"/><circle class="cls-12" cx="136.26" cy="78.03" r="0.63"/><rect class="cls-27" x="125.61" y="76.09" width="2.63" height="3.73" rx="1.32"/><path class="cls-28" d="M128.27,89.52A3.87,3.87,0,0,0,131,91a4.43,4.43,0,0,0,4-1.49"/><circle class="cls-12" cx="126.93" cy="78.03" r="0.63"/><path class="cls-29" d="M133.61,75.18a3.21,3.21,0,0,1,2.33-1.2,3.38,3.38,0,0,1,2.59,1"/><path class="cls-29" d="M124.47,75.18A3.21,3.21,0,0,1,126.8,74a3.38,3.38,0,0,1,2.59,1"/><rect class="cls-11" x="126.3" y="61.96" width="15.89" height="6.69" rx="3.35"/><path class="cls-11" d="M120.14,77.38a5.45,5.45,0,0,0,.7,0h0A2.3,2.3,0,0,0,123,75l.49-6.91c0-.64-1-.5-1.35-.92,0,0-.92,1.85-1.18,2.59a19.81,19.81,0,0,0-.84,4.39C120.13,75,120.14,77.38,120.14,77.38Z"/><path class="cls-11" d="M142.79,77.18a5.45,5.45,0,0,1-.7,0h0a2.28,2.28,0,0,1-2.19-2.34l-.49-6.77c0-.62,1-.48,1.35-.9,0,0,.92,1.81,1.18,2.54a18.5,18.5,0,0,1,.84,4.3C142.8,74.79,142.79,77.18,142.79,77.18Z"/><rect class="cls-10" x="136.26" y="81.34" width="2.94" height="1.23" rx="0.61"/><rect class="cls-10" x="124.14" y="81.34" width="2.94" height="1.23" rx="0.61"/><rect class="cls-30" x="121.86" y="65.09" width="8.11" height="4.15" rx="2.07"/><rect class="cls-5" x="130.96" y="109.02" width="1.35" height="1.35" rx="0.67"/><rect class="cls-5" x="131.11" y="116.43" width="1.04" height="1.14" rx="0.52"/><rect class="cls-5" x="131.11" y="122.64" width="1.04" height="1.14" rx="0.52"/><rect class="cls-5" x="131.11" y="128.86" width="1.04" height="1.14" rx="0.52"/><rect class="cls-5" x="131.11" y="135.07" width="1.04" height="1.14" rx="0.52"/><path class="cls-3" d="M54.68,115.36A2.08,2.08,0,0,1,54,112.5l1.11-1.72a2.1,2.1,0,0,1,2.89-.57l17,10.92a3,3,0,0,1,.88,4.22h0a3.05,3.05,0,0,1-4.21.93Z"/><path class="cls-24" d="M163,71.79l6.83.78c.23,0,.4.15.39.28L168.06,93.4c-.1,1-1.53,1.58-3.19,1.39l-1.19-.13c-1.68-.2-3-1.14-2.86-2.1Z"/><ellipse class="cls-3" cx="167.34" cy="68.66" rx="3.62" ry="2.86" transform="translate(74.96 224.16) rotate(-81.59)"/><polygon class="cls-5" points="163.11 71.59 170.42 72.44 169.79 77.38 162.53 76.36 163.11 71.59"/><polygon class="cls-5" points="111.88 134.38 115.97 134.34 116.05 139.21 111.97 139.19 111.88 134.38"/><ellipse class="cls-3" cx="54.21" cy="111.28" rx="3.6" ry="4.01" transform="translate(-66.51 83.93) rotate(-51.26)"/><circle class="cls-31" cx="127.56" cy="37.74" r="2.36"/><circle class="cls-32" cx="189.71" cy="75.69" r="2.36"/><circle class="cls-31" cx="47.47" cy="152.93" r="2.36"/><circle class="cls-31" cx="182.39" cy="166.2" r="2.36"/><circle class="cls-33" cx="69.77" cy="19.38" r="2.36"/><rect class="cls-32" x="31.1" y="89.12" width="4.62" height="4.62" transform="translate(55.5 -3.37) rotate(33.19)"/><rect class="cls-32" x="115.91" y="183.98" width="4.62" height="4.62" transform="translate(242.32 3.86) rotate(66.63)"/><polygon class="cls-31" points="199.48 118.41 198.03 115.04 201.38 113.58 202.82 116.95 199.48 118.41"/></g><g id="Слой_2" data-name="Слой 2"><g class="cls-34"><rect class="cls-35" x="-43.43" y="52.15" width="46.37" height="36.42"/></g></g></svg>