<svg id="Слой_1" data-name="Слой 1" xmlns="http://www.w3.org/2000/svg" xmlns:xlink="http://www.w3.org/1999/xlink" viewBox="0 0 168.78 154.96"><defs><style>.cls-1,.cls-12,.cls-26,.cls-27,.cls-39{fill:none;}.cls-2{fill:#f5c494;}.cls-3{fill:#f2a0a0;}.cls-4{fill:#f2e750;}.cls-5{fill:#b6955f;}.cls-6{fill:#eab7b7;}.cls-7{fill:#cca27d;opacity:0.25;}.cls-8{fill:#f4b073;}.cls-9{fill:#f8ae9b;}.cls-10{fill:#3f2f29;}.cls-11,.cls-41{fill:#fff;}.cls-12{stroke:#b6955f;}.cls-12,.cls-26,.cls-27{stroke-linecap:round;stroke-linejoin:round;}.cls-13{fill:#d3aa71;}.cls-14{fill:#683034;}.cls-15{clip-path:url(#clip-path);}.cls-16{fill:#ededef;}.cls-17{clip-path:url(#clip-path-2);}.cls-18{fill:#f27171;}.cls-19{fill:#8f1f1d;}.cls-20{fill:#e23a26;}.cls-21{fill:#e33b26;}.cls-22{fill:#f9f1a5;}.cls-23{fill:#fffabd;}.cls-24{fill:#d6a374;}.cls-25{fill:#3a7987;}.cls-26{stroke:#f3674e;}.cls-27{stroke:#3f2e00;}.cls-27,.cls-39{stroke-width:0.75px;}.cls-28{fill:#504039;}.cls-29{fill:#667fb7;}.cls-30{fill:#324868;}.cls-31{fill:#d0d8d9;}.cls-32{clip-path:url(#clip-path-3);}.cls-33{fill:#0e1733;}.cls-34{fill:#f2ebeb;opacity:0.78;}.cls-35{clip-path:url(#clip-path-4);}.cls-36{fill:#cc3648;}.cls-37{clip-path:url(#clip-path-5);}.cls-38{fill:#d11837;}.cls-39{stroke:#000;}.cls-39,.cls-41{stroke-miterlimit:10;}.cls-40{fill:#162749;}.cls-41{stroke:#fff;stroke-width:0.25px;}.cls-42{fill:#7a7af3;}</style><clipPath id="clip-path"><path class="cls-1" d="M138.75,44.59a6.77,6.77,0,0,1-.11,1.13c0,.06-3.17,2.55-5.8,2.55s-5.74-2.39-5.78-2.5a6.69,6.69,0,0,1-.12-1.18Z"/></clipPath><clipPath id="clip-path-2"><path class="cls-1" d="M138.75,44.59a5.91,5.91,0,0,1-11.81,0Z"/></clipPath><clipPath id="clip-path-3"><rect class="cls-1" x="-57.42" y="89.73" width="37.22" height="56.77" rx="13.98"/></clipPath><clipPath id="clip-path-4"><rect class="cls-1" x="68.49" y="18.35" width="37.22" height="54.69" rx="18.61"/></clipPath><clipPath id="clip-path-5"><path class="cls-1" d="M94.85,51.85a7.75,7.75,0,0,1-15.5,0Z"/></clipPath></defs><title>money-block-1</title><path class="cls-2" d="M116.56,134.09c0,3-1.24,5.52-2.86,5.54l-3,0c-1.62,0-3-2.45-3-5.48l-.85-52.72c-.07-4.37,1.86-8,4.3-8h0c2.44,0,4.47,3.48,4.54,7.85Z"/><path class="cls-3" d="M106.3,62.95h11.51a0,0,0,0,1,0,0V93.37a5.13,5.13,0,0,1-5.13,5.13h-2a5.06,5.06,0,0,1-5.06-5.06V63.64A.69.69,0,0,1,106.3,62.95Z" transform="translate(223.43 161.44) rotate(-180)"/><ellipse class="cls-2" cx="108.75" cy="133.55" rx="4.75" ry="6.1"/><rect class="cls-4" x="105.61" y="95.44" width="8.82" height="3.28" transform="translate(220.05 194.16) rotate(-180)"/><rect class="cls-5" x="113" y="32.28" width="39.02" height="25.49"/><path class="cls-2" d="M149,134.09c0,3,1.23,5.52,2.85,5.54l2.95,0c1.62,0,3-2.45,3-5.48l.85-52.72c.07-4.37-1.86-8-4.3-8h0c-2.44,0-4.47,3.48-4.54,7.85Z"/><path class="cls-3" d="M152.78,62.95h2a5.13,5.13,0,0,1,5.13,5.13V98.5a0,0,0,0,1,0,0H148.41a.69.69,0,0,1-.69-.69V68a5.06,5.06,0,0,1,5.06-5.06Z"/><ellipse class="cls-2" cx="155.81" cy="133.55" rx="4.75" ry="6.1"/><rect class="cls-4" x="152.75" y="95.44" width="7.17" height="3.28"/><rect class="cls-6" x="112.5" y="62.95" width="40.93" height="76.71" rx="0.83"/><rect class="cls-2" x="125.27" y="44.28" width="14.47" height="29.04" rx="6.91"/><path class="cls-7" d="M125.27,52.37v1.68c0,2.92,3.26,5.31,7.23,5.31h0c4,0,7.23-2.39,7.23-5.31V52.49"/><path class="cls-2" d="M116.72,28.6V25.3c0-9.25,7-16.74,15.69-16.74h0c8.67,0,15.7,7.49,15.7,16.74V41.15c0,9.25-7,16.75-15.7,16.75h0c-8.66,0-15.69-7.5-15.69-16.75V28.6"/><ellipse class="cls-2" cx="148.68" cy="32.84" rx="4.07" ry="4.26"/><path class="cls-8" d="M148.68,30.49v4.7a2.35,2.35,0,0,0,0-4.7Z"/><ellipse class="cls-2" cx="117.15" cy="32.84" rx="4.07" ry="4.26"/><path class="cls-8" d="M114.9,32.84a2.31,2.31,0,0,0,2.25,2.35v-4.7A2.3,2.3,0,0,0,114.9,32.84Z"/><path class="cls-9" d="M134.51,39.44a2,2,0,0,1-4,0Z"/><rect class="cls-10" x="137.99" y="25.64" width="4.1" height="6.71" rx="2.05"/><circle class="cls-11" cx="140.04" cy="28.65" r="0.99"/><rect class="cls-10" x="123.48" y="25.64" width="4.1" height="6.71" rx="2.05"/><circle class="cls-11" cx="125.53" cy="28.65" r="0.99"/><path class="cls-12" d="M135.92,24.22a4.94,4.94,0,0,1,3.62-1.87,5.21,5.21,0,0,1,4,1.53"/><path class="cls-12" d="M121.71,24.22a4.94,4.94,0,0,1,3.62-1.87,5.21,5.21,0,0,1,4,1.53"/><path class="cls-13" d="M113,43.36a6,6,0,0,0,1.27,0h0c2.19,0,4-3.18,4-7,0,0,.49-15.44,2.25-20.26.51-1.38-1.44-.92-1.59-1.15a3.63,3.63,0,0,0-1.29-1.17c-.28-.17.28-.53.11-.86,0,0-3,5.12-3.36,7.39-.21,1.55-1,4.72-1.31,7.38A51.84,51.84,0,0,0,113,33.8C113,36.16,113,43.36,113,43.36Z"/><path class="cls-13" d="M151.38,29.64h-1.46c-2.52,0-3.88-2.21-4.2-3.94s-1.88-11-1.65-11.45,2.38-1.53,3.18-1.19,1.6,3,2.16,4.16c.74,1.6,1.47,6.78,1.49,7.48S151.38,29.64,151.38,29.64Z"/><path class="cls-13" d="M117.23,13.84c.18-1.16,3.81-4.75,6.3-6.3A17.5,17.5,0,0,1,133,4.91c8.67,0,14.13,7,14.92,8.93.44,1.06-1.78,2.49-2.15,3.11s-2-6-11.54-6.09-10.82,2-12.48,4A7.09,7.09,0,0,0,120,18.62S117,15,117.23,13.84Z"/><path class="cls-14" d="M138.75,44.59a5.91,5.91,0,0,1-11.81,0Z"/><g class="cls-15"><rect class="cls-16" x="125.3" y="43.67" width="14.76" height="2.05"/></g><g class="cls-17"><path class="cls-18" d="M129.07,51.15a3.77,3.77,0,0,1,7.54,0Z"/></g><path class="cls-19" d="M144.39,79.86a1,1,0,0,1-.69-1.08l.38,0s-.25.53.42.82l-.11.31"/><path class="cls-19" d="M149.35,81.35a1,1,0,0,0,1.17-.53l-.29-.25s-.08.58-.8.45l-.08.33"/><path class="cls-19" d="M147.19,79.47a7.59,7.59,0,0,0-2-.34l-.38,1.26a7.39,7.39,0,0,0,1.88.82,7,7,0,0,0,2.25.34l.34-1.13a7.18,7.18,0,0,0-2.07-1"/><path class="cls-19" d="M149,81.27a.39.39,0,0,1,.06-.21c.07-.13.19-.17.26-.11a.16.16,0,0,1,0,.07h0a.58.58,0,0,1-.18.67,2.56,2.56,0,0,1-.7.38c-.07,0,.24-.49.52-.8"/><path class="cls-19" d="M144.86,80a.34.34,0,0,0,.09-.21c0-.14-.07-.27-.17-.28h-.09a.49.49,0,0,0-.26.63,3.75,3.75,0,0,0,.4.85c.07.05.09-.55,0-1"/><path class="cls-20" d="M144.4,79.86h0"/><path class="cls-21" d="M149.67,81V80.9l.25-.2a.09.09,0,0,0,0-.08.08.08,0,0,0-.05-.08l-.29-.14a.22.22,0,0,0,0-.08l.21-.25a.1.1,0,0,0,0-.09s0-.06-.06-.06l-.31-.08,0-.08.16-.28a.09.09,0,0,0,0-.1.08.08,0,0,0-.07,0h-.32a.43.43,0,0,0,0-.07l.1-.31a.07.07,0,0,0,0-.09.09.09,0,0,0-.08,0l-.32,0-.05-.06,0-.32a.1.1,0,0,0,0-.09.1.1,0,0,0-.09,0l-.3.11-.07,0v-.32a.08.08,0,0,0,0-.08.1.1,0,0,0-.09,0l-.28.17-.07,0-.08-.31a.09.09,0,0,0-.06-.07.1.1,0,0,0-.09,0l-.24.22h-.07l-.14-.3a.09.09,0,0,0-.08,0,.09.09,0,0,0-.08,0l-.19.26h-.08l-.19-.25a.09.09,0,0,0-.08,0,.12.12,0,0,0-.08.06l-.14.29-.08,0-.23-.21a.1.1,0,0,0-.09,0,.07.07,0,0,0-.06.07l-.09.31-.07,0-.27-.16a.07.07,0,0,0-.09,0,.08.08,0,0,0-.05.08l0,.32-.06.05-.3-.1a.1.1,0,0,0-.09,0,.08.08,0,0,0,0,.08l0,.33-.06.06-.31,0a.1.1,0,0,0-.09,0,.11.11,0,0,0,0,.1l.1.3v0l-.13.07.15.45a6.44,6.44,0,0,0,4.81,1.45c.28,0,.46-.35.46-.35"/><path class="cls-11" d="M147.81,80.36c0,.11-.12.19-.21.16s-.12-.13-.08-.25a.16.16,0,1,1,.29.09"/><ellipse cx="146.37" cy="80.03" rx="0.4" ry="0.32" transform="translate(27.75 197.32) rotate(-73.34)"/><rect class="cls-1" x="144.71" y="76.87" width="4.68" height="6.35" transform="translate(28.22 197.98) rotate(-73.34)"/><path class="cls-11" d="M146.51,80c0,.12-.14.19-.22.17a.19.19,0,0,1-.09-.26c0-.12.13-.2.22-.17a.21.21,0,0,1,.09.26"/><ellipse cx="147.69" cy="80.42" rx="0.4" ry="0.32" transform="translate(28.31 198.86) rotate(-73.34)"/><path class="cls-11" d="M147.83,80.37c0,.11-.13.19-.22.16s-.13-.14-.09-.26a.2.2,0,0,1,.22-.17.23.23,0,0,1,.09.27"/><path class="cls-21" d="M144.46,79.94c.09,0,.27-.09.29-.2a.35.35,0,0,0-.27-.42h-.14a.62.62,0,0,0-.51.8,5.39,5.39,0,0,0,.57,1.22c.12.08.11-.78.06-1.4"/><path class="cls-21" d="M149.3,81.36c-.05-.08-.23-.19-.2-.3a.34.34,0,0,1,.41-.27.23.23,0,0,1,.12.06h0a.64.64,0,0,1,.14,1,5.34,5.34,0,0,1-1,.86c-.13,0,.26-.74.56-1.29"/><rect class="cls-1" x="144.71" y="76.87" width="4.68" height="6.35" transform="translate(28.22 197.98) rotate(-73.34)"/><rect class="cls-1" x="144.71" y="76.87" width="4.68" height="6.35" transform="translate(28.22 197.98) rotate(-73.34)"/><path class="cls-21" d="M143.89,78.26a6.05,6.05,0,0,0-.18-.76.69.69,0,0,0-.51.71.6.6,0,1,0,1.17,0,.81.81,0,0,0-.12-.47,2.59,2.59,0,0,1-.36.5"/><rect class="cls-1" x="144.71" y="76.87" width="4.68" height="6.35" transform="translate(28.22 197.98) rotate(-73.34)"/><path class="cls-21" d="M150.64,80.28s.23-.24.57-.54a.7.7,0,0,1,0,.88.6.6,0,1,1-1-.63.79.79,0,0,1,.36-.32,2.66,2.66,0,0,0,0,.61"/><path d="M147.24,80.81a.34.34,0,1,1-.66-.18Z"/><path class="cls-13" d="M149.86,19.38c-3.33-9.76-9.85-12-17.39-12s-14.51,4.47-16.65,12Z"/><path class="cls-2" d="M18.73,131.75c.05,2.92-1.14,5.33-2.64,5.35l-2.73,0c-1.5,0-2.76-2.36-2.81-5.29L9.77,81c-.07-4.22,1.72-7.66,4-7.69h0c2.26,0,4.13,3.36,4.2,7.56Z"/><path class="cls-22" d="M9.24,63.15H19.9a0,0,0,0,1,0,0v58.76a4.75,4.75,0,0,1-4.75,4.75H13.29A4.69,4.69,0,0,1,8.6,122V63.79a.64.64,0,0,1,.64-.64Z" transform="translate(28.5 189.81) rotate(-180)"/><ellipse class="cls-2" cx="12.62" cy="131.23" rx="4.4" ry="5.88"/><rect class="cls-10" x="20.45" y="32.15" width="32.61" height="44.61"/><path class="cls-2" d="M55.26,129c0,2.8,1.14,5.11,2.64,5.13l2.73,0c1.5,0,2.76-2.27,2.81-5.07l.78-48.8c.07-4-1.72-7.36-4-7.39h0c-2.25,0-4.13,3.23-4.2,7.26Z"/><path class="cls-22" d="M58.78,63.15h1.86a4.75,4.75,0,0,1,4.75,4.75v56.22a0,0,0,0,1,0,0H54.73a.64.64,0,0,1-.64-.64V67.84a4.69,4.69,0,0,1,4.69-4.69Z"/><ellipse class="cls-2" cx="61.38" cy="128.51" rx="4.4" ry="5.65"/><rect class="cls-23" x="14.51" y="63.15" width="45.67" height="76.5" rx="0.83"/><polygon class="cls-4" points="35.92 70.94 25.45 78.04 25.45 63.84 35.92 70.94"/><polygon class="cls-4" points="37.97 70.94 48.76 78.04 48.76 63.84 37.97 70.94"/><rect class="cls-4" x="25.45" y="63.15" width="23.3" height="8.08"/><rect class="cls-4" x="59.7" y="116.28" width="5.69" height="7.83"/><rect class="cls-2" x="29.99" y="53.79" width="13.4" height="16.63" rx="5.07"/><path class="cls-7" d="M30,56.68v1.83c0,3.16,3,5.75,6.69,5.75h0c3.68,0,6.69-2.59,6.69-5.75V56.82"/><path class="cls-2" d="M22.16,33.8v-3c0-8.56,6.5-15.5,14.53-15.5h0c8,0,14.52,6.94,14.52,15.5V45.42c0,8.56-6.5,15.5-14.52,15.5h0c-8,0-14.53-6.94-14.53-15.5V33.8"/><ellipse class="cls-2" cx="51.66" cy="38.6" rx="3.76" ry="3.95"/><path class="cls-8" d="M51.66,36.42v4.36a2.18,2.18,0,0,0,0-4.36Z"/><ellipse class="cls-2" cx="22.47" cy="38.6" rx="3.76" ry="3.95"/><path class="cls-8" d="M20.39,38.6a2.13,2.13,0,0,0,2.08,2.18V36.42A2.13,2.13,0,0,0,20.39,38.6Z"/><path class="cls-24" d="M34.83,46.68a2.17,2.17,0,0,1,4.33,0Z"/><rect class="cls-25" x="41.76" y="33.23" width="3.79" height="5.37" rx="1.9"/><circle class="cls-11" cx="43.66" cy="36.02" r="0.91"/><rect class="cls-25" x="28.33" y="33.23" width="3.79" height="5.37" rx="1.9"/><path class="cls-26" d="M32.15,52.56a5.62,5.62,0,0,0,4,2.14,6.41,6.41,0,0,0,5.71-2.14"/><circle class="cls-11" cx="30.23" cy="36.02" r="0.91"/><path class="cls-27" d="M39.85,31.92a4.53,4.53,0,0,1,3.35-1.73,4.84,4.84,0,0,1,3.72,1.41"/><path class="cls-27" d="M26.69,31.92A4.56,4.56,0,0,1,30,30.19a4.82,4.82,0,0,1,3.72,1.41"/><rect class="cls-10" x="29.31" y="12.89" width="22.87" height="9.64" rx="4.02"/><path class="cls-10" d="M20.45,35.08a6.81,6.81,0,0,0,1,0h0a3.31,3.31,0,0,0,3.15-3.43l.71-9.95c0-.91-1.41-.7-1.94-1.32,0,0-1.32,2.67-1.71,3.74a28.14,28.14,0,0,0-1.2,6.31C20.44,31.58,20.45,35.08,20.45,35.08Z"/><path class="cls-10" d="M53.06,34.79a8.51,8.51,0,0,1-1,0h0a3.27,3.27,0,0,1-3.15-3.36l-.71-9.75c0-.9,1.41-.7,2-1.3,0,0,1.31,2.62,1.7,3.66a27.8,27.8,0,0,1,1.21,6.19C53.07,31.36,53.06,34.79,53.06,34.79Z"/><rect class="cls-9" x="43.66" y="40.78" width="4.23" height="1.77" rx="0.74"/><rect class="cls-9" x="26.22" y="40.78" width="4.23" height="1.77" rx="0.74"/><rect class="cls-28" x="22.94" y="17.39" width="11.67" height="5.97" rx="2.49"/><rect class="cls-4" x="36.03" y="80.63" width="1.94" height="1.94" rx="0.81"/><rect class="cls-4" x="36.25" y="91.3" width="1.49" height="1.64" rx="0.62"/><rect class="cls-4" x="36.25" y="100.24" width="1.49" height="1.64" rx="0.62"/><rect class="cls-4" x="36.25" y="109.18" width="1.49" height="1.64" rx="0.62"/><rect class="cls-4" x="36.25" y="118.12" width="1.49" height="1.64" rx="0.62"/><path class="cls-2" d="M41.06,101.76c-.66,1.17.12,2.87,1.75,3.79l2.95,1.68c1.62.92,3.49.72,4.16-.45L61.47,86.54c1-1.68-.25-4.18-2.7-5.56h0c-2.44-1.39-5.19-1.15-6.15.52Z"/><path class="cls-29" d="M66.23,66.94l-3.08-1.56h0c-3.13-1.57-6,1.73-6.89,3.46l-9,17.85a.27.27,0,0,0,.1.36l11.48,5.79a.27.27,0,0,0,.35-.14l9-17.85c.88-1.72,1.52-5.67-.05-6.46C68.12,68.37,66.25,66.94,66.23,66.94Z"/><path class="cls-2" d="M30.17,82.4a2.92,2.92,0,0,0-4.07.19l-2,2.09a2.82,2.82,0,0,0,.09,4L44.1,107a4.29,4.29,0,0,0,6-.4h0a4.13,4.13,0,0,0,0-5.88Z"/><path class="cls-2" d="M28.31,87.16h0a5.63,5.63,0,0,1-7.84,0l-1.56-1.55a5.39,5.39,0,0,1,0-7.69h0a5.63,5.63,0,0,1,7.84,0l1.56,1.55A5.38,5.38,0,0,1,28.31,87.16Z"/><path class="cls-2" d="M21.55,82.72h0a1.36,1.36,0,0,1-1.91,0l-7.09-7a1.32,1.32,0,0,1,0-1.88h0a1.38,1.38,0,0,1,1.92,0l7.08,7A1.31,1.31,0,0,1,21.55,82.72Z"/><path class="cls-2" d="M23,87.56h0a1.36,1.36,0,0,1-1.91,0l-7.3-6.89a1.32,1.32,0,0,1,0-1.88h0a1.37,1.37,0,0,1,1.91,0L23,85.68A1.32,1.32,0,0,1,23,87.56Z"/><path class="cls-2" d="M24.65,81.83h0a1.55,1.55,0,0,1-2.17,0l-9.12-9a1.5,1.5,0,0,1,0-2.14h0a1.56,1.56,0,0,1,2.17,0l9.12,9A1.5,1.5,0,0,1,24.65,81.83Z"/><path class="cls-2" d="M28.18,81.11h0a1.33,1.33,0,0,1-1.85,0l-9.22-8.71a1.27,1.27,0,0,1,0-1.82h0a1.33,1.33,0,0,1,1.86,0l9.22,8.7A1.28,1.28,0,0,1,28.18,81.11Z"/><path class="cls-2" d="M29.51,83.27h0a1.32,1.32,0,0,1-1.68-.78L24.7,73.81a1.29,1.29,0,0,1,.8-1.65h0a1.32,1.32,0,0,1,1.68.79l3.13,8.68A1.28,1.28,0,0,1,29.51,83.27Z"/><path class="cls-24" d="M50.14,103.67c-.06,0-.82,2.46-2.58,2.76a3,3,0,0,1-2.66-1,11,11,0,0,1,1.82.22,3.09,3.09,0,0,0,2.29-1C50.31,103.39,50.18,103.68,50.14,103.67Z"/><rect class="cls-2" x="68.49" y="14.15" width="37.22" height="56.77" rx="18.61"/><circle class="cls-2" cx="105.37" cy="39.95" r="4.74"/><path class="cls-8" d="M105.37,37.33v5.23a2.62,2.62,0,0,0,0-5.23Z"/><circle class="cls-2" cx="68.62" cy="39.95" r="4.74"/><path class="cls-8" d="M66,40a2.61,2.61,0,0,0,2.61,2.61V37.33A2.61,2.61,0,0,0,66,40Z"/><rect class="cls-30" x="47.17" y="86.48" width="13.36" height="3.75" transform="translate(47.64 -14.93) rotate(27.92)"/><path class="cls-2" d="M109.11,143.85c0,3.37,1.38,6.15,3.18,6.17l3.27,0c1.8,0,3.32-2.72,3.37-6.09l.95-58.6c.08-4.86-2.07-8.83-4.78-8.86h0c-2.71,0-5,3.86-5,8.71Z"/><path class="cls-29" d="M112.78,64.77h3.37a5.13,5.13,0,0,1,5.13,5.13V93.13a0,0,0,0,1,0,0H108.4a.69.69,0,0,1-.69-.69V69.84a5.06,5.06,0,0,1,5.06-5.06Z"/><ellipse class="cls-2" cx="116.46" cy="143.26" rx="5.28" ry="6.78"/><rect class="cls-31" x="60.19" y="64.77" width="54.26" height="85.27" rx="0.83"/><path class="cls-29" d="M99.1,83.63h7.79a1.92,1.92,0,0,1,1.92,1.92v6.8a4.37,4.37,0,0,1-4.37,4.37h-2.89a4.37,4.37,0,0,1-4.37-4.37V85.55a1.92,1.92,0,0,1,1.92-1.92Z"/><g class="cls-32"><rect class="cls-33" x="30.12" y="97.86" width="44.75" height="34.2"/><rect class="cls-33" x="45.57" y="96.58" width="44.75" height="34.2"/></g><polygon class="cls-34" points="76.62 28.14 73.81 36.16 73.04 34.94 75.43 28.33 76.62 28.14"/><polygon class="cls-34" points="77.31 27.66 73.84 37.73 74.71 36.88 77.54 28.53 77.31 27.66"/><polygon class="cls-34" points="93.31 28.01 90.24 36.77 89.49 35.48 92.1 28.25 93.31 28.01"/><polygon class="cls-34" points="94.11 27.43 90.49 37.94 91.41 37.06 94.37 28.34 94.11 27.43"/><path class="cls-24" d="M90,44.68a.74.74,0,0,1-1.48,0Z"/><path class="cls-24" d="M86.81,44.43a1.25,1.25,0,0,1-2.5,0Z"/><path class="cls-24" d="M90.26,44.43a1.25,1.25,0,0,1-2.5,0Z"/><g class="cls-35"><rect class="cls-33" x="64.73" y="48.03" width="44.75" height="32.95"/><rect class="cls-33" x="156.03" y="26.18" width="44.75" height="32.95"/></g><path class="cls-36" d="M94.85,51.85a7.75,7.75,0,0,1-15.5,0Z"/><g class="cls-37"><path class="cls-38" d="M82.15,60.47a5,5,0,1,1,9.91,0Z"/></g><g class="cls-37"><rect class="cls-16" x="77.2" y="49.91" width="19.38" height="4.31"/></g><circle class="cls-39" cx="78.9" cy="33.71" r="6.13"/><line class="cls-39" x1="85.26" y1="33.77" x2="89.38" y2="33.77"/><circle class="cls-39" cx="95.62" cy="33.71" r="6.13"/><path class="cls-33" d="M73.25,21.49a5.63,5.63,0,0,0,3.44,1.08,7.24,7.24,0,0,0,4.84-1.84,5.14,5.14,0,0,0,1.4-2.92c.2-1,.4-2-.25-2.77-.8-1-2.39-1-3.44-1.09-1.4-.06-4.79-.21-6.5,2A4,4,0,0,0,73.25,21.49Z"/><path class="cls-40" d="M88.14,23.51c-2.35-.35-6.5-1-7.48-3.74a5.46,5.46,0,0,1,1.25-5c.79-.95,2.13-1.94,6.23-2.49,6.42-.87,7.7.94,12.47,0a27.32,27.32,0,0,0,7.48-2.5s-1.06,6.55-5,10C97.27,24.85,89.75,23.74,88.14,23.51Z"/><path class="cls-30" d="M74.12,21.2c.06,0-1.7-2.2-.81-4A3.82,3.82,0,0,1,76,15.26a12.9,12.9,0,0,1-1.43,1.58A3.43,3.43,0,0,0,74,19.57C74.27,21.53,74.09,21.23,74.12,21.2Z"/><rect class="cls-33" x="94.21" y="30.65" width="2.84" height="5.35" rx="1.42"/><rect class="cls-33" x="77.48" y="30.65" width="2.84" height="5.35" rx="1.42"/><circle class="cls-11" cx="78.9" cy="33.32" r="0.72"/><circle class="cls-11" cx="95.62" cy="33.32" r="0.72"/><rect class="cls-30" x="114.45" y="89.48" width="6.83" height="3.64"/><path class="cls-41" d="M103.85,85a1.71,1.71,0,0,1,.18.77,2.38,2.38,0,0,1-.74,1.5,10.89,10.89,0,0,0-.86.8,1.34,1.34,0,0,0-.32.5,1.41,1.41,0,0,0,.21,1,2.37,2.37,0,0,0,.5.68,2.79,2.79,0,0,1-1-.92,1.29,1.29,0,0,1-.29-.94c0-.21.17-.35.44-.62a11.9,11.9,0,0,1,1-.83,2.61,2.61,0,0,0,.59-.59,2.09,2.09,0,0,0,.23-.77A3.21,3.21,0,0,0,103.85,85Z"/><path class="cls-41" d="M105,87.05a4,4,0,0,0-.54.29,3.7,3.7,0,0,0-.65.53,1.27,1.27,0,0,0-.29.42.52.52,0,0,0-.06.29.75.75,0,0,0,.18.36,2.69,2.69,0,0,1,.29.41.75.75,0,0,1,.06.24.79.79,0,0,1-.06.41,1,1,0,0,1-.29.42,1.66,1.66,0,0,1-.36.23,1.38,1.38,0,0,0,.12-.17.76.76,0,0,0,.12-.36.69.69,0,0,0-.12-.35,2.91,2.91,0,0,0-.18-.24,1.5,1.5,0,0,1-.17-.3,1.12,1.12,0,0,1-.12-.29,1,1,0,0,1,0-.42.89.89,0,0,1,.12-.35,1.26,1.26,0,0,1,.23-.3,3,3,0,0,1,.36-.29,3.25,3.25,0,0,1,.41-.24l.41-.18A2.94,2.94,0,0,1,105,87.05Z"/><path class="cls-41" d="M105.12,90.42a1,1,0,0,1,.3-.12.87.87,0,0,1,.53,0,.74.74,0,0,1,.42.35.88.88,0,0,1,.06.42,1,1,0,0,1-.3.47,1.88,1.88,0,0,1-.47.36,3.54,3.54,0,0,1-.48.17l-.23.06.29-.18a3.23,3.23,0,0,0,.42-.29,1,1,0,0,0,.29-.36.62.62,0,0,0-.06-.65.45.45,0,0,0-.17-.17.56.56,0,0,0-.24-.06A1.71,1.71,0,0,0,105.12,90.42Z"/><path class="cls-41" d="M104.89,90.71a1.72,1.72,0,0,1-.42.24,3.62,3.62,0,0,1-.53.12l-.41.06-.65.06-.65,0a6,6,0,0,1-.77,0,4.5,4.5,0,0,1-1-.11,1.68,1.68,0,0,1-.24-.08.29.29,0,0,1-.11-.09.14.14,0,0,1,0-.11.25.25,0,0,1,.07-.08l.11-.06.18-.06.18-.06.18,0,.17-.06.24-.06a2.42,2.42,0,0,1,.36-.06l-.18.06a3.63,3.63,0,0,0-.42.17l-.17.12-.07.06c-.06.06,0,.11,0,.12L101,91a3.83,3.83,0,0,0,.6.06c.61,0,.37,0,.76,0s.71,0,1.07-.06c.19,0,.46,0,.83-.12Z"/><path class="cls-41" d="M104.18,91.72l.35.23a1.78,1.78,0,0,1-.65.18,8.52,8.52,0,0,1-1.24.12,4.82,4.82,0,0,1-.75,0l-.37,0-.24-.06A1.34,1.34,0,0,1,101,92c-.08-.05-.17-.1-.17-.17a.15.15,0,0,1,.06-.12.9.9,0,0,1,.41-.24.27.27,0,0,0-.06.12.23.23,0,0,0,0,.12c0,.08.15.1.24.12a5.13,5.13,0,0,0,.65.06c.21,0,.19,0,.41,0a3.49,3.49,0,0,0,.54,0l.47,0a3.24,3.24,0,0,0,.47-.06Z"/><path class="cls-41" d="M103.88,92.72l.48.3a4.51,4.51,0,0,1-1,.24,8,8,0,0,1-1.12,0,4.06,4.06,0,0,1-.66-.1,1.71,1.71,0,0,1-.41-.18.23.23,0,0,1-.12-.12.18.18,0,0,1,.05-.16l.13-.08a.53.53,0,0,1,.19-.06s0,0,0,.06.14.11.17.12a3.46,3.46,0,0,0,.85.09h.41a4.63,4.63,0,0,0,.6-.06A2.26,2.26,0,0,0,103.88,92.72Z"/><path class="cls-41" d="M105.89,93.35a.12.12,0,0,1,.08.16c0,.1,0,.12-.13.21a1.35,1.35,0,0,1-.6.25l-.59.11c-.17,0-.38.06-1,.12-.39,0-.59,0-.73,0-.41,0-.71,0-.93,0l-.91,0a5.58,5.58,0,0,1-.92-.07,2.86,2.86,0,0,1-.67-.16c-.13-.08-.16-.1-.16-.16a.24.24,0,0,1,.12-.17,1.48,1.48,0,0,1,.33-.15,5.52,5.52,0,0,1,.53-.18,1.68,1.68,0,0,1,.3,0h.13l-.25.06a1.45,1.45,0,0,0-.32.13l-.17.1a.21.21,0,0,0-.07.13c0,.09.26.16.33.18A3.65,3.65,0,0,0,101,94h.42c.25,0,.51,0,.77,0h1.59l.71-.06c.25,0,.36,0,.54-.06a2.69,2.69,0,0,0,.43-.12c.12,0,.11,0,.26-.1s.15-.08.16-.14a.28.28,0,0,0,0-.11s0-.07,0-.07Z"/><path class="cls-41" d="M100.62,94.47s.42.07.78.09h1.36c.4,0,.69,0,1.12-.06s.71-.06,1.13-.12a2.65,2.65,0,0,0,.76-.18,2.15,2.15,0,0,0,.48-.23l.18-.12a1,1,0,0,1-.12.23,1,1,0,0,1-.42.3,5.9,5.9,0,0,1-1.53.29c-.31,0-.57,0-1,.06a10.76,10.76,0,0,1-1.3,0,5.1,5.1,0,0,1-1-.11Z"/><rect class="cls-29" x="60.19" y="144.73" width="54.31" height="5.31"/><rect class="cls-4" x="8.6" y="118.5" width="5.91" height="8.16" transform="translate(23.12 245.15) rotate(-180)"/><path class="cls-2" d="M123.08,20.54s.35-2.37,1.51-3.38-.85.55,0,3.34"/><path class="cls-2" d="M125,21.59a10.3,10.3,0,0,1,.93-3.69c.76-1.21-.56.7,0,3.4"/><path class="cls-2" d="M126.84,19.88a18.48,18.48,0,0,1,1.75-4.8c1-1.53-.72.88-.7,4.52"/><circle class="cls-42" cx="149.7" cy="37.35" r="1.23"/><circle class="cls-11" cx="149.23" cy="36.91" r="0.28"/></svg>