<svg xmlns="http://www.w3.org/2000/svg" xmlns:xlink="http://www.w3.org/1999/xlink" viewBox="0 0 168.78 154.96"><defs><style>.cls-1,.cls-26,.cls-31{fill:none;}.cls-2{fill:#667fb7;}.cls-3{fill:#f5c494;}.cls-4{opacity:0.85;}.cls-5{fill:#7a7af3;}.cls-5,.cls-6{opacity:0.39;}.cls-10,.cls-6{fill:#f2f2f2;}.cls-7{fill:#6d8ef2;opacity:0.43;}.cls-8{opacity:0.5;}.cls-9{fill:#9bf0d9;}.cls-11{fill:#324868;}.cls-12{fill:#f2e750;}.cls-13{fill:#d0d8d9;}.cls-14,.cls-28{fill:#fff;}.cls-14{stroke:#fff;stroke-width:0.25px;}.cls-14,.cls-26{stroke-miterlimit:10;}.cls-15,.cls-19{fill:#cca27d;}.cls-15{opacity:0.25;}.cls-16{fill:#f4b073;}.cls-17{fill:#f2ebeb;opacity:0.78;}.cls-18{fill:#d6a374;}.cls-19{opacity:0.72;}.cls-20{clip-path:url(#clip-path);}.cls-21{fill:#0e1733;}.cls-22{fill:#cc3648;}.cls-23{clip-path:url(#clip-path-2);}.cls-24{fill:#d11837;}.cls-25{fill:#ededef;}.cls-26{stroke:#000;stroke-width:0.75px;}.cls-27{fill:#162749;}.cls-29{fill:#686868;}.cls-30{fill:#4f4f4f;}.cls-31{stroke:#686868;stroke-linecap:round;stroke-linejoin:round;}.cls-32{fill:#848484;}</style><clipPath id="clip-path"><rect class="cls-1" x="69.26" y="12.54" width="38.57" height="60.46" rx="18.61"/></clipPath><clipPath id="clip-path-2"><path class="cls-1" d="M96.45,49.59c0,3.66-3.6,6.62-8,6.62s-8-3-8-6.62Z"/></clipPath></defs><title>money-block-1</title><g id="Слой_1" data-name="Слой 1"><rect class="cls-2" x="56.55" y="143.44" width="56.27" height="5.21"/></g><g id="Слой_2" data-name="Слой 2"><rect class="cls-3" x="80.02" y="52.9" width="16.31" height="32.72" rx="6.91"/><g class="cls-4"><path class="cls-5" d="M97.9,82.86v-9.4A4.44,4.44,0,0,0,93.46,69h-.11a4.41,4.41,0,0,1-4.14-2.84q-.31-.84-.69-1.65a4.43,4.43,0,0,1,.92-5l.08-.08a4.45,4.45,0,0,0,0-6.28L86,49.71a4.43,4.43,0,0,0-6.28,0l-.08.08a4.43,4.43,0,0,1-5,.92q-.81-.37-1.65-.69a4.41,4.41,0,0,1-2.84-4.14v-.09a4.43,4.43,0,0,0-4.44-4.46h-5a4.44,4.44,0,0,0-4.44,4.44v.11A4.42,4.42,0,0,1,53.54,50c-.56.21-1.12.44-1.66.69a4.41,4.41,0,0,1-4.94-.92l-.09-.08a4.43,4.43,0,0,0-6.28,0l-3.51,3.51a4.45,4.45,0,0,0,0,6.28l.09.08a4.42,4.42,0,0,1,.91,5q-.37.81-.69,1.65A4.41,4.41,0,0,1,33.24,69h-.12a4.44,4.44,0,0,0-4.44,4.44v5a4.44,4.44,0,0,0,4.44,4.44h.12a4.41,4.41,0,0,1,4.13,2.83c.21.56.44,1.12.69,1.66a4.41,4.41,0,0,1-.91,4.94l-.09.09a4.45,4.45,0,0,0,0,6.28l3.51,3.51a4.45,4.45,0,0,0,6.28,0l.09-.09a4.41,4.41,0,0,1,4.94-.91c.54.25,1.1.48,1.66.69A4.41,4.41,0,0,1,56.37,106v.1a4.45,4.45,0,0,0,4.44,4.46h5a4.44,4.44,0,0,0,4.44-4.44V106a4.41,4.41,0,0,1,2.84-4.13q.84-.31,1.65-.69a4.42,4.42,0,0,1,5,.91l.08.09a4.45,4.45,0,0,0,6.28,0l3.51-3.51a4.45,4.45,0,0,0,0-6.28l-.08-.09a4.41,4.41,0,0,1-.92-4.94c.25-.54.48-1.1.69-1.66a4.41,4.41,0,0,1,4.14-2.83Zm-25,3.64C58.38,96.81,42.42,80.85,52.73,66.37a4.23,4.23,0,0,1,1-1C68.2,55.07,84.16,71,73.85,85.51A4.23,4.23,0,0,1,72.86,86.5Z"/><path class="cls-6" d="M63.29,98.17A22.24,22.24,0,1,1,85.53,75.94,22.25,22.25,0,0,1,63.29,98.17Zm0-41.53a19.3,19.3,0,1,0,19.3,19.3A19.32,19.32,0,0,0,63.29,56.64Z"/></g><rect class="cls-3" x="78.77" y="49.88" width="19.28" height="30.09" rx="9.3"/><rect class="cls-3" x="69.19" y="9.33" width="38.57" height="57.21" rx="18.61"/><path class="cls-7" d="M67,147.88l5.68-3.56a3.16,3.16,0,0,0,1-4.36l-.05-.07a3.15,3.15,0,0,1,.15-3.57c.26-.34.51-.68.74-1A3.16,3.16,0,0,1,77.82,134l.08,0a3.17,3.17,0,0,0,3.8-2.37l.79-3.45a3.16,3.16,0,0,0-2.38-3.79l-.08,0a3.16,3.16,0,0,1-2.42-2.64q-.08-.63-.21-1.26a3.13,3.13,0,0,1,1.43-3.27l.06,0a3.17,3.17,0,0,0,1-4.37l-1.88-3a3.17,3.17,0,0,0-4.36-1l-.07,0a3.13,3.13,0,0,1-3.56-.15c-.34-.26-.69-.5-1-.74a3.13,3.13,0,0,1-1.31-3.33l0-.08a3.17,3.17,0,0,0-2.38-3.79l-3.44-.8a3.17,3.17,0,0,0-3.8,2.38l0,.08a3.13,3.13,0,0,1-2.64,2.42q-.63.09-1.26.21a3.14,3.14,0,0,1-3.27-1.42l0-.07a3.17,3.17,0,0,0-4.36-1l-3,1.88a3.16,3.16,0,0,0-1,4.36l0,.07a3.15,3.15,0,0,1-.15,3.57c-.25.34-.5.68-.74,1a3.15,3.15,0,0,1-3.33,1.32l-.08,0a3.16,3.16,0,0,0-3.79,2.37l-.79,3.45A3.16,3.16,0,0,0,36,124.35l.08,0A3.13,3.13,0,0,1,38.51,127q.09.63.21,1.26a3.12,3.12,0,0,1-1.42,3.27l-.06,0a3.17,3.17,0,0,0-1,4.37l1.87,3a3.17,3.17,0,0,0,4.36,1l.07,0a3.15,3.15,0,0,1,3.57.15c.34.26.69.5,1,.74a3.15,3.15,0,0,1,1.32,3.33l0,.08A3.16,3.16,0,0,0,50.82,148l3.44.8a3.17,3.17,0,0,0,3.79-2.38l0-.08a3.14,3.14,0,0,1,2.64-2.42q.63-.09,1.26-.21a3.16,3.16,0,0,1,3.28,1.42L67,147.88ZM55.31,134.13c-11.7-4.85-8.1-20.51,4.54-19.77a3,3,0,0,1,1,.23c11.7,4.85,8.1,20.51-4.54,19.77A2.87,2.87,0,0,1,55.31,134.13Z"/><g class="cls-8"><path class="cls-9" d="M157.35,108l-2.92-15.43a1,1,0,0,0-1.21-.83l-7.48,1.41a1,1,0,0,1-1.11-.56,33,33,0,0,0-4.27-6.51,1,1,0,0,1-.07-1.25l4.29-6.29a1,1,0,0,0-.27-1.44l-12.12-8.27a1,1,0,0,0-1.44.27l-4.29,6.3a1.06,1.06,0,0,1-1.19.39,33.55,33.55,0,0,0-7.62-1.61,1,1,0,0,1-.93-.83l-.61-3.19a5.38,5.38,0,0,0-6.28-4.3L99.68,67.76A1,1,0,0,0,98.85,69l1.42,7.47a1,1,0,0,1-.57,1.12,33.09,33.09,0,0,0-6.51,4.27,1,1,0,0,1-1.25.07l-6.29-4.29a1,1,0,0,0-1.44.27L75.94,90a1,1,0,0,0,.28,1.44l6.29,4.29a1,1,0,0,1,.39,1.18,33.2,33.2,0,0,0-1.6,7.63,1,1,0,0,1-.83.93L73,106.88a1,1,0,0,0-.82,1.21l2.72,14.42a1,1,0,0,0,1.21.82l7.48-1.41a1,1,0,0,1,1.11.56A33.32,33.32,0,0,0,89,129a1,1,0,0,1,.07,1.24l-4.29,6.3A1,1,0,0,0,85,138l12.12,8.27a1,1,0,0,0,1.44-.27l4.29-6.29a1,1,0,0,1,1.19-.39,33,33,0,0,0,7.62,1.6,1,1,0,0,1,.93.83l.61,3.19a5.38,5.38,0,0,0,6.28,4.31l10.15-1.92a1,1,0,0,0,.83-1.21l-1.42-7.48a1,1,0,0,1,.57-1.11,33.59,33.59,0,0,0,6.51-4.28,1,1,0,0,1,1.25-.06l6.29,4.29a1,1,0,0,0,1.44-.27l8.26-12.12a1,1,0,0,0-.27-1.44l-6.29-4.3a1,1,0,0,1-.39-1.18,33.09,33.09,0,0,0,1.6-7.63,1,1,0,0,1,.83-.92l8.5-1.61Zm-28.47,9.44c-15,16.5-38.49.51-28.62-19.52a1.16,1.16,0,0,1,.18-.27c15-16.5,38.49-.5,28.62,19.52A1,1,0,0,1,128.88,117.42Z"/><path class="cls-10" d="M133.1,121.07c-20.17,22.41-52,.68-38.53-26.28a1.06,1.06,0,0,1,.17-.26c20.18-22.41,52-.68,38.54,26.28A1,1,0,0,1,133.1,121.07ZM125.2,91C101.81,79.31,83,106.93,102.39,124.43a1.2,1.2,0,0,0,.26.18c23.38,11.69,42.22-15.93,22.81-33.44A1.51,1.51,0,0,0,125.2,91Z"/></g><path class="cls-3" d="M65.68,144.06c0,3.31-1.43,6-3.29,6.05l-3.4,0c-1.86,0-3.43-2.67-3.49-6l-1-57.45c-.08-4.77,2.14-8.66,5-8.69h0c2.8,0,5.14,3.79,5.22,8.54Z"/><path class="cls-2" d="M53.76,66.53h13.5a0,0,0,0,1,0,0V89.2a5.13,5.13,0,0,1-5.13,5.13h-4a5.06,5.06,0,0,1-5.06-5.06v-22a.69.69,0,0,1,.69-.69Z" transform="translate(120.34 160.86) rotate(-180)"/><ellipse class="cls-3" cx="58.06" cy="143.48" rx="5.47" ry="6.65"/><rect class="cls-11" x="53.07" y="90.76" width="7.52" height="3.57" transform="translate(113.66 185.09) rotate(-180)"/><path class="cls-3" d="M119,134.49c0,3-1.28,5.42-3,5.44L113,140c-1.68,0-3.1-2.4-3.15-5.37L109,82.91c-.07-4.29,1.93-7.79,4.46-7.82h0c2.52,0,4.62,3.41,4.7,7.69Z"/><ellipse class="cls-3" cx="110.91" cy="133.97" rx="4.92" ry="5.98"/><rect class="cls-12" x="107.66" y="96.61" width="9.14" height="3.21" transform="translate(224.46 196.43) rotate(-180)"/><path class="cls-3" d="M111.28,144.07c0,3.3,1.43,6,3.29,6l3.4,0c1.86,0,3.44-2.67,3.49-6l1-57.45c.08-4.77-2.14-8.67-5-8.7h0c-2.81,0-5.15,3.8-5.23,8.55Z"/><path class="cls-2" d="M114.9,66.54h3.86a5.13,5.13,0,0,1,5.13,5.13V94.34a0,0,0,0,1,0,0H110.53a.69.69,0,0,1-.69-.69v-22a5.06,5.06,0,0,1,5.06-5.06Z"/><ellipse class="cls-3" cx="118.9" cy="143.49" rx="5.47" ry="6.65"/><rect class="cls-13" x="60.59" y="66.54" width="56.23" height="83.6" rx="0.83"/><path class="cls-2" d="M100.84,85h8.21A1.92,1.92,0,0,1,111,86.95v6.54a4.37,4.37,0,0,1-4.37,4.37h-3.31a4.37,4.37,0,0,1-4.37-4.37V86.95A1.92,1.92,0,0,1,100.84,85Z"/><rect class="cls-11" x="116.81" y="90.77" width="7.08" height="3.57"/><path class="cls-14" d="M105.83,86.32a1.62,1.62,0,0,1,.19.75,2.29,2.29,0,0,1-.77,1.48,11.44,11.44,0,0,0-.89.78,1.23,1.23,0,0,0-.33.5,1.35,1.35,0,0,0,.21,1,2.46,2.46,0,0,0,.52.67,2.9,2.9,0,0,1-1-.9,1.27,1.27,0,0,1-.31-.93c0-.2.19-.34.46-.61a12.63,12.63,0,0,1,1-.81,2.38,2.38,0,0,0,.61-.58,1.85,1.85,0,0,0,.24-.75A2.37,2.37,0,0,0,105.83,86.32Z"/><path class="cls-14" d="M107,88.38a4.4,4.4,0,0,0-.55.29,3.36,3.36,0,0,0-.68.52,1.24,1.24,0,0,0-.3.4.57.57,0,0,0-.07.29.72.72,0,0,0,.19.35c.16.22.24.25.31.41a1.12,1.12,0,0,1,.06.23.94.94,0,0,1-.06.41,1.11,1.11,0,0,1-.31.4,1.28,1.28,0,0,1-.37.23.8.8,0,0,0,.12-.17.67.67,0,0,0,.13-.35.64.64,0,0,0-.13-.35,2.64,2.64,0,0,0-.18-.23,1.3,1.3,0,0,1-.18-.29.93.93,0,0,1-.13-.29,1.05,1.05,0,0,1,0-.4,1.19,1.19,0,0,1,.13-.35,1.09,1.09,0,0,1,.24-.29,2,2,0,0,1,.37-.29,2.64,2.64,0,0,1,.43-.23,3.5,3.5,0,0,1,.43-.18A3,3,0,0,1,107,88.38Z"/><path class="cls-14" d="M107.15,91.68a1.08,1.08,0,0,1,.31-.11.93.93,0,0,1,.55,0,.75.75,0,0,1,.43.34.64.64,0,0,1,.06.41.81.81,0,0,1-.31.46,1.59,1.59,0,0,1-.49.35,3.11,3.11,0,0,1-.49.18l-.24,0,.3-.17a2.71,2.71,0,0,0,.43-.29.93.93,0,0,0,.31-.35.61.61,0,0,0,.06-.35.73.73,0,0,0-.12-.29.54.54,0,0,0-.19-.17.62.62,0,0,0-.24-.06A1.83,1.83,0,0,0,107.15,91.68Z"/><path class="cls-14" d="M106.91,92a1.67,1.67,0,0,1-.43.23,2.42,2.42,0,0,1-.55.12l-.43.06-.68.06-.67,0a6.4,6.4,0,0,1-.8,0,4.85,4.85,0,0,1-1-.11c-.06,0-.18,0-.25-.07a.33.33,0,0,1-.11-.1s0-.06,0-.1A.24.24,0,0,1,102,92l.13-.06.18-.06.18,0,.19-.06.18-.06.25-.06.37-.06-.19.06a3.73,3.73,0,0,0-.43.18l-.18.11-.07.06c-.07,0,0,.1,0,.12l.24,0a3,3,0,0,0,.62.06h.79c.46,0,.73,0,1.1-.06.2,0,.49,0,.86-.11Z"/><path class="cls-14" d="M106.17,93l.37.23a2.19,2.19,0,0,1-.67.17,11.66,11.66,0,0,1-1.29.12,4.26,4.26,0,0,1-.78,0l-.39,0-.24-.06a1.59,1.59,0,0,1-.31-.11c-.09,0-.18-.1-.18-.18s0-.06.06-.11a.9.9,0,0,1,.43-.23.2.2,0,0,0-.06.11.16.16,0,0,0,0,.12c0,.08.15.1.24.11a4,4,0,0,0,.68.06h.43a4.42,4.42,0,0,0,.55,0c.25,0,.2,0,.49,0a2.64,2.64,0,0,0,.49,0Z"/><path class="cls-14" d="M105.87,93.94l.49.29a4.76,4.76,0,0,1-1,.24,8.52,8.52,0,0,1-1.16,0,4.14,4.14,0,0,1-.67-.1,1.78,1.78,0,0,1-.43-.18s-.11,0-.12-.11A.14.14,0,0,1,103,94a.41.41,0,0,1,.13-.07,1,1,0,0,1,.2-.07.2.2,0,0,0,0,.07c0,.07.15.1.19.11a4.17,4.17,0,0,0,.88.09h.42l.62-.06A2.68,2.68,0,0,0,105.87,93.94Z"/><path class="cls-14" d="M108,94.56a.13.13,0,0,1,.08.16c0,.1,0,.11-.14.2a1.36,1.36,0,0,1-.62.24c-.26.06-.4.09-.61.12l-1.08.11c-.4,0-.61,0-.75,0-.42,0-.73,0-1,0l-1,0a6.19,6.19,0,0,1-1-.07,2.71,2.71,0,0,1-.69-.16c-.13-.07-.17-.1-.16-.15a.24.24,0,0,1,.12-.17,1.54,1.54,0,0,1,.35-.14,5.05,5.05,0,0,1,.55-.18,1.54,1.54,0,0,1,.3,0h.14l-.26.06a1.44,1.44,0,0,0-.34.12l-.16.1a.21.21,0,0,0-.09.13c0,.09.28.16.35.17a2.83,2.83,0,0,0,.79.12H105c.6,0,.6,0,.79,0s.18,0,.74-.06A2.71,2.71,0,0,0,107,95a2.53,2.53,0,0,0,.45-.11,1.91,1.91,0,0,0,.27-.1c.11,0,.15-.08.16-.13a.18.18,0,0,0,0-.11.15.15,0,0,0,0-.07Z"/><path class="cls-14" d="M102.49,95.66a7.08,7.08,0,0,0,.8.08h1.41c.42,0,.71,0,1.17-.06s.73-.06,1.16-.11a4.12,4.12,0,0,0,.8-.18,1.71,1.71,0,0,0,.49-.23l.18-.12a1,1,0,0,1-.12.24,1,1,0,0,1-.43.29,6.82,6.82,0,0,1-1.59.29c-.32,0-.59,0-1,0a11.44,11.44,0,0,1-1.34,0,5.2,5.2,0,0,1-1-.11Z"/><path class="cls-15" d="M79,61.07V63.2c0,3.69,4.28,6.71,9.51,6.71h0c5.23,0,9.5-3,9.5-6.71v-2"/><circle class="cls-3" cx="107.4" cy="36.06" r="4.91"/><path class="cls-16" d="M107.4,33.35v5.41a2.71,2.71,0,1,0,0-5.41Z"/><rect class="cls-3" x="79.03" y="59.73" width="18.87" height="20.24" rx="7.68"/><circle class="cls-3" cx="69.33" cy="36.06" r="4.91"/><path class="cls-16" d="M66.62,36.06a2.7,2.7,0,0,0,2.71,2.7V33.35A2.71,2.71,0,0,0,66.62,36.06Z"/><polygon class="cls-17" points="77.62 23.82 74.71 32.13 73.9 30.87 76.38 24.02 77.62 23.82"/><polygon class="cls-17" points="78.33 23.33 74.74 33.76 75.63 32.88 78.57 24.23 78.33 23.33"/><polygon class="cls-17" points="94.91 23.69 91.73 32.77 90.95 31.43 93.65 23.94 94.91 23.69"/><polygon class="cls-17" points="95.74 23.08 91.99 33.98 92.94 33.06 96.01 24.03 95.74 23.08"/><path class="cls-18" d="M91.44,41a.77.77,0,0,1-1.53,0Z"/><path class="cls-18" d="M88.18,40.7a1.3,1.3,0,0,1-2.6,0Z"/><path class="cls-19" d="M78.81,67.85v1.74c0,3,4.32,5.5,9.6,5.5h0c5.28,0,9.59-2.48,9.59-5.5V68"/><path class="cls-18" d="M91.75,40.7a1.3,1.3,0,0,1-2.6,0Z"/><g class="cls-20"><rect class="cls-21" x="65.36" y="45.35" width="46.37" height="36.42"/><rect class="cls-21" x="159.96" y="21.19" width="46.37" height="36.42"/></g><path class="cls-22" d="M96.45,49.59c0,3.66-3.6,6.62-8,6.62s-8-3-8-6.62Z"/><g class="cls-23"><path class="cls-24" d="M83.28,56.94c0-2.33,2.3-4.22,5.13-4.22s5.14,1.89,5.14,4.22Z"/></g><g class="cls-23"><rect class="cls-25" x="78.15" y="47.94" width="20.08" height="3.67"/></g><circle class="cls-26" cx="79.98" cy="29.6" r="6.35"/><line class="cls-26" x1="86.57" y1="29.66" x2="90.84" y2="29.66"/><circle class="cls-26" cx="97.31" cy="29.6" r="6.35"/><path class="cls-21" d="M74.12,16.93a5.83,5.83,0,0,0,3.56,1.12,7.41,7.41,0,0,0,5-1.9,5.38,5.38,0,0,0,1.46-3c.2-1,.4-2.06-.27-2.87-.82-1-2.47-1.08-3.56-1.13-1.45-.06-5-.22-6.73,2.06A4.16,4.16,0,0,0,74.12,16.93Z"/><path class="cls-27" d="M89.55,19c-2.43-.36-6.73-1-7.75-3.87A5.67,5.67,0,0,1,83.09,10c.82-1,2.22-2,6.46-2.58,6.66-.91,8,1,12.92,0a28.57,28.57,0,0,0,7.75-2.59s-1.09,6.78-5.17,10.34C99,20.42,91.22,19.27,89.55,19Z"/><path class="cls-11" d="M75,16.63c.06,0-1.77-2.28-.84-4.17a3.94,3.94,0,0,1,2.81-2,15.26,15.26,0,0,1-1.48,1.64A3.6,3.6,0,0,0,74.89,15C75.18,17,75,16.66,75,16.63Z"/><rect class="cls-21" x="95.84" y="26.42" width="2.94" height="5.54" rx="1.47"/><rect class="cls-21" x="78.51" y="26.42" width="2.94" height="5.54" rx="1.47"/><circle class="cls-28" cx="79.98" cy="29.19" r="0.74"/><circle class="cls-28" cx="97.31" cy="29.19" r="0.74"/><path class="cls-29" d="M110.11,33.79a2.08,2.08,0,0,1,1.82,2.27,2.07,2.07,0,0,1-1.82,2.26Z"/><path class="cls-29" d="M66.76,33.79a2.08,2.08,0,0,0-1.82,2.27,2.07,2.07,0,0,0,1.82,2.26Z"/><path class="cls-30" d="M108,32.1c1.74,0,3.15,1.77,3.15,4S109.77,40,108,40Z"/><path class="cls-30" d="M68.84,32.1c-1.74,0-3.15,1.77-3.15,4S67.1,40,68.84,40Z"/><path class="cls-31" d="M67.27,38.89c0,10.4,1.58,19.27,17.93,20"/><rect class="cls-32" x="83.65" y="57.2" width="6.46" height="2.94" rx="1.42"/></g></svg>