<svg xmlns="http://www.w3.org/2000/svg" xmlns:xlink="http://www.w3.org/1999/xlink" viewBox="0 0 168.78 154.96"><defs><style>.cls-1,.cls-23{fill:none;}.cls-2{fill:#683034;}.cls-3{clip-path:url(#clip-path);}.cls-4{fill:#ededef;}.cls-5{clip-path:url(#clip-path-2);}.cls-6{fill:#f27171;}.cls-7{clip-path:url(#clip-path-3);}.cls-8{clip-path:url(#clip-path-4);}.cls-9{fill:#bcdfe4;opacity:0.58;}.cls-10{fill:#f8dff4;opacity:0.67;}.cls-11{fill:#9bf0d9;opacity:0.4;}.cls-12{fill:#f5c494;}.cls-13{fill:#f9f1a5;}.cls-14{fill:#3f2f29;}.cls-15{fill:#f9f0b4;}.cls-16,.cls-29{fill:#fffabd;}.cls-17{fill:#f2e750;}.cls-18{fill:#cca27d;opacity:0.25;}.cls-19{fill:#f4b073;}.cls-20{fill:#d6a374;}.cls-21{fill:#296d7e;}.cls-22{fill:#fff;}.cls-23{stroke:#3f2e00;stroke-linecap:round;stroke-linejoin:round;stroke-width:0.75px;}.cls-24{fill:#f8ae9b;}.cls-25{fill:#504039;}.cls-26{fill:#fff7bd;}.cls-27{fill:#f9eb69;}.cls-28{fill:#96d0ed;stroke:#66bcf2;}.cls-28,.cls-29{stroke-miterlimit:10;}.cls-29{stroke:#fff;stroke-width:0.25px;}.cls-30{clip-path:url(#clip-path-5);}.cls-31{clip-path:url(#clip-path-6);}</style><clipPath id="clip-path"><path class="cls-1" d="M91.79,50.61a7.3,7.3,0,0,1-.12,1.31c0,.07-3.67,3-6.72,3s-6.66-2.78-6.71-2.9a7.71,7.71,0,0,1-.13-1.38Z"/></clipPath><clipPath id="clip-path-2"><path class="cls-1" d="M91.79,50.61a6.84,6.84,0,1,1-13.68,0Z"/></clipPath><clipPath id="clip-path-3"><path class="cls-1" d="M88.09,51.91A7.15,7.15,0,0,1,88,53.22c0,.07-3.66,3-6.71,3s-6.66-2.77-6.71-2.9a7.37,7.37,0,0,1-.14-1.37Z"/></clipPath><clipPath id="clip-path-4"><path class="cls-1" d="M88.09,51.91a6.85,6.85,0,0,1-13.69,0Z"/></clipPath><clipPath id="clip-path-5"><path class="cls-1" d="M88.88,50.19a6.18,6.18,0,0,1-.12,1.19c0,.07-3.35,2.71-6.14,2.71s-6.08-2.53-6.13-2.65a6.43,6.43,0,0,1-.13-1.25Z"/></clipPath><clipPath id="clip-path-6"><path class="cls-1" d="M88.88,50.19a6.26,6.26,0,0,1-12.52,0Z"/></clipPath></defs><title>money-block-1</title><g id="Слой_2" data-name="Слой 2"><path class="cls-2" d="M91.79,50.61a6.84,6.84,0,1,1-13.68,0Z"/><g class="cls-3"><rect class="cls-4" x="76.21" y="49.54" width="17.11" height="2.37"/></g><g class="cls-5"><path class="cls-6" d="M80.58,58.22a4.37,4.37,0,1,1,8.74,0Z"/></g><path class="cls-2" d="M88.09,51.91a6.85,6.85,0,0,1-13.69,0Z"/><g class="cls-7"><rect class="cls-4" x="72.5" y="50.84" width="17.11" height="2.37"/></g><g class="cls-8"><path class="cls-6" d="M76.87,59.51a4.38,4.38,0,0,1,8.75,0Z"/></g><circle class="cls-9" cx="97.73" cy="99.24" r="47.61"/><circle class="cls-10" cx="69.11" cy="62.3" r="40.51"/><circle class="cls-11" cx="63.24" cy="106.61" r="39.8"/><ellipse class="cls-12" cx="54.46" cy="140.66" rx="5.45" ry="6.55"/><path class="cls-13" d="M50.22,64.88H62.67a0,0,0,0,1,0,0v65.93a4.75,4.75,0,0,1-4.75,4.75H54.26a4.69,4.69,0,0,1-4.69-4.69V65.52A.64.64,0,0,1,50.22,64.88Z" transform="translate(112.24 200.44) rotate(-180)"/><rect class="cls-14" x="63.31" y="28.95" width="37.81" height="51.72"/><path class="cls-15" d="M114,63.16h3.66a4.75,4.75,0,0,1,4.75,4.75v32.52a0,0,0,0,1,0,0H109.94a.64.64,0,0,1-.64-.64V67.84A4.69,4.69,0,0,1,114,63.16Z" transform="translate(-25.95 83.91) rotate(-36.08)"/><rect class="cls-16" x="56.43" y="64.88" width="52.39" height="83.46" rx="0.83"/><polygon class="cls-17" points="81.25 73.91 69.11 82.14 69.11 65.68 81.25 73.91"/><polygon class="cls-17" points="83.61 73.91 96.12 82.14 96.12 65.68 83.61 73.91"/><rect class="cls-17" x="69.11" y="64.88" width="27.02" height="9.36"/><rect class="cls-12" x="74.37" y="54.03" width="15.53" height="19.28" rx="5.07"/><path class="cls-18" d="M74.37,57.38V59.5c0,3.67,3.49,6.67,7.76,6.67h0c4.27,0,7.77-3,7.77-6.67v-2"/><path class="cls-12" d="M65.29,30.85V27.31c0-9.92,7.54-18,16.84-18h0c9.3,0,16.84,8,16.84,18v17c0,9.93-7.54,18-16.84,18h0c-9.3,0-16.84-8-16.84-18V30.85"/><ellipse class="cls-12" cx="99.49" cy="36.42" rx="4.36" ry="4.57"/><path class="cls-19" d="M99.49,33.9v5a2.52,2.52,0,0,0,0-5Z"/><ellipse class="cls-12" cx="65.65" cy="36.42" rx="4.36" ry="4.57"/><path class="cls-19" d="M63.24,36.42a2.47,2.47,0,0,0,2.41,2.52v-5A2.47,2.47,0,0,0,63.24,36.42Z"/><path class="cls-20" d="M80,45.78a2.51,2.51,0,0,1,5,0Z"/><rect class="cls-21" x="88.02" y="30.19" width="4.4" height="6.23" rx="2.2"/><circle class="cls-22" cx="90.22" cy="33.42" r="1.06"/><rect class="cls-21" x="72.45" y="30.19" width="4.4" height="6.23" rx="2.2"/><circle class="cls-22" cx="74.64" cy="33.42" r="1.06"/><path class="cls-23" d="M85.8,28.67a5.27,5.27,0,0,1,3.88-2A5.62,5.62,0,0,1,94,28.31"/><path class="cls-23" d="M70.54,28.67a5.33,5.33,0,0,1,3.89-2,5.58,5.58,0,0,1,4.31,1.64"/><rect class="cls-14" x="73.59" y="6.61" width="26.51" height="11.17" rx="5.43"/><path class="cls-14" d="M63.31,32.34a7.62,7.62,0,0,0,1.17,0h0a3.83,3.83,0,0,0,3.65-4L69,16.83c0-1.06-1.63-.82-2.25-1.53,0,0-1.53,3.09-2,4.33A32.34,32.34,0,0,0,63.33,27C63.3,28.28,63.31,32.34,63.31,32.34Z"/><path class="cls-14" d="M101.11,32A9,9,0,0,1,100,32h0a3.8,3.8,0,0,1-3.66-3.9l-.82-11.3c0-1,1.63-.8,2.25-1.5,0,0,1.53,3,2,4.24a31.91,31.91,0,0,1,1.4,7.18C101.12,28,101.11,32,101.11,32Z"/><rect class="cls-24" x="90.22" y="38.94" width="4.9" height="2.05" rx="0.74"/><rect class="cls-24" x="69.99" y="38.94" width="4.9" height="2.05" rx="0.74"/><rect class="cls-25" x="66.19" y="11.84" width="13.53" height="6.92" rx="3.37"/><rect class="cls-17" x="81.37" y="85.14" width="2.25" height="2.25" rx="0.81"/><rect class="cls-17" x="81.63" y="97.51" width="1.73" height="1.9" rx="0.62"/><rect class="cls-17" x="81.63" y="107.88" width="1.73" height="1.9" rx="0.62"/><rect class="cls-17" x="81.63" y="118.24" width="1.73" height="1.9" rx="0.62"/><rect class="cls-17" x="81.63" y="128.61" width="1.73" height="1.9" rx="0.62"/><rect class="cls-17" x="49.57" y="126.48" width="6.85" height="9.08" transform="translate(106 262.05) rotate(-180)"/><path class="cls-12" d="M106.13,102.55a2.38,2.38,0,0,0-.92,3.21l1.21,2.57a1.86,1.86,0,0,0,2.68,1l16.74-6.11c1.33-.62,1-3.43,0-5.56h0c-1-2.12-3.48-4.36-4.8-3.74Z"/><path class="cls-26" d="M111.44,108.91l-3.12-7.45a1.67,1.67,0,0,1,.88-2.06l14.67-8.66c3.29-1.46,6.88-.57,8,2l.94,2.14c1.14,2.58-.64,5.87-4,7.34Z"/><polygon class="cls-27" points="117.81 106.46 111.08 109.01 107.22 100.57 113.16 97.02 117.81 106.46"/><rect class="cls-12" x="102.51" y="99.62" width="2.69" height="6.23" rx="1.16" transform="translate(-32.48 50.27) rotate(-23.64)"/><path class="cls-28" d="M81.38,122.5,77,115.72a2,2,0,0,1,.62-2.82l9.9-6.34a3.16,3.16,0,0,1,1.71-.49c2,0,6.64.16,7.63,1.71s-.78,5.81-1.64,7.65a3.17,3.17,0,0,1-1.16,1.35l-9.9,6.34A2,2,0,0,1,81.38,122.5Z"/><circle class="cls-29" cx="93.76" cy="109.88" r="1.16"/><path class="cls-22" d="M81.61,117l.57-.37a.3.3,0,0,0,.11-.4,3.73,3.73,0,0,1-.44-1.43.29.29,0,0,1,.24-.31l.17,0a.39.39,0,0,1,.49.33,3.55,3.55,0,0,0,.5,1.39,1.34,1.34,0,0,0,1.86.59c.59-.38.68-1,.49-2-.27-1.36-.22-2.35.71-2.94a2,2,0,0,1,2.59.33.29.29,0,0,0,.37,0l.61-.39a.31.31,0,0,1,.42.09l.09.15a.29.29,0,0,1-.09.42l-.53.34a.3.3,0,0,0-.1.4,3.4,3.4,0,0,1,.35,1.09.3.3,0,0,1-.24.35l-.27.06a.3.3,0,0,1-.36-.26,3,3,0,0,0-.48-1.24c-.53-.82-1.22-.82-1.64-.54s-.58.93-.36,2.1c.26,1.39.06,2.3-.89,2.91a2.17,2.17,0,0,1-2.73-.35.3.3,0,0,0-.37,0l-.64.41a.31.31,0,0,1-.42-.09l-.1-.15A.32.32,0,0,1,81.61,117Z"/><path class="cls-12" d="M109.51,106.84c.74,2.33-2.55,4.09-6.06,5.2s-7,.12-7.71-2.22,1.51-5.14,5-6.25S108.77,104.5,109.51,106.84Z"/><path class="cls-2" d="M88.88,50.19a6.26,6.26,0,0,1-12.52,0Z"/><g class="cls-30"><rect class="cls-4" x="74.63" y="49.21" width="15.64" height="2.17"/></g><g class="cls-31"><path class="cls-6" d="M78.62,57.14a4,4,0,1,1,8,0Z"/></g></g></svg>