<svg id="Слой_1" data-name="Слой 1" xmlns="http://www.w3.org/2000/svg" xmlns:xlink="http://www.w3.org/1999/xlink" viewBox="0 0 231.15 209.39"><defs><style>.cls-1,.cls-16,.cls-31,.cls-32,.cls-35,.cls-36,.cls-37{fill:none;}.cls-2{fill:#7a7af3;opacity:0.1;}.cls-3,.cls-34{fill:#bcdfe4;}.cls-3{opacity:0.11;}.cls-4{clip-path:url(#clip-path);}.cls-5{fill:#0e1733;}.cls-6{fill:#f5c494;}.cls-7{fill:#f2a0a0;}.cls-8{fill:#f2e750;}.cls-9{fill:#b6955f;}.cls-10{fill:#eab7b7;}.cls-11{fill:#cca27d;opacity:0.25;}.cls-12{fill:#f4b073;}.cls-13{fill:#f8ae9b;}.cls-14{fill:#3f2f29;}.cls-15{fill:#fff;}.cls-16{stroke:#b6955f;}.cls-16,.cls-31,.cls-32{stroke-linecap:round;stroke-linejoin:round;}.cls-17{fill:#d3aa71;}.cls-18{fill:#8f1f1d;}.cls-19{fill:#e23a26;}.cls-20{fill:#e33b26;}.cls-21{fill:#91bed4;}.cls-22{fill:#683034;}.cls-23{clip-path:url(#clip-path-2);}.cls-24{fill:#ededef;}.cls-25{clip-path:url(#clip-path-3);}.cls-26{fill:#f27171;}.cls-27{fill:#f9f1a5;}.cls-28{fill:#fffabd;}.cls-29{fill:#d6a374;}.cls-30{fill:#296d7e;}.cls-31{stroke:#f3674e;}.cls-32{stroke:#3f2e00;stroke-width:0.75px;}.cls-33{fill:#504039;}.cls-34{opacity:0.12;}.cls-35{stroke:#bcdfe4;}.cls-35,.cls-36,.cls-37{stroke-miterlimit:10;}.cls-36{stroke:#d29cff;}.cls-36,.cls-37{opacity:0.42;}.cls-37{stroke:#49f2d3;}</style><clipPath id="clip-path"><rect class="cls-1" x="-96.55" y="201.3" width="37.22" height="56.77" rx="13.98"/></clipPath><clipPath id="clip-path-2"><path class="cls-1" d="M100.15,83.5a4,4,0,0,1-.08.81s-2.28,1.85-4.18,1.85a8,8,0,0,1-4.18-1.81,4.86,4.86,0,0,1-.08-.85Z"/></clipPath><clipPath id="clip-path-3"><path class="cls-1" d="M100.15,83.5a4.26,4.26,0,0,1-8.52,0Z"/></clipPath></defs><title>advantages 2</title><polygon class="cls-2" points="232.01 178.62 232.01 101.68 194.15 143.93 232.01 178.62"/><polygon class="cls-2" points="231.41 166.2 231.41 114.59 204.06 142.92 231.41 166.2"/><polygon class="cls-3" points="-1.98 101.77 -1.98 5.21 49.83 58.22 -1.98 101.77"/><g class="cls-4"><rect class="cls-5" x="6.44" y="208.16" width="44.75" height="34.2"/></g><ellipse class="cls-6" cx="115.65" cy="144.34" rx="2.97" ry="3.77"/><path class="cls-6" d="M75.6,124.78c-.55,1.4-1.89,2.19-3,1.76l-2-.79c-1.09-.43-1.53-1.93-1-3.33L79.2,98.14c.8-2,2.77-3.13,4.41-2.47h0c1.64.65,2.32,2.8,1.53,4.81Z"/><path class="cls-7" d="M75.24,94.94h8.21a0,0,0,0,1,0,0v21.24A4.43,4.43,0,0,1,79,120.61h0a4.38,4.38,0,0,1-4.38-4.38V95.54a.6.6,0,0,1,.6-.6Z" transform="translate(113.03 237.04) rotate(-158.47)"/><path class="cls-7" d="M75.29,95h8.21a0,0,0,0,1,0,0V116.2a4.43,4.43,0,0,1-4.43,4.43h0a4.38,4.38,0,0,1-4.38-4.38V95.56a.6.6,0,0,1,.6-.6Z" transform="translate(113.13 237.1) rotate(-158.47)"/><ellipse class="cls-6" cx="88.02" cy="145.07" rx="4.41" ry="3.43" transform="translate(-81.59 140.3) rotate(-57.14)"/><rect class="cls-8" x="70.28" y="117.59" width="8.89" height="2.37" transform="translate(100.66 256.68) rotate(-158.47)"/><path class="cls-6" d="M150.21,103.3c2.07,0,3.78-.89,3.8-2.06l0-2.12c0-1.17-1.68-2.16-3.76-2.2l-36.11-.65c-3,0-5.45,1.34-5.47,3.11h0c0,1.76,2.38,3.22,5.37,3.28Z"/><path class="cls-7" d="M113.77,87.25h0a4.43,4.43,0,0,1,4.43,4.43V112.3a0,0,0,0,1,0,0H110a.6.6,0,0,1-.6-.6V91.63A4.38,4.38,0,0,1,113.77,87.25Z" transform="translate(13.88 213.44) rotate(-89.93)"/><ellipse class="cls-6" cx="150.85" cy="99.57" rx="3.43" ry="4.03" transform="translate(51.06 250.28) rotate(-89.92)"/><rect class="cls-8" x="122.74" y="96.82" width="5.18" height="2.31" transform="translate(27.2 223.17) rotate(-89.93)"/><rect class="cls-9" x="81.56" y="74.22" width="28.19" height="18.41"/><rect class="cls-10" x="81.11" y="95.14" width="29.56" height="55.4" rx="0.83"/><rect class="cls-6" x="90.33" y="81.66" width="10.45" height="20.97" rx="5.23"/><path class="cls-11" d="M90.43,89.45v1.22c0,2.11,2.35,3.83,5.22,3.83h0c2.88,0,5.23-1.72,5.23-3.83V89.54"/><path class="cls-6" d="M84.25,71.56V69.18c0-6.68,5.07-12.09,11.33-12.09h0c6.26,0,11.34,5.41,11.34,12.09V80.63c0,6.68-5.08,12.09-11.34,12.09h0c-6.26,0-11.33-5.41-11.33-12.09V71.56"/><ellipse class="cls-6" cx="107.33" cy="74.62" rx="2.94" ry="3.08"/><path class="cls-12" d="M107.33,72.93v3.39a1.7,1.7,0,0,0,0-3.39Z"/><ellipse class="cls-6" cx="84.56" cy="74.62" rx="2.94" ry="3.08"/><path class="cls-12" d="M82.94,74.62a1.66,1.66,0,0,0,1.62,1.7V72.93A1.65,1.65,0,0,0,82.94,74.62Z"/><path class="cls-13" d="M97.1,79.39a1.45,1.45,0,0,1-2.9,0Z"/><rect class="cls-14" x="99.61" y="69.42" width="2.96" height="4.85" rx="1.48"/><circle class="cls-15" cx="101.09" cy="71.6" r="0.71"/><rect class="cls-14" x="89.13" y="69.42" width="2.96" height="4.85" rx="1.48"/><circle class="cls-15" cx="90.61" cy="71.6" r="0.71"/><path class="cls-16" d="M98.12,68.4a3.53,3.53,0,0,1,2.61-1.35,3.82,3.82,0,0,1,2.91,1.1"/><path class="cls-16" d="M87.85,68.4a3.56,3.56,0,0,1,2.62-1.35,3.79,3.79,0,0,1,2.9,1.1"/><path class="cls-17" d="M81.55,82.22a4,4,0,0,0,.92,0h0c1.59,0,2.88-2.29,2.88-5.09,0,0,.36-11.15,1.63-14.63.37-1-1-.66-1.15-.83a2.71,2.71,0,0,0-.93-.85c-.2-.12.2-.38.07-.62,0,0-2.2,3.7-2.42,5.34-.15,1.12-.73,3.41-1,5.33a39.75,39.75,0,0,0,0,4.45C81.54,77,81.55,82.22,81.55,82.22Z"/><path class="cls-17" d="M109.28,72.31h-1a3.24,3.24,0,0,1-3-2.84c-.24-1.25-1.36-7.95-1.2-8.27a3.12,3.12,0,0,1,2.3-.86c.58.25,1.16,2.13,1.56,3a26,26,0,0,1,1.07,5.4C109,69.25,109.28,72.31,109.28,72.31Z"/><path class="cls-17" d="M84.61,60.9c.14-.83,2.76-3.43,4.56-4.55A12.65,12.65,0,0,1,96,54.45a12.92,12.92,0,0,1,10.78,6.45c.32.77-1.29,1.8-1.56,2.25s-1.43-4.36-8.33-4.4-7.82,1.47-9,2.92a5.08,5.08,0,0,0-1.27,2.68S84.48,61.75,84.61,60.9Z"/><path class="cls-18" d="M104.14,107.36a.74.74,0,0,1-.49-.78l.27,0a.44.44,0,0,0,.3.59l-.08.23"/><path class="cls-18" d="M107.73,108.43a.74.74,0,0,0,.84-.38l-.21-.18s-.06.42-.58.33l0,.23"/><path class="cls-18" d="M106.17,107.08a5.18,5.18,0,0,0-1.46-.25l-.28.91a5.63,5.63,0,0,0,1.36.6,5.32,5.32,0,0,0,1.62.24l.25-.82a5.21,5.21,0,0,0-1.49-.68"/><path class="cls-18" d="M107.5,108.38a.32.32,0,0,1,0-.16c.06-.09.14-.12.19-.07l0,0h0a.42.42,0,0,1-.13.48,2.34,2.34,0,0,1-.5.28s.17-.36.37-.58"/><path class="cls-18" d="M104.49,107.43a.34.34,0,0,0,.06-.15c0-.11,0-.2-.13-.2a0,0,0,0,0,0,0h0a.35.35,0,0,0-.19.45,2.56,2.56,0,0,0,.29.61c.05,0,.07-.4,0-.72"/><path class="cls-19" d="M104.15,107.35h0"/><path class="cls-20" d="M108,108.15v0l.18-.14a.06.06,0,0,0,0-.07.05.05,0,0,0,0-.05l-.21-.1a.13.13,0,0,0,0-.06l.16-.18a.08.08,0,0,0,0-.07s0,0,0,0l-.22-.06,0,0,.12-.21a.09.09,0,0,0,0-.07.06.06,0,0,0-.06,0h-.22l0,0,.07-.23a.06.06,0,0,0,0-.06.07.07,0,0,0-.06,0l-.23,0,0,0,0-.24a0,0,0,0,0,0-.06,0,0,0,0,0-.06,0l-.22.08,0,0v-.23a.07.07,0,0,0,0-.06.06.06,0,0,0-.07,0l-.2.12,0,0-.06-.23s0,0,0,0a.07.07,0,0,0-.07,0l-.17.15h0l-.1-.21a.06.06,0,0,0-.06,0s0,0-.06,0l-.14.19h-.05l-.14-.18a.07.07,0,0,0-.06,0,.07.07,0,0,0-.05,0l-.11.22h0l-.17-.16a.08.08,0,0,0-.07,0,.07.07,0,0,0,0,0l-.06.23-.06,0-.19-.11a.09.09,0,0,0-.07,0,.05.05,0,0,0,0,0l0,.24,0,0-.21-.07a.09.09,0,0,0-.07,0,.14.14,0,0,0,0,.07l0,.23,0,0-.23,0a0,0,0,0,0-.06,0,.06.06,0,0,0,0,.07l.07.22h0l-.09,0,.11.32a4.61,4.61,0,0,0,3.47,1.06c.2,0,.34-.26.34-.26"/><path class="cls-15" d="M106.62,107.72a.16.16,0,0,1-.16.12c-.06,0-.08-.1-.06-.18s.09-.14.15-.12a.15.15,0,0,1,.07.18"/><ellipse cx="105.57" cy="107.48" rx="0.29" ry="0.23" transform="translate(-27.66 177.82) rotate(-73.34)"/><rect class="cls-1" x="104.37" y="105.2" width="3.38" height="4.59" transform="translate(-27.32 178.29) rotate(-73.34)"/><path class="cls-15" d="M105.67,107.44a.14.14,0,0,1-.16.12c-.06,0-.09-.1-.06-.19a.14.14,0,0,1,.16-.12c.06,0,.09.1.06.19"/><ellipse cx="106.53" cy="107.76" rx="0.29" ry="0.23" transform="translate(-27.25 178.93) rotate(-73.34)"/><path class="cls-15" d="M106.63,107.72c0,.09-.1.14-.16.12s-.09-.1-.07-.18.1-.14.16-.12.09.1.07.18"/><path class="cls-20" d="M104.2,107.42c.06,0,.19-.07.2-.15a.25.25,0,0,0-.19-.3.17.17,0,0,0-.1,0h0a.45.45,0,0,0-.37.58,3.34,3.34,0,0,0,.41.87c.08.06.08-.55,0-1"/><path class="cls-20" d="M107.69,108.44c0-.06-.17-.14-.15-.22a.25.25,0,0,1,.3-.19l.09,0h0a.45.45,0,0,1,.09.68,3.58,3.58,0,0,1-.75.62c-.09,0,.19-.53.41-.93"/><rect class="cls-1" x="104.37" y="105.2" width="3.38" height="4.58" transform="translate(-27.32 178.29) rotate(-73.34)"/><rect class="cls-1" x="104.37" y="105.2" width="3.38" height="4.59" transform="translate(-27.32 178.29) rotate(-73.34)"/><path class="cls-20" d="M103.78,106.2s0-.23-.13-.55a.52.52,0,0,0-.37.51.49.49,0,0,0,.42.54.48.48,0,0,0,.43-.52.64.64,0,0,0-.09-.34,1.58,1.58,0,0,1-.26.36"/><rect class="cls-1" x="104.37" y="105.2" width="3.38" height="4.58" transform="translate(-27.32 178.29) rotate(-73.34)"/><path class="cls-20" d="M108.66,107.66s.16-.17.41-.39a.52.52,0,0,1,0,.64.44.44,0,1,1-.72-.46.57.57,0,0,1,.26-.23,1.87,1.87,0,0,0,0,.44"/><path d="M106.2,108a.25.25,0,0,1-.3.18.26.26,0,0,1-.18-.3Z"/><path class="cls-17" d="M108.19,64.91c-2.41-7.06-7.12-8.67-12.57-8.67a12.18,12.18,0,0,0-12,8.67Z"/><path class="cls-6" d="M88.84,65.75a4.79,4.79,0,0,1,1.09-2.45c.84-.73-.61.4,0,2.41"/><path class="cls-6" d="M90.23,66.5a7.37,7.37,0,0,1,.67-2.66c.55-.88-.41.5,0,2.45"/><path class="cls-6" d="M91.56,65.27a13,13,0,0,1,1.26-3.47c.74-1.11-.52.63-.5,3.26"/><circle class="cls-21" cx="108.07" cy="77.88" r="0.89"/><circle class="cls-15" cx="107.73" cy="77.57" r="0.2"/><path class="cls-22" d="M100.15,83.5a4.26,4.26,0,0,1-8.52,0Z"/><g class="cls-23"><rect class="cls-24" x="90.44" y="82.83" width="10.66" height="1.48"/></g><g class="cls-25"><path class="cls-26" d="M93.17,88.23a2.72,2.72,0,0,1,5.44,0Z"/></g><path class="cls-6" d="M171.94,70.43a1.83,1.83,0,0,0-1.63-2l-1.81-.2a1.8,1.8,0,0,0-2,1.55L164.7,86.64a2.67,2.67,0,0,0,2.46,2.84h0a2.61,2.61,0,0,0,3-2.21Z"/><path class="cls-27" d="M166.27,87.45l3.38,6.63c.11.22.1.45,0,.52L149,105.35c-1,.5-2.41-.4-3.23-2l-.59-1.16c-.83-1.63-.72-3.37.26-3.87Z"/><path class="cls-6" d="M119.29,144.22c0,2-.83,3.7-1.92,3.71l-2,0c-1.09,0-2-1.63-2-3.66L112.81,109c0-2.92,1.24-5.31,2.87-5.33h0c1.63,0,3,2.33,3,5.24Z"/><path class="cls-27" d="M112.52,96.66h7.6a0,0,0,0,1,0,0v39.93a4.11,4.11,0,0,1-4.11,4.11h0a4.05,4.05,0,0,1-4.05-4.05V97.21a.55.55,0,0,1,.55-.55Z" transform="translate(232.09 237.35) rotate(-180)"/><rect class="cls-14" x="120.52" y="74.27" width="23.55" height="32.22"/><rect class="cls-28" x="116.24" y="96.66" width="32.64" height="52" rx="0.83"/><polygon class="cls-8" points="131.7 102.28 124.14 107.41 124.14 97.16 131.7 102.28"/><polygon class="cls-8" points="133.17 102.28 140.97 107.41 140.97 97.16 133.17 102.28"/><rect class="cls-8" x="124.14" y="96.66" width="16.83" height="5.83"/><rect class="cls-6" x="127.41" y="89.9" width="9.67" height="12.01" rx="4.84"/><path class="cls-11" d="M127.41,92V93.3c0,2.29,2.18,4.16,4.84,4.16h0c2.66,0,4.84-1.87,4.84-4.16V92.08"/><path class="cls-6" d="M121.76,75.46V73.25c0-6.18,4.7-11.19,10.49-11.19h0c5.8,0,10.49,5,10.49,11.19V83.86c0,6.18-4.69,11.19-10.49,11.19h0c-5.79,0-10.49-5-10.49-11.19v-8.4"/><ellipse class="cls-6" cx="143.07" cy="78.93" rx="2.72" ry="2.85"/><path class="cls-12" d="M143.07,77.35V80.5a1.58,1.58,0,0,0,0-3.15Z"/><ellipse class="cls-6" cx="121.98" cy="78.93" rx="2.72" ry="2.85"/><path class="cls-12" d="M120.48,78.93A1.54,1.54,0,0,0,122,80.5V77.35A1.54,1.54,0,0,0,120.48,78.93Z"/><path class="cls-29" d="M130.91,84.76a1.57,1.57,0,0,1,3.13,0Z"/><rect class="cls-30" x="135.92" y="75.04" width="2.74" height="3.88" rx="1.37"/><circle class="cls-15" cx="137.29" cy="77.06" r="0.66"/><rect class="cls-30" x="126.22" y="75.04" width="2.74" height="3.88" rx="1.37"/><path class="cls-31" d="M129,89a4,4,0,0,0,2.87,1.54A4.61,4.61,0,0,0,136,89"/><circle class="cls-15" cx="127.59" cy="77.06" r="0.66"/><path class="cls-32" d="M134.53,74.1A3.32,3.32,0,0,1,137,72.85a3.49,3.49,0,0,1,2.69,1"/><path class="cls-32" d="M125,74.1a3.32,3.32,0,0,1,2.42-1.25,3.49,3.49,0,0,1,2.69,1"/><rect class="cls-14" x="126.93" y="60.36" width="16.52" height="6.96" rx="3.48"/><path class="cls-14" d="M120.53,76.39a5.76,5.76,0,0,0,.72,0h0a2.4,2.4,0,0,0,2.28-2.48l.51-7.19c0-.66-1-.51-1.4-1,0,0-1,1.92-1.23,2.7a20.09,20.09,0,0,0-.87,4.56C120.52,73.86,120.53,76.39,120.53,76.39Z"/><path class="cls-14" d="M144.08,76.17a4.45,4.45,0,0,1-.73,0h0a2.37,2.37,0,0,1-2.28-2.43l-.51-7c0-.64,1-.5,1.4-.93,0,0,1,1.89,1.24,2.64a20,20,0,0,1,.87,4.47C144.08,73.69,144.08,76.17,144.08,76.17Z"/><rect class="cls-13" x="137.29" y="80.5" width="3.05" height="1.28" rx="0.64"/><rect class="cls-13" x="124.69" y="80.5" width="3.05" height="1.28" rx="0.64"/><rect class="cls-33" x="122.32" y="63.61" width="8.43" height="4.31" rx="2.16"/><rect class="cls-8" x="131.77" y="109.28" width="1.4" height="1.4" rx="0.7"/><rect class="cls-8" x="131.94" y="116.99" width="1.08" height="1.18" rx="0.54"/><rect class="cls-8" x="131.94" y="123.44" width="1.08" height="1.18" rx="0.54"/><rect class="cls-8" x="131.94" y="129.9" width="1.08" height="1.18" rx="0.54"/><rect class="cls-8" x="131.94" y="136.36" width="1.08" height="1.18" rx="0.54"/><path class="cls-6" d="M52.47,115.87a2.17,2.17,0,0,1-.69-3l1.16-1.79a2.18,2.18,0,0,1,3-.59L73.6,121.86a3.17,3.17,0,0,1,.91,4.39h0a3.18,3.18,0,0,1-4.38,1Z"/><path class="cls-27" d="M165.09,70.58l7.1.8c.23,0,.41.16.4.3L170.35,93c-.11,1-1.59,1.64-3.32,1.45l-1.24-.14c-1.74-.2-3.07-1.18-3-2.19Z"/><ellipse class="cls-6" cx="169.6" cy="67.32" rx="3.77" ry="2.97" transform="translate(78.21 225.25) rotate(-81.59)"/><polygon class="cls-8" points="165.2 70.36 172.8 71.25 172.15 76.39 164.59 75.33 165.2 70.36"/><polygon class="cls-8" points="111.94 135.64 116.19 135.6 116.28 140.66 112.03 140.64 111.94 135.64"/><ellipse class="cls-6" cx="51.99" cy="111.63" rx="3.74" ry="4.17" transform="translate(-67.61 82.32) rotate(-51.26)"/><polygon class="cls-34" points="-1.23 86.17 -1.23 21.41 33.43 56.97 -1.23 86.17"/><circle class="cls-35" cx="168.06" cy="12.55" r="2.36"/><circle class="cls-36" cx="172.78" cy="57.8" r="2.36"/><circle class="cls-35" cx="47.47" cy="152.93" r="2.36"/><circle class="cls-35" cx="196.51" cy="180.43" r="2.36"/><circle class="cls-37" cx="69.77" cy="19.38" r="2.36"/><rect class="cls-36" x="31.1" y="89.12" width="4.62" height="4.62" transform="translate(55.5 -3.37) rotate(33.19)"/><rect class="cls-36" x="115.91" y="183.98" width="4.62" height="4.62" transform="translate(242.32 3.86) rotate(66.63)"/><polygon class="cls-35" points="199.48 118.41 198.03 115.04 201.38 113.58 202.82 116.95 199.48 118.41"/></svg>