<svg id="Слой_1" data-name="Слой 1" xmlns="http://www.w3.org/2000/svg" viewBox="0 0 1918.47 1079.14"><defs><style>.cls-1{fill:#bde5dd;}.cls-1,.cls-2,.cls-3,.cls-4,.cls-5{opacity:0.44;}.cls-2,.cls-3,.cls-4,.cls-6,.cls-7,.cls-8{fill:none;}.cls-2,.cls-6{stroke:#71bbc6;}.cls-2,.cls-3,.cls-4{stroke-miterlimit:10;}.cls-2{stroke-width:8px;}.cls-3{stroke:#f2e750;stroke-width:10px;}.cls-4{stroke:#d8a7dc;stroke-width:21px;stroke-dasharray:23;}.cls-6,.cls-7,.cls-8{stroke-linecap:round;}.cls-6{stroke-linejoin:bevel;stroke-width:7px;stroke-dasharray:4;}.cls-7,.cls-8{stroke:#8b83ea;stroke-linejoin:round;stroke-width:12px;}.cls-8{stroke-dasharray:44.93 44.93;}</style></defs><title>background</title><circle class="cls-1" cx="175.11" cy="97.45" r="46.12"/><circle class="cls-2" cx="1818.61" cy="899.71" r="22.51"/><circle class="cls-3" cx="1675.8" cy="957.36" r="49.53"/><ellipse class="cls-4" cx="87.74" cy="964.3" rx="178" ry="178.04"/><g class="cls-5"><line class="cls-6" x1="126.63" y1="247.07" x2="101.48" y2="301.68"/><line class="cls-6" x1="140.37" y1="276.37" x2="87.51" y2="270.91"/></g><g class="cls-5"><polyline class="cls-7" points="1882.98 211.14 1877.26 230.31 1858.1 224.59"/><line class="cls-8" x1="1815.04" y1="211.74" x2="1750.46" y2="192.47"/><polyline class="cls-7" points="1728.93 186.04 1709.77 180.33 1715.49 161.16"/><line class="cls-8" x1="1728.33" y1="118.11" x2="1747.61" y2="53.52"/><polyline class="cls-7" points="1754.03 32 1759.75 12.83 1778.91 18.55"/><line class="cls-8" x1="1821.97" y1="31.4" x2="1886.55" y2="50.67"/><polyline class="cls-7" points="1908.08 57.09 1927.24 62.81 1921.52 81.98"/><line class="cls-8" x1="1908.68" y1="125.03" x2="1889.4" y2="189.62"/></g></svg>