<svg id="Слой_1" data-name="Слой 1" xmlns="http://www.w3.org/2000/svg" viewBox="0 0 1683.03 770"><defs><style>.cls-1{opacity:0.41;}.cls-2,.cls-62{fill:#667fb7;}.cls-3{fill:#fcfcfc;}.cls-27,.cls-4{fill:#f2f2f2;}.cls-4{opacity:0.69;}.cls-5{fill:#313333;}.cls-12,.cls-17,.cls-18,.cls-22,.cls-23,.cls-24,.cls-25,.cls-28,.cls-29,.cls-30,.cls-31,.cls-33,.cls-34,.cls-35,.cls-38,.cls-40,.cls-5,.cls-50,.cls-51,.cls-59,.cls-6,.cls-64,.cls-65{stroke:#fff;}.cls-10,.cls-12,.cls-17,.cls-18,.cls-22,.cls-23,.cls-24,.cls-25,.cls-26,.cls-27,.cls-28,.cls-29,.cls-30,.cls-31,.cls-35,.cls-36,.cls-38,.cls-40,.cls-42,.cls-44,.cls-46,.cls-48,.cls-49,.cls-5,.cls-50,.cls-51,.cls-59,.cls-6,.cls-62,.cls-64,.cls-65{stroke-miterlimit:10;}.cls-40,.cls-6,.cls-9{fill:#fff;}.cls-7{opacity:0.32;}.cls-25,.cls-8{fill:#f2a0a0;}.cls-10,.cls-26,.cls-36{fill:#a3b4b5;}.cls-10,.cls-26,.cls-27,.cls-36{stroke:#fdfdff;}.cls-10{opacity:0.25;}.cls-11,.cls-19{fill:#7866f2;}.cls-11{opacity:0.42;}.cls-12{fill:#9090e0;}.cls-13{fill:#45689b;}.cls-14{fill:#272822;}.cls-15{fill:#4242bc;}.cls-16{fill:#a1d6d1;}.cls-17,.cls-68{fill:#f2e750;}.cls-17,.cls-18,.cls-25,.cls-34,.cls-35,.cls-59,.cls-64{stroke-width:0.5px;}.cls-18{fill:#d0d8d9;}.cls-20{fill:#9992f4;}.cls-21{fill:#d8a7dc;}.cls-22{fill:#85edcf;}.cls-23{fill:#f9eb70;}.cls-23,.cls-33{stroke-width:0.75px;}.cls-24{fill:#f7b5ef;}.cls-24,.cls-40{stroke-width:0.25px;}.cls-26,.cls-27{stroke-width:3px;}.cls-28{fill:#7272d6;}.cls-29{fill:#3c8469;}.cls-30,.cls-32{fill:#559378;}.cls-31{fill:#69b797;}.cls-33,.cls-34,.cls-35,.cls-41,.cls-42,.cls-44,.cls-46,.cls-48,.cls-49,.cls-55,.cls-58,.cls-60,.cls-61{fill:none;}.cls-33,.cls-34,.cls-41,.cls-56,.cls-58,.cls-60,.cls-61{stroke-linecap:round;}.cls-33,.cls-34,.cls-41,.cls-56,.cls-60,.cls-61{stroke-linejoin:round;}.cls-37{fill:#9aa5a5;}.cls-38{fill:#9177f2;}.cls-39{fill:#020202;}.cls-41{stroke:#4c4c4c;opacity:0.62;}.cls-42{stroke:#9177f2;}.cls-42,.cls-44{stroke-width:8px;}.cls-43{fill:#bde5dd;}.cls-44,.cls-58{stroke:#71bbc6;}.cls-45{fill:#fffabd;}.cls-46{stroke:#f2e750;stroke-width:10px;}.cls-47{fill:#d8bfd9;}.cls-48,.cls-49{stroke:#d8a7dc;stroke-width:6px;}.cls-48{stroke-dasharray:4.04 4.04;}.cls-49{stroke-dasharray:3.95 3.95;}.cls-50{fill:#347ab4;}.cls-51{fill:#ffca1d;}.cls-52{fill:#8f1f1d;}.cls-53{fill:#e23a26;}.cls-54{fill:#e33b26;}.cls-56{fill:#6d8ef2;stroke:#6d8ef2;stroke-width:2px;}.cls-57{fill:#6a7bd9;}.cls-58{stroke-linejoin:bevel;stroke-width:7px;stroke-dasharray:13;}.cls-59,.cls-64{fill:#246377;}.cls-59{opacity:0.13;}.cls-60,.cls-61{stroke:#8b83ea;stroke-width:5px;}.cls-61{stroke-dasharray:7.39 7.39;}.cls-62{stroke:#fcfcfc;}.cls-63{fill:#8da2c6;opacity:0.47;}.cls-65{fill:#b1acea;}.cls-66{fill:#6262b5;opacity:0.61;}.cls-67{fill:#71bbc6;}</style></defs><title>main-img</title><g class="cls-1"><rect class="cls-2" x="1236.6" y="449.46" width="116.62" height="11.48" rx="5.4"/><path class="cls-3" d="M1347.83,450a4.9,4.9,0,0,1,4.89,4.9v.69a4.9,4.9,0,0,1-4.89,4.9H1242a4.91,4.91,0,0,1-4.9-4.9v-.69a4.91,4.91,0,0,1,4.9-4.9h105.83m0-1H1242a5.9,5.9,0,0,0-5.9,5.9v.69a5.9,5.9,0,0,0,5.9,5.9h105.83a5.9,5.9,0,0,0,5.89-5.9v-.69a5.9,5.9,0,0,0-5.89-5.9Z"/></g><path class="cls-4" d="M935.81,770C813.36,655.64,739.28,503.64,739.28,340.28,739.28,215.7,782.06,99.22,856.37,0H1683V767.82S940.86,774.72,935.81,770Z"/><circle class="cls-5" cx="1140.19" cy="443.14" r="10.28"/><circle class="cls-6" cx="1140.05" cy="443.14" r="6.83"/><g class="cls-7"><path class="cls-8" d="M1101.27,353.6a12,12,0,0,1-12-12V329h25.32l0,12.68a12,12,0,0,1-12,12Z"/><path class="cls-9" d="M1114.19,329.46v12.18a11.48,11.48,0,0,1-11.46,11.46h-1.46a11.47,11.47,0,0,1-11.46-11.46V329.46h24.38m.44-1H1088.9a.09.09,0,0,0-.09.09v13.09a12.46,12.46,0,0,0,12.46,12.46h1.46a12.46,12.46,0,0,0,12.46-12.46V329a.57.57,0,0,0-.56-.56Z"/></g><path class="cls-10" d="M1448.48,423.9h22.62a0,0,0,0,1,0,0v28.8a9.81,9.81,0,0,1-9.81,9.81h-3a9.81,9.81,0,0,1-9.81-9.81V423.9A0,0,0,0,1,1448.48,423.9Z"/><g class="cls-1"><rect class="cls-2" x="1178.84" y="299.54" width="233.28" height="133.55" rx="16.33"/><path class="cls-3" d="M1395.79,300a15.85,15.85,0,0,1,15.83,15.84V416.76a15.85,15.85,0,0,1-15.83,15.84H1195.17a15.85,15.85,0,0,1-15.83-15.84V315.88A15.85,15.85,0,0,1,1195.17,300h200.62m0-1H1195.17a16.84,16.84,0,0,0-16.83,16.84V416.76a16.84,16.84,0,0,0,16.83,16.84h200.62a16.83,16.83,0,0,0,16.83-16.84V315.88A16.83,16.83,0,0,0,1395.79,299Z"/></g><rect class="cls-11" x="1396.69" y="245.04" width="97.96" height="9.71" rx="4.59"/><rect class="cls-12" x="1106.43" y="485.23" width="23.59" height="228.81" rx="6.99"/><rect class="cls-12" x="1451.88" y="485.23" width="23.05" height="228.81" rx="7.18"/><rect class="cls-13" x="1274.5" y="429.29" width="42.11" height="23.12"/><path class="cls-3" d="M1316.12,429.79V451.9H1275V429.79h41.12m1-1H1274V452.9h43.12V428.79Z"/><rect class="cls-2" x="1178.51" y="295.37" width="233.28" height="134.07" rx="16.33"/><path class="cls-3" d="M1395.46,295.87a15.85,15.85,0,0,1,15.83,15.83V413.1a15.85,15.85,0,0,1-15.83,15.84H1194.85A15.86,15.86,0,0,1,1179,413.1V311.7a15.85,15.85,0,0,1,15.84-15.83h200.61m0-1H1194.85A16.83,16.83,0,0,0,1178,311.7V413.1a16.84,16.84,0,0,0,16.84,16.84h200.61a16.83,16.83,0,0,0,16.83-16.84V311.7a16.82,16.82,0,0,0-16.83-16.83Z"/><rect class="cls-14" x="1189.7" y="306.62" width="210.98" height="112.5" rx="5.81"/><path class="cls-9" d="M1394.88,307.12a5.31,5.31,0,0,1,5.31,5.31V413.32a5.31,5.31,0,0,1-5.31,5.3H1195.51a5.31,5.31,0,0,1-5.31-5.3V312.43a5.31,5.31,0,0,1,5.31-5.31h199.37m0-1H1195.51a6.31,6.31,0,0,0-6.31,6.31V413.32a6.31,6.31,0,0,0,6.31,6.3h199.37a6.31,6.31,0,0,0,6.31-6.3V312.43a6.31,6.31,0,0,0-6.31-6.31Z"/><polygon class="cls-15" points="1456.96 429.34 1454.6 429.79 1448.19 392.69 1450.56 392.25 1456.96 429.34"/><polygon class="cls-16" points="1463.62 428.48 1459.56 429.23 1454.77 400.87 1458.83 400.12 1463.62 428.48"/><rect class="cls-17" x="1401.23" y="163.55" width="12.31" height="78.15"/><rect class="cls-18" x="1414.5" y="170.9" width="16.71" height="70.79"/><rect class="cls-17" x="1432.15" y="161.3" width="10.58" height="80.39"/><polygon class="cls-19" points="1447.7 392.64 1450.81 392.06 1452.08 399.58 1448.97 400.15 1447.7 392.64"/><path class="cls-9" d="M1450.4,392.65l1.1,6.53-2.12.39-1.1-6.53,2.12-.39m.82-1.17-4.09.76,1.43,8.5,4.09-.76-1.43-8.5Z"/><polygon class="cls-20" points="1454.29 399.62 1458.92 398.77 1461.3 412.86 1456.67 413.71 1454.29 399.62"/><path class="cls-9" d="M1458.51,399.35l2.21,13.1-3.64.68L1454.87,400l3.64-.67m.82-1.17-5.61,1,2.54,15.08,5.61-1-2.54-15.08Z"/><polygon class="cls-21" points="1467.76 429.6 1469.34 430.01 1478.04 393.7 1476.46 393.29 1467.76 429.6"/><ellipse class="cls-22" cx="1477.78" cy="392.06" rx="6.23" ry="6.51"/><ellipse class="cls-23" cx="1477.78" cy="392.06" rx="4.19" ry="4.43"/><ellipse class="cls-24" cx="1477.78" cy="392.06" rx="1.68" ry="1.76"/><rect class="cls-25" x="1401.33" y="145.22" width="12.2" height="24.67"/><rect class="cls-2" x="1414.97" y="149.99" width="15.63" height="25.66"/><path class="cls-9" d="M1430.47,150.12v25.4h-15.38v-25.4h15.38m.25-.25h-15.88v25.9h15.88v-25.9Z"/><rect class="cls-25" x="1432.15" y="152.88" width="10.58" height="14.1"/><rect class="cls-25" x="1432.15" y="227.35" width="10.58" height="14.1"/><rect class="cls-26" x="1183.62" y="147.05" width="84.39" height="102.4"/><rect class="cls-27" x="1195" y="158.42" width="60.68" height="79.65"/><rect class="cls-26" x="1275.12" y="177.99" width="87.49" height="78.75"/><rect class="cls-27" x="1286.92" y="186.74" width="65.29" height="61.25"/><rect class="cls-26" x="1086.42" y="177.99" width="88.2" height="78.75"/><rect class="cls-27" x="1098.31" y="186.74" width="63.43" height="61.25"/><rect class="cls-28" x="1124.27" y="490.33" width="339.31" height="23.96"/><rect class="cls-28" x="1451.88" y="492.93" width="23.4" height="26.74"/><rect class="cls-28" x="1106.72" y="492.93" width="23.4" height="26.74"/><polygon class="cls-29" points="1096.04 301.68 1096.03 301.68 1096.03 301.68 1096.04 301.68"/><path class="cls-29" d="M1083.05,304.24l0,.07a18.33,18.33,0,0,1,6.15-2.45A13.19,13.19,0,0,0,1083.05,304.24Z"/><path class="cls-30" d="M1096.89,303.47c-.27-.58-.53-1.13-.79-1.65-4.3,0-9-.36-12.83,2.64,3.85-3,8.53-2.66,12.83-2.64a.61.61,0,0,0-.07-.14,28.84,28.84,0,0,0-6.8.18,18.33,18.33,0,0,0-6.15,2.45,79.09,79.09,0,0,0,7.82,13.93c5.74,8.46,6.42,13.87,6.42,13.87l3.43-1.34C1101.47,325.42,1102.17,314.63,1096.89,303.47Z"/><path class="cls-31" d="M1089.23,302.3a18.93,18.93,0,0,1,6.8-.18c-2-4-4-6.52-11.12-6.27-8.2.28-11.13,8.5-12,13.88-.41,2.59,5.33-.78,7.28-2.69a18.06,18.06,0,0,1,2.88-2.29l0-.07A13.19,13.19,0,0,1,1089.23,302.3Z"/><path class="cls-31" d="M1103.31,330.77c-1.66-1.14-5.78-4.91-7.27-21.93-.19-2.13-2.2-13.12,3-23.72.53-1.09,1.93-4.76,1.61-5.95-.49-1.87,8.65,11.08,9.1,12.66a53.65,53.65,0,0,1,1.28,22.83c-.74,4.12-1.42,4.45-2.14,9.4-.59,4.06-.57,6.88-2.14,7.61C1105.47,332.25,1103.88,331.16,1103.31,330.77Z"/><path class="cls-32" d="M1102.81,329.25c-1.56-2.78-.77-8,0-13.07a38.62,38.62,0,0,1,3-11.53c.34-.71,5.12-5.47,5.25-4.59a58.53,58.53,0,0,1,.19,9.2,56.81,56.81,0,0,1-2.18,11.92c-.88,3.15-3.48,9.61-4.35,9.61C1103.68,330.79,1102.91,329.43,1102.81,329.25Z"/><path class="cls-31" d="M1106.31,329.87c-3.06-3.23-1.5-9.32,0-15.21,1.13-4.42,2.34-9,6-13.43.68-.83,7-5.35,10.33-5.35.44,0,.89,5.21.38,10.72a43.2,43.2,0,0,1-4.29,13.88c-1.73,3.66-6.84,11.19-8.56,11.19A5.61,5.61,0,0,1,1106.31,329.87Z"/><path class="cls-33" d="M1103.28,325.79c0-.44.88-22,.88-22s0-9.68-.88-13.63"/><path class="cls-34" d="M1109.44,325.79a31.38,31.38,0,0,1,3.08-9.68c1.27-2.46,2.66-4.3,4-7.91a32.72,32.72,0,0,0,1.32-4.84"/><path class="cls-35" d="M1099.32,325.79a22.6,22.6,0,0,0-4-10.56c-1.64-2.26-4.3-4.9-5.72-9.67a17.76,17.76,0,0,1-.44-1.76"/><rect class="cls-2" x="1236.6" y="451.7" width="116.62" height="11.48" rx="5.4"/><path class="cls-3" d="M1347.83,452.2a4.9,4.9,0,0,1,4.89,4.9v.69a4.89,4.89,0,0,1-4.89,4.89H1242a4.9,4.9,0,0,1-4.9-4.89v-.69a4.91,4.91,0,0,1,4.9-4.9h105.83m0-1H1242a5.9,5.9,0,0,0-5.9,5.9v.69a5.9,5.9,0,0,0,5.9,5.89h105.83a5.89,5.89,0,0,0,5.89-5.89v-.69a5.9,5.9,0,0,0-5.89-5.9Z"/><path class="cls-36" d="M1451,423.06h22.62a0,0,0,0,1,0,0v28.8a9.81,9.81,0,0,1-9.81,9.81h-3a9.81,9.81,0,0,1-9.81-9.81v-28.8A0,0,0,0,1,1451,423.06Z"/><path class="cls-37" d="M1451,423.57h8a0,0,0,0,1,0,0v38.11a0,0,0,0,1,0,0h-.44a7.56,7.56,0,0,1-7.56-7.56V423.57A0,0,0,0,1,1451,423.57Z"/><rect class="cls-38" x="1396.28" y="242.53" width="100.47" height="9.19" rx="4.34"/><rect class="cls-11" x="1073.12" y="354.14" width="62.86" height="6.23" rx="2.94"/><rect class="cls-38" x="1072.31" y="352.53" width="64.46" height="5.9" rx="2.79"/><path class="cls-8" d="M1102.94,352.6a12,12,0,0,1-12-12V328h25.32l.06,12.68a12,12,0,0,1-12,12Z"/><path class="cls-9" d="M1115.86,328.46v12.18a11.47,11.47,0,0,1-11.46,11.46h-1.46a11.47,11.47,0,0,1-11.46-11.46V328.46h24.38m.44-1h-25.73a.09.09,0,0,0-.09.09v13.09a12.46,12.46,0,0,0,12.46,12.46h1.46a12.46,12.46,0,0,0,12.46-12.46V328a.56.56,0,0,0-.56-.56Z"/><rect class="cls-39" x="1290.59" y="298.63" width="9.19" height="5.01" rx="2.37"/><path class="cls-5" d="M1112.4,426.08h28.28a0,0,0,0,1,0,0v27.44a7.66,7.66,0,0,1-7.66,7.66h-13a7.66,7.66,0,0,1-7.66-7.66V426.08A0,0,0,0,1,1112.4,426.08Z"/><path class="cls-40" d="M1104.34,331a2.89,2.89,0,0,1,.29,1.28,3.94,3.94,0,0,1-1.22,2.49,14.21,14.21,0,0,0-1.42,1.33,2.08,2.08,0,0,0-.54.83,2.3,2.3,0,0,0,.34,1.71,3.89,3.89,0,0,0,.83,1.13,4.64,4.64,0,0,1-1.61-1.52,2.13,2.13,0,0,1-.49-1.57c.07-.34.29-.57.73-1s.78-.63,1.67-1.38.9-.84,1-1a3.57,3.57,0,0,0,.39-1.27A5.66,5.66,0,0,0,1104.34,331Z"/><path class="cls-40" d="M1106.15,334.52a8.71,8.71,0,0,0-.88.49,5.54,5.54,0,0,0-1.08.88,2.14,2.14,0,0,0-.49.69,1,1,0,0,0-.1.49,1.19,1.19,0,0,0,.3.58,4.63,4.63,0,0,1,.49.69,1.35,1.35,0,0,1,.09.39,1.44,1.44,0,0,1-.09.69,1.92,1.92,0,0,1-.49.68,2.4,2.4,0,0,1-.59.4,2.89,2.89,0,0,0,.19-.3,1.08,1.08,0,0,0,.2-.59,1,1,0,0,0-.2-.58,3.92,3.92,0,0,0-.29-.4,2.63,2.63,0,0,1-.29-.49,1.81,1.81,0,0,1-.2-.49,1.9,1.9,0,0,1,0-.68,1.75,1.75,0,0,1,.2-.59,2,2,0,0,1,.39-.49,4.35,4.35,0,0,1,.59-.49,6.24,6.24,0,0,1,1.37-.68A4.8,4.8,0,0,1,1106.15,334.52Z"/><path class="cls-40" d="M1106.44,340.1a1.88,1.88,0,0,1,.49-.19,1.49,1.49,0,0,1,.89,0,1.18,1.18,0,0,1,.68.59,1.12,1.12,0,0,1,.1.68,1.46,1.46,0,0,1-.49.78,2.9,2.9,0,0,1-.78.59,5.15,5.15,0,0,1-.79.3,3.26,3.26,0,0,1-.39.09l.49-.29a4.81,4.81,0,0,0,.69-.49,1.7,1.7,0,0,0,.49-.59,1.07,1.07,0,0,0,.09-.58,1.11,1.11,0,0,0-.19-.49,1,1,0,0,0-.3-.3,1.18,1.18,0,0,0-.39-.1A3.11,3.11,0,0,0,1106.44,340.1Z"/><path class="cls-40" d="M1106.05,340.59a2.8,2.8,0,0,1-.68.4,5.46,5.46,0,0,1-.89.19l-.68.1c-.39.05-.57.05-1.08.1-.82.07-.75.08-1.08.1-.11,0-.61,0-1.27,0a7.56,7.56,0,0,1-1.67-.2,2.53,2.53,0,0,1-.4-.12s-.15-.1-.17-.16a.19.19,0,0,1,0-.18.49.49,0,0,1,.12-.13.7.7,0,0,1,.19-.1l.29-.09.3-.1.29-.1.3-.1.39-.1a5.37,5.37,0,0,1,.59-.09l-.3.09a5.68,5.68,0,0,0-.68.3l-.3.19-.11.1c-.1.09,0,.18,0,.2a1.91,1.91,0,0,0,.39.1,5.38,5.38,0,0,0,1,.09c1,0,.61,0,1.27,0s1.16,0,1.76-.09c.32,0,.77-.09,1.37-.2Z"/><path class="cls-40" d="M1104.88,342.26l.58.39a3,3,0,0,1-1.07.29,18.42,18.42,0,0,1-2.06.2,8.87,8.87,0,0,1-1.24,0l-.62-.08a3.2,3.2,0,0,1-.39-.1,1.92,1.92,0,0,1-.49-.19c-.15-.09-.29-.17-.3-.3a.32.32,0,0,1,.1-.19,1.45,1.45,0,0,1,.69-.39.37.37,0,0,0-.1.19.32.32,0,0,0,0,.2c0,.13.24.17.39.19a6,6,0,0,0,1.08.1h.68a6.56,6.56,0,0,0,.89,0l.78-.07a3.4,3.4,0,0,0,.78-.09A2.24,2.24,0,0,0,1104.88,342.26Z"/><path class="cls-40" d="M1104.39,343.92l.78.49a6.81,6.81,0,0,1-1.57.4,11.81,11.81,0,0,1-1.85.07,8.27,8.27,0,0,1-1.09-.17,2.88,2.88,0,0,1-.68-.3.34.34,0,0,1-.2-.19.25.25,0,0,1,.09-.27.61.61,0,0,1,.21-.12,1.23,1.23,0,0,1,.31-.11.2.2,0,0,0,0,.11c0,.12.24.18.29.19a6.4,6.4,0,0,0,1.41.16h.67a8.78,8.78,0,0,0,1-.11A3.18,3.18,0,0,0,1104.39,343.92Z"/><path class="cls-40" d="M1107.72,345a.25.25,0,0,1,.13.28c0,.16-.06.18-.23.33a2,2,0,0,1-1,.41c-.43.1-.65.15-1,.2s-.64.09-1.73.19c-.63.06-1,.06-1.2.07-.68,0-1.17,0-1.54,0l-1.51-.08a10.89,10.89,0,0,1-1.53-.11A5.24,5.24,0,0,1,1097,346c-.2-.12-.27-.16-.26-.25a.43.43,0,0,1,.19-.28,2.4,2.4,0,0,1,.56-.25,7.62,7.62,0,0,1,.88-.3,2.27,2.27,0,0,1,.49-.09.92.92,0,0,1,.22,0l-.42.1a2.72,2.72,0,0,0-.54.2l-.26.18a.29.29,0,0,0-.13.21c0,.15.44.27.54.3a5.51,5.51,0,0,0,1.28.19h3.33c1,0,1,0,1.27,0s.29,0,1.18-.1a8.33,8.33,0,0,0,.88-.09,4.67,4.67,0,0,0,.71-.19c.21-.08.19-.06.44-.17s.24-.14.26-.23a.45.45,0,0,0,0-.19.48.48,0,0,0-.06-.11Z"/><path class="cls-40" d="M1099,346.82a11.35,11.35,0,0,0,1.28.14c.2,0,.32,0,.69,0l1.57,0c.66,0,1.13,0,1.86-.1.58,0,1.18-.1,1.86-.19a5.27,5.27,0,0,0,1.27-.3,3.06,3.06,0,0,0,.79-.39,2.24,2.24,0,0,1,.29-.19,1.69,1.69,0,0,1-.2.39,1.61,1.61,0,0,1-.68.49,10.4,10.4,0,0,1-2.55.49c-.5,0-.94.07-1.57.09-1,0-1.73,0-2.15,0a7.66,7.66,0,0,1-1.67-.19C1099.41,347,1099,346.82,1099,346.82Z"/><path class="cls-41" d="M1121.85,423.23c-1.88-3-3.22-6.57-2.25-10,1-3.56,3.88-4.46,5.92-8.41,1.3-2.53,2.13-6.05,1.3-11"/><path class="cls-41" d="M1126.35,423c-1.92-3.12-2-5.37-1.66-6.87.7-3.25,3.51-4.36,5.33-9a17.14,17.14,0,0,0,1.06-4.26"/><path class="cls-41" d="M1131.08,422.4c-1.57-2.38-1.58-4-1.3-5,.48-1.69,2-2.62,2.73-5.45a10.67,10.67,0,0,0,.23-1.3"/><circle class="cls-42" cx="1083.05" cy="67.12" r="20.04"/><circle class="cls-43" cx="1377.94" cy="84.48" r="28.91"/><circle class="cls-44" cx="1589.78" cy="587.22" r="22.51"/><circle class="cls-45" cx="1602.58" cy="262.29" r="22.83"/><circle class="cls-46" cx="1033.05" cy="599.63" r="17.11"/><circle class="cls-47" cx="914.99" cy="475.2" r="26.23"/><circle class="cls-48" cx="1396.28" cy="641.32" r="14.14" transform="translate(620.49 1967.61) rotate(-84.35)"/><circle class="cls-49" cx="1602.58" cy="262.29" r="23.91"/><path class="cls-50" d="M1319.48,205.72v1.52h-16.82a5.8,5.8,0,0,0-4.16,2.42,14.69,14.69,0,0,0-2.45,6.9c0,1-.37,1.93.42,6.62.52,3.07,2.91,5.9,4.84,6.51a25.45,25.45,0,0,0,5.24.17l-.06-4.84s0-3.66,1.63-5.4,5.34-1.91,5.34-1.91,10.88.26,12.73-.09a5.53,5.53,0,0,0,3.2-2,6.2,6.2,0,0,0,1.23-2.59c.46-3.07,0-12.41,0-12.41s.12-2.73-3.92-4.28a23.34,23.34,0,0,0-8-1.09,20.35,20.35,0,0,0-7.65,1.41c-2.63,1.22-2.75,3.12-2.75,3.12v6Z"/><path class="cls-51" d="M1319.52,231.41v-1.52h16.83a5.76,5.76,0,0,0,4.16-2.41,12.87,12.87,0,0,0,1.49-2.81,12.4,12.4,0,0,0,1-4.09c0-1,.38-1.93-.41-6.62-.52-3.07-2.9-5.91-4.84-6.51a24.82,24.82,0,0,0-5.23-.18l0,4.84s-.06,3.66-1.63,5.4-5.35,1.91-5.35,1.91-10.87-.27-12.73.08a5.56,5.56,0,0,0-3.19,2,6.25,6.25,0,0,0-1.24,2.59c-.46,3.07,0,12.41,0,12.41s-.12,2.73,3.92,4.28a23.2,23.2,0,0,0,8,1.1,20.35,20.35,0,0,0,7.65-1.41c2.63-1.22,2.76-3.12,2.76-3.12v-6Z"/><circle class="cls-6" cx="1325.99" cy="236.31" r="2.03"/><circle class="cls-6" cx="1313.01" cy="200.83" r="2.03"/><path class="cls-52" d="M1112.05,223.86s-5.57-.2-6.56-5.71l2.34-1s-.56,3.93,4.33,4.46l-.11,2.28"/><path class="cls-52" d="M1147.16,223.86s5.57-.2,6.56-5.71l-2.34-1s.57,3.93-4.33,4.46l.11,2.28"/><path class="cls-52" d="M1129.5,215.87a51.19,51.19,0,0,0-13.8,1.69v8.94a51.19,51.19,0,0,0,13.8,1.69,47.46,47.46,0,0,0,15.26-2.17v-8a47.46,47.46,0,0,0-15.26-2.17"/><path class="cls-52" d="M1145,224a2.65,2.65,0,0,1,0-1.51c.23-.94.91-1.47,1.5-1.17a1.15,1.15,0,0,1,.38.35h0a4,4,0,0,1,.13,4.7c0,.15-3.1,3.73-3.81,3.84-.47.08.6-3.65,1.82-6.21"/><path class="cls-52" d="M1115.33,223.54a2.14,2.14,0,0,0,.17-1.48c-.21-1-1-1.67-1.69-1.51a1,1,0,0,0-.47.25h0s-2.29,1.7-.49,4.62c0,.16,3.4,4.42,4.23,4.7.54.19-.46-3.75-1.72-6.57"/><path class="cls-53" d="M1112.13,223.78h0s0,0,0,0"/><path class="cls-54" d="M1148.48,220.73c0-.12-.07-.24-.11-.37l1.25-1.8a.7.7,0,0,0,.07-.63.65.65,0,0,0-.48-.4l-2.11-.36c-.08-.16-.16-.33-.25-.49l.89-2a.69.69,0,0,0,0-.64.61.61,0,0,0-.54-.29l-2.14.08c-.11-.14-.22-.29-.34-.43l.49-2.17a.67.67,0,0,0-.16-.61.62.62,0,0,0-.59-.17l-2.08.51-.41-.35.07-2.23a.64.64,0,0,0-.28-.57.61.61,0,0,0-.6,0l-1.94.92-.48-.26-.34-2.2a.64.64,0,0,0-.38-.49.59.59,0,0,0-.6.07l-1.73,1.3-.52-.16-.75-2.09a.61.61,0,0,0-1-.21l-1.46,1.63-.53-.06-1.12-1.89a.62.62,0,0,0-1.07,0l-1.12,1.89-.53.06-1.46-1.63a.61.61,0,0,0-1,.21l-.75,2.09-.51.16-1.74-1.3a.59.59,0,0,0-.6-.07.64.64,0,0,0-.38.49l-.34,2.2-.48.26-1.94-.92a.61.61,0,0,0-.6,0,.67.67,0,0,0-.28.57l.07,2.23-.41.35-2.08-.51a.62.62,0,0,0-.59.17.67.67,0,0,0-.16.61l.49,2.17c-.12.14-.23.29-.34.43l-2.14-.08a.64.64,0,0,0-.54.29.69.69,0,0,0,0,.64l.89,2-.26.49-2.1.36a.63.63,0,0,0-.48.4.7.7,0,0,0,.07.63l1.25,1.8,0,.1-.69.73,1.85,2.59s17.66,8.15,34,.14c1.87-.33,2.31-3.19,2.31-3.19"/><path class="cls-9" d="M1135.27,220.44c0,.8-.47,1.45-1,1.45s-1.06-.65-1.06-1.45.47-1.46,1.06-1.46,1,.65,1,1.46"/><ellipse cx="1125.25" cy="221.07" rx="2.2" ry="2.72"/><rect class="cls-55" x="1108.17" y="203.97" width="43.03" height="31.74"/><path class="cls-9" d="M1126,220.44c0,.83-.49,1.51-1.1,1.51s-1.1-.68-1.1-1.51.5-1.52,1.1-1.52,1.1.68,1.1,1.52"/><ellipse cx="1134.59" cy="221.07" rx="2.2" ry="2.72"/><path class="cls-9" d="M1135.38,220.44c0,.83-.5,1.51-1.1,1.51s-1.1-.68-1.1-1.51.49-1.52,1.1-1.52,1.1.68,1.1,1.52"/><path class="cls-54" d="M1112.7,224.24c.44-.51,1.53-1.12,1.44-1.88a2.37,2.37,0,0,0-2.52-2.22,2,2,0,0,0-.85.29l0,0s-4.21,2.07-1.81,6.2c0,.21,4.78,6.32,6.12,6.78.87.31-.81-5.22-2.33-9.15"/><path class="cls-54" d="M1146.87,224.05c-.51-.43-1.87-.83-1.9-1.59a2.37,2.37,0,0,1,2.16-2.57,2.23,2.23,0,0,1,.89.16l0,0s4.47,1.42,2.71,5.86c0,.21-3.8,7-5,7.62-.82.43.22-5.34,1.14-9.46"/><rect class="cls-55" x="1108.17" y="203.99" width="43.02" height="31.73"/><rect class="cls-55" x="1108.17" y="203.97" width="43.03" height="31.74"/><path class="cls-54" d="M1105.74,214.43s-1-2-2.67-4.6c-1.75.86-2.62,3.22-2,5.59.72,2.62,3,4.27,5.16,3.68s3.26-3.19,2.53-5.81a5.62,5.62,0,0,0-1.74-2.8,17.23,17.23,0,0,1-1.32,3.94"/><rect class="cls-55" x="1108.17" y="203.99" width="43.02" height="31.73"/><path class="cls-54" d="M1153.48,214.43s1-2,2.67-4.6c1.74.86,2.61,3.22,2,5.59-.73,2.62-3,4.27-5.16,3.68s-3.26-3.19-2.54-5.81a5.64,5.64,0,0,1,1.75-2.8,16.7,16.7,0,0,0,1.32,3.94"/><path d="M1132.42,224.44a2.33,2.33,0,1,1-4.65.16Z"/><path class="cls-56" d="M1555.16,404.68,1541.08,391l1.13-2.92,19.66-.61-1.21,3.11-15.54.31,11.25,10.72Z"/><path class="cls-56" d="M1575.4,387.75l-17.29,22.63-2.52-1,17.29-22.63Z"/><path class="cls-56" d="M1588.64,409.46l-19.66.6,1.21-3.11,15.54-.31-11.25-10.72,1.21-3.11,14.09,13.72Z"/><path class="cls-57" d="M971.26,259.73l-1.36.77a17,17,0,0,1-3.77,1.63,5.5,5.5,0,0,1-3.65-.39,8.55,8.55,0,0,1-3.35-2.7,51.16,51.16,0,0,1-3.61-5.71,50.36,50.36,0,0,0-3.5-5.57,6.87,6.87,0,0,0-3.15-2.35,5.16,5.16,0,0,0-4.23.64l-2.28-4a5.13,5.13,0,0,0,2.73-3.29,6.92,6.92,0,0,0-.39-3.91,50.15,50.15,0,0,0-3-5.88,52.32,52.32,0,0,1-3-6,8.6,8.6,0,0,1-.58-4.26,5.42,5.42,0,0,1,1.55-3.33,16.64,16.64,0,0,1,3.34-2.39l1.36-.77,2.19,3.86-.77.44c-1.72,1-2.52,2-2.39,3.14s1.32,3.69,3.58,7.69q3,5.37,3,8.65a8.26,8.26,0,0,1-2.38,5.79,8.13,8.13,0,0,1,6.18.92q2.81,1.68,5.84,7.06,3.39,6,4.74,7t3.93-.42l.77-.43Z"/><path class="cls-57" d="M946.8,210.78l1.36-.77a16.51,16.51,0,0,1,3.77-1.63,5.41,5.41,0,0,1,3.66.39,8.6,8.6,0,0,1,3.35,2.7,52,52,0,0,1,3.6,5.7,49.66,49.66,0,0,0,3.51,5.57,6.92,6.92,0,0,0,3.14,2.36,5.19,5.19,0,0,0,4.23-.64l2.28,4a5.2,5.2,0,0,0-2.73,3.3,6.93,6.93,0,0,0,.4,3.91,49,49,0,0,0,3,5.87,50.69,50.69,0,0,1,3,6,8.54,8.54,0,0,1,.58,4.27,5.37,5.37,0,0,1-1.55,3.33,16.75,16.75,0,0,1-3.34,2.39l-1.36.77-2.18-3.87.76-.43c1.72-1,2.52-2,2.39-3.15s-1.31-3.69-3.57-7.68q-3-5.39-3-8.65a8.16,8.16,0,0,1,2.4-5.77,8.28,8.28,0,0,1-6.19-.94q-2.82-1.68-5.85-7.06c-2.26-4-3.84-6.34-4.74-7s-2.21-.55-3.93.43l-.77.43Z"/><line class="cls-58" x1="1207.06" y1="667.88" x2="1216.06" y2="704.83"/><line class="cls-58" x1="1229.06" y1="677.72" x2="1193.25" y2="694.32"/><path class="cls-59" d="M1235.58,201.53a84.8,84.8,0,0,1,1,8.84,8.75,8.75,0,0,1-1.54,5.17c-.25.88-1,0-1.51,0-1.31,0-1.79-1.41-2.49-2.27s-.2-1.66.27-2.35c.5-.36.7-1.17,1.43-1.17s.63-1,.53-1.53c.48-.74.19-1.83.65-2.64.85-.37.6-1.69.9-2.43.23-.53,0-1.53.66-1.76,0,0,.09,0,.08.12m-.81-30.13c-1.11-.13-1.94.62-2.87,1.05a23.76,23.76,0,0,1-2.34.63c-.58,1.17-1.9,1.87-2.62,3a11.69,11.69,0,0,1-3.92,5.54c-2.6,1.34-3.92,4.28-4.77,7-.3.63-.25,1.54-.57,2.07-1,.29-.48-1.06-.59-1.7-.16-1,.69-1.59.75-2.52a3.89,3.89,0,0,0,.42-2.17c-.12-1.68.39-3.72-.8-5.1-.7-.41-.48-1.27-.74-1.94a8.5,8.5,0,0,0-2.61-2.35c-.85-.08-1.62-1.17-2.49-.67-.54.64-1.54.62-1.85,1.47-.2,1.05-1.39.77-2.16,1-1,.39-2.26,0-3.07.79s-2.13,1.93-1.73,3.26c.92,1.82,3.32.9,4.62,2a35.7,35.7,0,0,1-1.42,3.59,21.4,21.4,0,0,0-.09,4.8c.24,1.6-.17,3.65,1.17,4.78.76.28.72,1.17,1,1.83s.86-.24,1.09.4c.68.37.07,1.17.45,1.64a3.21,3.21,0,0,1,1.65.88,14.13,14.13,0,0,1,2,1.7c.47,1,1.06-.94,1.58-.22a1.17,1.17,0,0,0,1.53.64.34.34,0,0,0,.12-.06,6,6,0,0,0,2.63-1.13c.51,1.79.12,3.74.34,5.59a24.94,24.94,0,0,1,.59,4.12,19.71,19.71,0,0,1,.61,4.18,14.94,14.94,0,0,1-1.43,8.55,2.06,2.06,0,0,1-1.63,1.64c-.59.27-1.81.75-1.4,1.6,1.36,1.17,3.52,1,5.08.44,1-.5.14-1.76.67-2.52.69-2.67.35-5.54,1.17-8.21a7.88,7.88,0,0,0,.7-4.33c.16-.9-.22-2,.37-2.73a3.81,3.81,0,0,1,1-2.47,30.51,30.51,0,0,0,.29-4.16,6.35,6.35,0,0,1,2.56-.26c0,.77-.55,1.66-.39,2.53a4.06,4.06,0,0,1-.52,2.83c-.37,1.53-.61,3.4.34,4.69,1.57,1.73,3.62,2.95,5.11,4.79a1.08,1.08,0,0,1,.17,1.52.94.94,0,0,1-.1.1,3.11,3.11,0,0,1-2,2.12c-.62.25-1.62,1.18-.89,1.82a7.77,7.77,0,0,0,4.4-.29c1-.35.61-1.52,1-2.24a21.1,21.1,0,0,1,1.43,2.19c.6.89,1.63.15,2.35-.13a7.49,7.49,0,0,0-.76-3.78c-.33-.77-1.61-.79-1.55-1.74.63-2.35,2.2-4.18,3.45-6.16,1-1,.26-2.46.31-3.7a14,14,0,0,1,2.2-9.1,34.53,34.53,0,0,0,1.39,4.4,12.71,12.71,0,0,0,2.19,4.64c.48,1.67.35,3.52.66,5.25a21.76,21.76,0,0,1-.49,8.94c.08,1.06-.92,1.85-.83,2.89.28,1,1.41.19,2,.6a2.24,2.24,0,0,0,2.68-1.17,12.57,12.57,0,0,1-.49-2.5,15.52,15.52,0,0,1-.52-7.65c.09-1.38.93-3.07-.15-4.26-.3-1.27.21-2.64-.1-3.94a27.08,27.08,0,0,1-.24-10.15c.18-.47,0-1.34.5-1.59a3.84,3.84,0,0,1,.63,2.53,7.7,7.7,0,0,1,.17,4.28c-.86,1.09-.33,2.57-.22,3.8.14.87,1,.25,1.17-.29a24.72,24.72,0,0,0,1.9-4.61c.54-.73,0-1.58,0-2.35.83-.1.52-1,.07-1.45-.45-1.5-.34-3.24-1.35-4.52a21.69,21.69,0,0,1-3.92-5.61c-1.07-3.36-4.12-5.6-5.15-9a7.31,7.31,0,0,0-3.27-4.77,15,15,0,0,0-2.35-.86,12.08,12.08,0,0,1-2.07.26"/><polyline class="cls-60" points="1560.8 124.63 1557.57 129.69 1552.51 126.47"/><line class="cls-61" x1="1546.28" y1="122.5" x2="1536.92" y2="116.55"/><polyline class="cls-60" points="1533.8 114.56 1528.74 111.34 1531.96 106.28"/><line class="cls-61" x1="1535.93" y1="100.04" x2="1541.89" y2="90.69"/><polyline class="cls-60" points="1543.87 87.57 1547.09 82.51 1552.15 85.73"/><line class="cls-61" x1="1558.39" y1="89.7" x2="1567.74" y2="95.65"/><polyline class="cls-60" points="1570.86 97.64 1575.92 100.86 1572.7 105.92"/><line class="cls-61" x1="1568.73" y1="112.16" x2="1562.78" y2="121.51"/><path class="cls-62" d="M1395.44,460.68c0-7,5.67-10.48,12.66-10.48s12.66,3.49,12.66,10.48Z"/><path class="cls-63" d="M1399.37,456.25c0-3.18,4.31-4.54,8.73-4.54s8.7,1.31,8.7,4.48Z"/><path class="cls-64" d="M1232.9,202.71a84.8,84.8,0,0,1,1,8.84,8.68,8.68,0,0,1-1.54,5.17c-.25.88-1,0-1.51,0-1.3,0-1.79-1.41-2.49-2.28s-.2-1.65.27-2.34c.5-.37.7-1.18,1.43-1.18s.63-1,.53-1.52c.48-.74.19-1.83.66-2.64.84-.38.59-1.69.89-2.43.23-.53,0-1.54.67-1.76,0,0,.08,0,.07.12m-.81-30.13c-1.11-.13-1.94.62-2.87,1.05a23,23,0,0,1-2.34.63c-.58,1.17-1.9,1.86-2.62,3a11.61,11.61,0,0,1-3.92,5.53c-2.6,1.35-3.91,4.29-4.77,7-.29.63-.25,1.54-.56,2.07-1,.29-.49-1.06-.6-1.7-.16-1,.69-1.59.75-2.52a3.92,3.92,0,0,0,.42-2.18c-.12-1.67.39-3.71-.8-5.09-.7-.41-.48-1.28-.74-1.94a8.5,8.5,0,0,0-2.61-2.35c-.85-.08-1.62-1.17-2.49-.67-.54.63-1.54.62-1.85,1.47-.2,1-1.39.77-2.16,1-1,.39-2.25,0-3.06.79s-2.14,1.93-1.74,3.26c.93,1.82,3.32.9,4.62,2a35.7,35.7,0,0,1-1.42,3.59,21.4,21.4,0,0,0-.09,4.8c.25,1.6-.17,3.65,1.17,4.78.76.28.72,1.17,1,1.83s.86-.24,1.09.4c.68.37.07,1.17.45,1.64a3.21,3.21,0,0,1,1.65.88,14.13,14.13,0,0,1,2,1.7c.47,1,1.07-.94,1.58-.22a1.17,1.17,0,0,0,1.53.64.38.38,0,0,0,.13-.06,5.93,5.93,0,0,0,2.62-1.14c.51,1.8.12,3.75.34,5.6a23.78,23.78,0,0,1,.59,4.12,19.71,19.71,0,0,1,.61,4.18,15,15,0,0,1-1.43,8.55,2.06,2.06,0,0,1-1.63,1.64c-.59.27-1.81.75-1.4,1.6,1.36,1.17,3.52,1,5.08.44,1-.5.14-1.76.67-2.52.69-2.68.35-5.54,1.17-8.21a7.88,7.88,0,0,0,.7-4.33c.16-.91-.21-2,.37-2.74a3.8,3.8,0,0,1,1-2.46,32.2,32.2,0,0,0,.3-4.16,6.28,6.28,0,0,1,2.55-.26c0,.77-.55,1.66-.38,2.53a4.12,4.12,0,0,1-.53,2.83c-.37,1.52-.61,3.4.34,4.69,1.57,1.73,3.62,3,5.11,4.79a1.08,1.08,0,0,1,.17,1.52l-.1.1a3.11,3.11,0,0,1-2,2.12c-.62.25-1.62,1.17-.89,1.82a7.77,7.77,0,0,0,4.4-.29c1-.36.61-1.52,1-2.24a21.1,21.1,0,0,1,1.43,2.19c.6.89,1.63.15,2.35-.13a7.49,7.49,0,0,0-.76-3.78c-.33-.77-1.61-.8-1.55-1.75.63-2.34,2.21-4.17,3.45-6.15,1-1,.26-2.46.32-3.7a14,14,0,0,1,2.19-9.1,33.05,33.05,0,0,0,1.4,4.4,12.84,12.84,0,0,0,2.18,4.64c.48,1.67.35,3.52.67,5.25a21.87,21.87,0,0,1-.5,8.93c.09,1.07-.92,1.86-.83,2.9.28,1,1.41.19,2,.6a2.24,2.24,0,0,0,2.68-1.17,13.32,13.32,0,0,1-.49-2.5,15.52,15.52,0,0,1-.52-7.65c.09-1.38.93-3.07-.15-4.26-.29-1.27.21-2.64-.1-3.94a27.08,27.08,0,0,1-.24-10.15c.19-.47,0-1.34.5-1.59a3.84,3.84,0,0,1,.64,2.53,7.79,7.79,0,0,1,.16,4.28c-.86,1.09-.33,2.57-.22,3.8.14.87,1,.25,1.17-.29a24.06,24.06,0,0,0,1.9-4.61c.54-.73,0-1.58,0-2.35.83-.1.52-1,.07-1.45-.44-1.5-.34-3.24-1.35-4.52a21.69,21.69,0,0,1-3.92-5.61c-1.06-3.36-4.11-5.6-5.15-9a7.28,7.28,0,0,0-3.27-4.77,15,15,0,0,0-2.35-.86,13,13,0,0,1-2.07.26"/><rect class="cls-65" x="1086.9" y="461.41" width="409.18" height="34.03" rx="9.26"/><rect class="cls-66" x="1107.35" y="495.98" width="22.2" height="10.33"/><rect class="cls-66" x="1452.38" y="495.98" width="22.35" height="10.33"/><rect class="cls-66" x="1130.69" y="495.98" width="320.55" height="10.33"/><rect class="cls-2" x="1418.72" y="184.39" width="2.58" height="49.07"/><path class="cls-9" d="M1421.18,184.51v48.83h-2.33V184.51h2.33m.25-.25h-2.83v49.33h2.83V184.26Z"/><rect class="cls-2" x="1423.33" y="198.22" width="2.58" height="35.24"/><path class="cls-9" d="M1425.79,198.35v35h-2.34v-35h2.34m.25-.25h-2.84v35.49H1426V198.1Z"/><rect class="cls-9" x="1405.96" y="181.71" width="2.95" height="50.27"/><rect class="cls-18" x="1456.37" y="192.1" width="13.8" height="51.21" transform="translate(147.6 894.15) rotate(-35.67)"/><rect class="cls-2" x="1456.73" y="204.34" width="13.55" height="27.42" transform="translate(147.47 894.4) rotate(-35.67)"/><path class="cls-9" d="M1461,203.13l15.84,22.08L1466,233l-15.85-22.07,10.81-7.76m0-.34-11.2,8L1466,233.31l11.21-8.05L1461,202.79Z"/><rect class="cls-67" x="1206.85" y="322.39" width="28.91" height="3.21"/><rect class="cls-67" x="1206.85" y="368.31" width="28.91" height="3.21"/><rect class="cls-8" x="1223.85" y="345.35" width="57.78" height="3.21"/><rect class="cls-68" x="1223.85" y="356.83" width="134.13" height="3.21"/><rect class="cls-57" x="1223.85" y="391.27" width="53.76" height="3.21"/><rect class="cls-8" x="1284.71" y="391.27" width="81.97" height="3.21"/><rect class="cls-9" x="1223.71" y="403.08" width="119.15" height="3.21"/><rect class="cls-9" x="1288.2" y="345.35" width="28.91" height="3.21"/><rect class="cls-9" x="1223.85" y="379.79" width="28.91" height="3.21"/><rect class="cls-9" x="1260.14" y="379.79" width="16.02" height="3.21"/><rect class="cls-45" x="1283.67" y="379.79" width="60.14" height="3.21"/><rect class="cls-9" x="1223.71" y="333.87" width="152.6" height="3.21"/></svg>