<svg id="Слой_1" data-name="Слой 1" xmlns="http://www.w3.org/2000/svg" viewBox="0 0 1683.03 770"><defs><style>.cls-1,.cls-26{fill:#f2f2f2;}.cls-1{opacity:0.69;}.cls-2{opacity:0.41;}.cls-3,.cls-47{fill:#667fb7;}.cls-4{fill:#fcfcfc;}.cls-5{fill:#313333;}.cls-16,.cls-17,.cls-21,.cls-22,.cls-23,.cls-24,.cls-27,.cls-28,.cls-29,.cls-31,.cls-32,.cls-33,.cls-36,.cls-38,.cls-40,.cls-41,.cls-46,.cls-49,.cls-5,.cls-50,.cls-6{stroke:#fff;}.cls-10,.cls-16,.cls-17,.cls-21,.cls-22,.cls-23,.cls-24,.cls-25,.cls-26,.cls-27,.cls-28,.cls-29,.cls-33,.cls-34,.cls-36,.cls-38,.cls-40,.cls-41,.cls-46,.cls-47,.cls-49,.cls-5,.cls-50,.cls-55,.cls-56,.cls-57,.cls-59,.cls-6,.cls-60{stroke-miterlimit:10;}.cls-38,.cls-6,.cls-9{fill:#fff;}.cls-7{opacity:0.32;}.cls-24,.cls-8{fill:#f2a0a0;}.cls-10,.cls-25,.cls-34{fill:#a3b4b5;}.cls-10,.cls-25,.cls-26,.cls-34{stroke:#fdfdff;}.cls-10{opacity:0.25;}.cls-11,.cls-18{fill:#7866f2;}.cls-11{opacity:0.42;}.cls-12{fill:#45689b;}.cls-13{fill:#272822;}.cls-14{fill:#4242bc;}.cls-15{fill:#a1d6d1;}.cls-16,.cls-52{fill:#f2e750;}.cls-16,.cls-17,.cls-24,.cls-32,.cls-33,.cls-46,.cls-49{stroke-width:0.5px;}.cls-17{fill:#d0d8d9;}.cls-19{fill:#9992f4;}.cls-20{fill:#d8a7dc;}.cls-21{fill:#85edcf;}.cls-22{fill:#f9eb70;}.cls-22,.cls-31{stroke-width:0.75px;}.cls-23{fill:#f7b5ef;}.cls-23,.cls-38{stroke-width:0.25px;}.cls-25,.cls-26{stroke-width:3px;}.cls-27{fill:#3c8469;}.cls-28,.cls-30{fill:#559378;}.cls-29{fill:#69b797;}.cls-31,.cls-32,.cls-33,.cls-39,.cls-45,.cls-55,.cls-56,.cls-57,.cls-59,.cls-60,.cls-62,.cls-63,.cls-64{fill:none;}.cls-31,.cls-32,.cls-39,.cls-61,.cls-62,.cls-63,.cls-64{stroke-linecap:round;}.cls-31,.cls-32,.cls-39,.cls-61,.cls-63,.cls-64{stroke-linejoin:round;}.cls-35{fill:#9aa5a5;}.cls-36{fill:#9177f2;}.cls-37{fill:#020202;}.cls-39{stroke:#4c4c4c;opacity:0.62;}.cls-40{fill:#347ab4;}.cls-41{fill:#ffca1d;}.cls-42{fill:#8f1f1d;}.cls-43{fill:#e23a26;}.cls-44{fill:#e33b26;}.cls-46,.cls-49{fill:#246377;}.cls-46{opacity:0.13;}.cls-47{stroke:#fcfcfc;}.cls-48{fill:#8da2c6;opacity:0.47;}.cls-50{fill:#b1acea;}.cls-51{fill:#71bbc6;}.cls-53{fill:#6a7bd9;}.cls-54{fill:#fffabd;}.cls-55{stroke:#9177f2;}.cls-55,.cls-56{stroke-width:8px;}.cls-56,.cls-62{stroke:#71bbc6;}.cls-57{stroke:#f2e750;stroke-width:10px;}.cls-58{fill:#d8bfd9;}.cls-59,.cls-60{stroke:#d8a7dc;stroke-width:6px;}.cls-59{stroke-dasharray:4.08 4.08;}.cls-60{stroke-dasharray:3.95 3.95;}.cls-61{fill:#6d8ef2;stroke:#6d8ef2;stroke-width:2px;}.cls-62{stroke-linejoin:bevel;stroke-width:7px;stroke-dasharray:13;}.cls-63,.cls-64{stroke:#8b83ea;stroke-width:5px;}.cls-64{stroke-dasharray:8.57 8.57;}.cls-65{fill:#a09ee5;}.cls-66{fill:#bde5dd;}</style></defs><title>main-img</title><circle class="cls-1" cx="854.9" cy="379.15" r="619.74"/><g class="cls-2"><path class="cls-3" d="M770,607.67a5.4,5.4,0,0,1-5.4-5.4v-8.55a8,8,0,0,1,8-8H940.77a8,8,0,0,1,8,8v8.55a5.4,5.4,0,0,1-5.4,5.4Z"/><path class="cls-4" d="M940.77,586.25a7.48,7.48,0,0,1,7.47,7.47v8.55a4.91,4.91,0,0,1-4.9,4.9H770a4.91,4.91,0,0,1-4.9-4.9v-8.55a7.48,7.48,0,0,1,7.47-7.47H940.77m0-1H772.53a8.47,8.47,0,0,0-8.47,8.47v8.55a5.9,5.9,0,0,0,5.9,5.9H943.34a5.9,5.9,0,0,0,5.9-5.9v-8.55a8.48,8.48,0,0,0-8.47-8.47Z"/></g><circle class="cls-5" cx="615.81" cy="574.18" r="15.97"/><circle class="cls-6" cx="616.59" cy="574.18" r="10.63"/><g class="cls-7"><path class="cls-8" d="M549.29,437.07a12,12,0,0,1-12-12v-27h40l0,27a12,12,0,0,1-12,12Z"/><path class="cls-9" d="M576.89,398.65v26.46a11.48,11.48,0,0,1-11.46,11.46H549.29a11.47,11.47,0,0,1-11.46-11.46V398.65h39.06m.44-1H536.92a.09.09,0,0,0-.09.09v27.37a12.46,12.46,0,0,0,12.46,12.46h16.14a12.46,12.46,0,0,0,12.46-12.46v-26.9a.57.57,0,0,0-.56-.56Z"/></g><path class="cls-10" d="M1096.75,546.23H1132a0,0,0,0,1,0,0v50.3a9.81,9.81,0,0,1-9.81,9.81h-15.59a9.81,9.81,0,0,1-9.81-9.81v-50.3A0,0,0,0,1,1096.75,546.23Z"/><g class="cls-2"><rect class="cls-3" x="676.71" y="352.36" width="363.72" height="208.47" rx="16.33"/><path class="cls-4" d="M1024.1,352.86a15.85,15.85,0,0,1,15.83,15.83V544.5a15.85,15.85,0,0,1-15.83,15.83H693a15.85,15.85,0,0,1-15.83-15.83V368.69A15.85,15.85,0,0,1,693,352.86H1024.1m0-1H693a16.83,16.83,0,0,0-16.83,16.83V544.5A16.83,16.83,0,0,0,693,561.33H1024.1a16.84,16.84,0,0,0,16.83-16.83V368.69a16.84,16.84,0,0,0-16.83-16.83Z"/></g><rect class="cls-11" x="1016.13" y="267.79" width="152.5" height="15.12" rx="4.59"/><rect class="cls-12" x="825.63" y="554.34" width="66.12" height="36.54"/><path class="cls-4" d="M891.25,554.84v35.55H826.13V554.84h65.12m1-1H825.13v37.55h67.12V553.84Z"/><rect class="cls-3" x="676.19" y="345.85" width="363.72" height="209.28" rx="16.33"/><path class="cls-4" d="M1023.59,346.36a15.85,15.85,0,0,1,15.83,15.83V538.8a15.85,15.85,0,0,1-15.83,15.83H692.53a15.85,15.85,0,0,1-15.84-15.83V362.19a15.85,15.85,0,0,1,15.84-15.83h331.06m0-1H692.53a16.83,16.83,0,0,0-16.84,16.83V538.8a16.83,16.83,0,0,0,16.84,16.83h331.06a16.83,16.83,0,0,0,16.83-16.83V362.19a16.83,16.83,0,0,0-16.83-16.83Z"/><rect class="cls-13" x="693.62" y="363.38" width="329.01" height="175.7" rx="5.81"/><path class="cls-9" d="M1016.82,363.88a5.31,5.31,0,0,1,5.31,5.3V533.27a5.31,5.31,0,0,1-5.31,5.3H699.42a5.31,5.31,0,0,1-5.3-5.3V369.18a5.31,5.31,0,0,1,5.3-5.3h317.4m0-1H699.42a6.3,6.3,0,0,0-6.3,6.3V533.27a6.3,6.3,0,0,0,6.3,6.3h317.4a6.31,6.31,0,0,0,6.31-6.3V369.18a6.31,6.31,0,0,0-6.31-6.3Z"/><polygon class="cls-14" points="1109.96 554.71 1106.27 555.4 1096.31 497.65 1099.99 496.96 1109.96 554.71"/><polygon class="cls-15" points="1120.32 553.37 1114 554.54 1106.54 510.38 1112.86 509.22 1120.32 553.37"/><rect class="cls-16" x="1023.19" y="140.92" width="19.16" height="121.66"/><rect class="cls-17" x="1043.86" y="152.38" width="26.01" height="110.21"/><rect class="cls-16" x="1071.33" y="137.43" width="16.47" height="125.15"/><polygon class="cls-18" points="1095.22 497.35 1100.61 496.35 1102.67 508.59 1097.29 509.59 1095.22 497.35"/><path class="cls-9" d="M1100.2,496.93l1.9,11.26-4.4.82-1.9-11.26,4.4-.82m.82-1.17-6.37,1.18,2.23,13.24,6.37-1.19L1101,495.76Z"/><polygon class="cls-19" points="1105.48 508.21 1113.23 506.78 1117.03 529.27 1109.28 530.7 1105.48 508.21"/><path class="cls-9" d="M1112.82,507.36l3.63,21.5-6.76,1.25-3.63-21.5,6.76-1.25m.82-1.16-8.73,1.61,4,23.47,8.73-1.61-4-23.47Z"/><polygon class="cls-20" points="1126.77 555.1 1129.22 555.75 1142.76 499.23 1140.31 498.58 1126.77 555.1"/><ellipse class="cls-21" cx="1142.36" cy="496.66" rx="9.7" ry="10.14"/><ellipse class="cls-22" cx="1142.36" cy="496.66" rx="6.52" ry="6.89"/><ellipse class="cls-23" cx="1142.36" cy="496.66" rx="2.62" ry="2.74"/><rect class="cls-24" x="1023.35" y="112.39" width="19" height="38.4"/><rect class="cls-3" x="1044.51" y="119.75" width="24.47" height="40.08"/><path class="cls-9" d="M1068.86,119.87V159.7h-24.22V119.87h24.22m.25-.25h-24.72V160h24.72V119.62Z"/><rect class="cls-24" x="1071.33" y="124.31" width="16.46" height="21.94"/><rect class="cls-24" x="1071.33" y="240.24" width="16.46" height="21.94"/><rect class="cls-25" x="684.43" y="115.23" width="131.37" height="159.42"/><rect class="cls-26" x="702.14" y="132.94" width="94.47" height="123.99"/><rect class="cls-25" x="826.87" y="163.4" width="136.21" height="122.59"/><rect class="cls-26" x="845.24" y="177.02" width="101.64" height="95.35"/><rect class="cls-25" x="533.1" y="163.4" width="137.31" height="122.59"/><rect class="cls-26" x="551.61" y="177.02" width="98.74" height="95.35"/><polygon class="cls-27" points="548.08 355.96 548.07 355.96 548.07 355.96 548.08 355.96"/><path class="cls-27" d="M527.86,360l0,.11a28.13,28.13,0,0,1,9.57-3.81C534.06,356.78,530.48,357.85,527.86,360Z"/><path class="cls-28" d="M549.41,358.75c-.42-.9-.83-1.75-1.23-2.57-6.7,0-14-.55-20,4.11,6-4.66,13.28-4.14,20-4.11l-.11-.22a45,45,0,0,0-10.59.29,28.13,28.13,0,0,0-9.57,3.81c.42,1.06,3.83,9.39,12.17,21.68,8.93,13.17,10,21.6,10,21.6l5.33-2.09C556.54,392.92,557.62,376.12,549.41,358.75Z"/><path class="cls-29" d="M537.48,356.93a30.06,30.06,0,0,1,10.59-.29c-3.09-6.19-6.3-10.13-17.32-9.75-12.76.44-17.33,13.24-18.66,21.6-.64,4,8.3-1.21,11.33-4.18a27.26,27.26,0,0,1,4.49-3.56l0-.12C530.48,358.54,534.06,357.46,537.48,356.93Z"/><path class="cls-29" d="M559.41,401.25c-2.6-1.78-9-7.64-11.33-34.14-.3-3.32-3.43-20.43,4.66-36.93.83-1.69,3-7.4,2.51-9.26-.77-2.92,13.46,17.25,14.15,19.71,1.15,4.11,5,19,2,35.54-1.15,6.42-2.22,6.93-3.33,14.63-.92,6.32-.88,10.71-3.33,11.84C562.77,403.55,560.29,401.85,559.41,401.25Z"/><path class="cls-30" d="M558.62,398.88c-2.42-4.32-1.19-12.47,0-20.34.89-5.91,1.85-12,4.74-18,.54-1.11,8-8.52,8.18-7.15a82.43,82.43,0,0,1-3.09,32.88c-1.38,4.9-5.43,15-6.78,15C560,401.28,558.78,399.17,558.62,398.88Z"/><path class="cls-29" d="M564.07,399.86c-4.76-5-2.34-14.52,0-23.69,1.76-6.88,3.64-13.95,9.33-20.91,1.05-1.29,10.94-8.32,16.08-8.32.68,0,1.38,8.11.58,16.68-.54,5.72-2.63,13.08-6.66,21.6-2.71,5.71-10.67,17.42-13.33,17.42A8.83,8.83,0,0,1,564.07,399.86Z"/><path class="cls-31" d="M559.36,393.49c0-.68,1.36-34.23,1.36-34.23s0-15.06-1.36-21.22"/><path class="cls-32" d="M568.94,393.49a49.51,49.51,0,0,1,4.79-15.06c2-3.84,4.15-6.7,6.16-12.32a49.91,49.91,0,0,0,2.06-7.53"/><path class="cls-33" d="M553.19,393.49A35.29,35.29,0,0,0,547,377.06c-2.55-3.52-6.69-7.63-8.9-15.06-.34-1.13-.55-2.09-.68-2.74"/><path class="cls-3" d="M772,607.67a5.4,5.4,0,0,1-5.4-5.4v-5.1a7.94,7.94,0,0,1,7.93-7.93H940.81a7.94,7.94,0,0,1,7.93,7.93v5.1a5.4,5.4,0,0,1-5.4,5.4Z"/><path class="cls-4" d="M940.81,589.74a7.44,7.44,0,0,1,7.43,7.43v5.1a4.91,4.91,0,0,1-4.9,4.9H772a4.91,4.91,0,0,1-4.9-4.9v-5.1a7.43,7.43,0,0,1,7.43-7.43H940.81m0-1H774.56a8.42,8.42,0,0,0-8.43,8.43v5.1a5.9,5.9,0,0,0,5.9,5.9H943.34a5.9,5.9,0,0,0,5.9-5.9v-5.1a8.43,8.43,0,0,0-8.43-8.43Z"/><path class="cls-34" d="M1100.66,544.93h35.22a0,0,0,0,1,0,0v50.3a9.81,9.81,0,0,1-9.81,9.81h-15.59a9.81,9.81,0,0,1-9.81-9.81v-50.3A0,0,0,0,1,1100.66,544.93Z"/><path class="cls-35" d="M1100.75,545.72h12.45a0,0,0,0,1,0,0V605a0,0,0,0,1,0,0h-4.89a7.56,7.56,0,0,1-7.56-7.56V545.72A0,0,0,0,1,1100.75,545.72Z"/><rect class="cls-36" x="1015.48" y="263.88" width="156.41" height="14.31" rx="4.34"/><rect class="cls-11" x="512.39" y="437.63" width="97.85" height="9.7" rx="2.94"/><rect class="cls-36" x="511.14" y="435.13" width="100.36" height="9.18" rx="2.79"/><path class="cls-8" d="M551.89,435.51a12,12,0,0,1-12-12v-27h40l.06,27a12,12,0,0,1-12,12Z"/><path class="cls-9" d="M579.49,397.09v26.46A11.47,11.47,0,0,1,568,435H551.89a11.47,11.47,0,0,1-11.46-11.46V397.09h39.06m.44-1H539.52a.09.09,0,0,0-.09.09v27.37A12.46,12.46,0,0,0,551.89,436H568a12.46,12.46,0,0,0,12.46-12.46v-26.9a.56.56,0,0,0-.56-.56Z"/><rect class="cls-37" x="850.95" y="351.21" width="14.31" height="7.81" rx="3.9"/><path class="cls-5" d="M575.29,549.62h40.54a1.74,1.74,0,0,1,1.74,1.74V583a21.3,21.3,0,0,1-21.3,21.3h-1.41a21.3,21.3,0,0,1-21.3-21.3v-31.6a1.74,1.74,0,0,1,1.74-1.74Z"/><path class="cls-38" d="M561,401.67a4.63,4.63,0,0,1,.46,2,6.15,6.15,0,0,1-1.91,3.89,22.8,22.8,0,0,0-2.21,2.05,3.45,3.45,0,0,0-.84,1.3,3.72,3.72,0,0,0,.53,2.67,6.14,6.14,0,0,0,1.3,1.75,7.27,7.27,0,0,1-2.52-2.36,3.37,3.37,0,0,1-.76-2.44c.11-.54.46-.9,1.14-1.6s1.22-1,2.6-2.14a6.16,6.16,0,0,0,1.52-1.52,5.32,5.32,0,0,0,.61-2A8.44,8.44,0,0,0,561,401.67Z"/><path class="cls-38" d="M563.82,407.09a13.37,13.37,0,0,0-1.37.76,8.32,8.32,0,0,0-1.68,1.37,3.1,3.1,0,0,0-.76,1.07,1.5,1.5,0,0,0-.16.76,2,2,0,0,0,.46.92c.41.58.59.64.76,1.07a2.39,2.39,0,0,1,.16.61,2.16,2.16,0,0,1-.16,1.06,2.65,2.65,0,0,1-.76,1.07,3.73,3.73,0,0,1-.91.61,4.29,4.29,0,0,0,.3-.46A1.86,1.86,0,0,0,560,415a1.76,1.76,0,0,0-.31-.92,6.82,6.82,0,0,0-.46-.61,5.08,5.08,0,0,1-.45-.76,2.9,2.9,0,0,1-.31-.76,2.69,2.69,0,0,1,0-1.07,2.82,2.82,0,0,1,.31-.91,3.18,3.18,0,0,1,.61-.77,6.17,6.17,0,0,1,.91-.76,8.43,8.43,0,0,1,1.07-.61,9.86,9.86,0,0,1,1.07-.46A7.58,7.58,0,0,1,563.82,407.09Z"/><path class="cls-38" d="M564.28,415.78a2.7,2.7,0,0,1,.76-.3,2.28,2.28,0,0,1,1.37,0,1.85,1.85,0,0,1,1.07.91,1.75,1.75,0,0,1,.15,1.07,2.4,2.4,0,0,1-.76,1.22,4.57,4.57,0,0,1-1.22.91,7.25,7.25,0,0,1-1.22.46,5.87,5.87,0,0,1-.61.15l.76-.45a7.44,7.44,0,0,0,1.07-.77,2.59,2.59,0,0,0,.76-.91,1.66,1.66,0,0,0,.15-.92,1.74,1.74,0,0,0-.3-.76,1.43,1.43,0,0,0-.46-.46,1.64,1.64,0,0,0-.61-.15A4.4,4.4,0,0,0,564.28,415.78Z"/><path class="cls-38" d="M563.67,416.54a4.38,4.38,0,0,1-1.07.61,6.92,6.92,0,0,1-1.37.31c-.22,0-.57.09-1.07.15s-.89.09-1.68.15c-1.28.11-1.17.13-1.68.16a19.59,19.59,0,0,1-2,0,11.16,11.16,0,0,1-2.59-.31,3.36,3.36,0,0,1-.63-.18.88.88,0,0,1-.27-.25.31.31,0,0,1,0-.28.68.68,0,0,1,.18-.2,1.11,1.11,0,0,1,.3-.16l.46-.15.46-.15.45-.15.46-.16.61-.15c.54-.11.92-.15.92-.15l-.46.15a8.76,8.76,0,0,0-1.07.46l-.46.3-.17.15c-.16.15-.08.28,0,.32a3.15,3.15,0,0,0,.6.14,8.2,8.2,0,0,0,1.53.16c1.58,0,1,0,2,0s1.81-.06,2.74-.16c.49,0,1.2-.12,2.14-.3Z"/><path class="cls-38" d="M561.84,419.14l.91.61a5.28,5.28,0,0,1-1.68.45,25.5,25.5,0,0,1-3.2.31,13,13,0,0,1-1.93,0l-1-.11-.61-.16a4.4,4.4,0,0,1-.76-.3c-.22-.13-.45-.26-.46-.46a.44.44,0,0,1,.16-.3,2.19,2.19,0,0,1,1.06-.61.68.68,0,0,0-.15.3.62.62,0,0,0,0,.31c.08.2.38.26.61.3a9.75,9.75,0,0,0,1.68.15c.54,0,.49,0,1.07,0a10.19,10.19,0,0,0,1.38,0c.62,0,.5-.05,1.21-.1a6.06,6.06,0,0,0,1.22-.15A3.84,3.84,0,0,0,561.84,419.14Z"/><path class="cls-38" d="M561.07,421.73l1.22.76a10.5,10.5,0,0,1-2.44.61,20.23,20.23,0,0,1-2.88.12,11.11,11.11,0,0,1-1.69-.27,4.85,4.85,0,0,1-1.07-.46.52.52,0,0,1-.3-.3.39.39,0,0,1,.13-.41,1,1,0,0,1,.32-.2,1.72,1.72,0,0,1,.49-.17.42.42,0,0,0,0,.17c0,.18.38.28.46.3a10.27,10.27,0,0,0,2.19.24h1c.75,0,1.42-.14,1.55-.16A5.86,5.86,0,0,0,561.07,421.73Z"/><path class="cls-38" d="M566.26,423.34a.38.38,0,0,1,.21.43c0,.25-.1.29-.36.52a3.19,3.19,0,0,1-1.53.64c-.67.15-1,.23-1.52.31s-1,.14-2.7.3c-1,.09-1.51.08-1.86.1-1.06.05-1.83,0-2.4,0l-2.35-.12a16.89,16.89,0,0,1-2.38-.18,7.15,7.15,0,0,1-1.73-.43c-.32-.19-.42-.26-.41-.39a.63.63,0,0,1,.3-.44,4.4,4.4,0,0,1,.87-.39,11.6,11.6,0,0,1,1.37-.46,4.41,4.41,0,0,1,.76-.15,1.52,1.52,0,0,1,.34,0l-.64.15a3.66,3.66,0,0,0-.84.32c-.1.05-.4.25-.42.26a.51.51,0,0,0-.2.34c0,.23.69.41.85.46a8,8,0,0,0,2,.3h5.19c1.49,0,1.51,0,2,0s.45-.05,1.83-.15a10.79,10.79,0,0,0,1.37-.15,11.21,11.21,0,0,0,1.12-.29c.31-.13.28-.1.68-.27s.37-.22.4-.35a.78.78,0,0,0,0-.3.49.49,0,0,0-.09-.17A1,1,0,0,0,566.26,423.34Z"/><path class="cls-38" d="M552.67,426.24a20,20,0,0,0,2,.22c.31,0,.49,0,1.07,0l2.44,0c1,0,1.77-.07,2.89-.16.91-.06,1.84-.15,2.9-.3a8,8,0,0,0,2-.46,4.49,4.49,0,0,0,1.22-.61,5.09,5.09,0,0,1,.46-.3,2.49,2.49,0,0,1-.3.61,2.57,2.57,0,0,1-1.07.76,15.63,15.63,0,0,1-4,.76c-.77.06-1.46.12-2.44.15-1.59.06-2.7,0-3.35,0a11.67,11.67,0,0,1-2.59-.3C553.33,426.46,552.67,426.24,552.67,426.24Z"/><path class="cls-39" d="M588.25,545.2c-2.92-4.74-5-10.24-3.5-15.49,1.58-5.55,6-7,9.22-13.1,2-3.94,3.32-9.42,2-17.15"/><path class="cls-39" d="M595.26,544.83c-3-4.85-3.09-8.35-2.58-10.7,1.09-5,5.47-6.78,8.3-14a27.23,27.23,0,0,0,1.66-6.64"/><path class="cls-39" d="M602.64,543.9c-2.45-3.7-2.47-6.17-2-7.74.74-2.63,3.14-4.08,4.24-8.48a14.78,14.78,0,0,0,.37-2"/><path class="cls-40" d="M895.93,206.58V209H869.75a9,9,0,0,0-6.48,3.76,19.44,19.44,0,0,0-2.31,4.37,19.68,19.68,0,0,0-1.51,6.37c-.06,1.61-.58,3,.66,10.31.81,4.77,4.52,9.19,7.54,10.13,1.94.61,8.14.27,8.14.27l-.09-7.54s.09-5.69,2.54-8.4,8.32-3,8.32-3,16.93.41,19.82-.15a8.55,8.55,0,0,0,5-3.09,9.69,9.69,0,0,0,1.93-4c.71-4.78,0-19.31,0-19.31s.18-4.26-6.11-6.67c-5.31-2-12.37-1.7-12.37-1.7s-6.91-.14-11.91,2.19c-4.1,1.91-4.3,4.86-4.3,4.86v9.3Z"/><path class="cls-41" d="M896,246.57v-2.36h26.19a9,9,0,0,0,6.48-3.76,19.92,19.92,0,0,0,2.31-4.37,19.59,19.59,0,0,0,1.51-6.37c.06-1.61.58-3-.65-10.31-.81-4.76-4.52-9.19-7.53-10.13-1.94-.61-8.15-.28-8.15-.28l.09,7.54s-.09,5.7-2.55,8.41-8.32,3-8.32,3-16.93-.43-19.82.13a8.52,8.52,0,0,0-5,3.1,9.66,9.66,0,0,0-1.93,4c-.72,4.78,0,19.32,0,19.32s-.19,4.25,6.1,6.67c5.31,2,12.37,1.7,12.37,1.7S904,263,909,260.68c4.09-1.9,4.29-4.86,4.29-4.86v-9.29Z"/><circle class="cls-6" cx="906.06" cy="254.2" r="3.15"/><circle class="cls-6" cx="885.86" cy="198.96" r="3.15"/><path class="cls-42" d="M573,234.82s-8.67-.31-10.21-8.9l3.64-1.6s-.88,6.12,6.74,7l-.17,3.55"/><path class="cls-42" d="M627.66,234.82s8.67-.31,10.22-8.9l-3.64-1.6s.88,6.12-6.74,7l.16,3.55"/><path class="cls-42" d="M600.16,222.37A79.86,79.86,0,0,0,578.69,225v13.93a79.86,79.86,0,0,0,21.47,2.63c9.52,0,18.05-1.31,23.77-3.38V225.75c-5.72-2.06-14.25-3.38-23.77-3.38"/><path class="cls-42" d="M624.3,235a4.1,4.1,0,0,1-.08-2.34c.37-1.48,1.41-2.29,2.34-1.83a1.67,1.67,0,0,1,.59.54h.05a6.23,6.23,0,0,1,.2,7.33c0,.22-4.83,5.79-5.94,6-.72.12.94-5.69,2.84-9.67"/><path class="cls-42" d="M578.11,234.32a3.33,3.33,0,0,0,.27-2.31c-.33-1.54-1.51-2.59-2.63-2.35a1.59,1.59,0,0,0-.74.38h0s-3.56,2.66-.76,7.2c0,.24,5.3,6.88,6.59,7.32.85.28-.71-5.85-2.68-10.23"/><path class="cls-43" d="M573.12,234.7h0"/><path class="cls-44" d="M629.72,230c-.06-.19-.11-.39-.17-.58l1.94-2.81a1,1,0,0,0,.11-1,1,1,0,0,0-.74-.62l-3.28-.55c-.13-.26-.26-.52-.4-.77l1.38-3.15a1.05,1.05,0,0,0-.08-1,1,1,0,0,0-.84-.45l-3.33.12c-.17-.22-.34-.45-.52-.66l.76-3.38a1,1,0,0,0-.26-1,1,1,0,0,0-.91-.27l-3.24.8-.64-.55.12-3.47a1,1,0,0,0-.43-.88,1,1,0,0,0-1-.08l-3,1.44-.74-.41-.53-3.42a1,1,0,0,0-.59-.78.94.94,0,0,0-.94.12l-2.7,2-.8-.25-1.16-3.25a1,1,0,0,0-.73-.64.94.94,0,0,0-.9.31l-2.27,2.53-.82-.08-1.75-2.95a1,1,0,0,0-1.66,0l-1.75,2.95-.83.08-2.26-2.53a1,1,0,0,0-.91-.31,1,1,0,0,0-.72.64L592,208.44l-.8.25-2.7-2a.94.94,0,0,0-.94-.12,1,1,0,0,0-.59.78l-.53,3.42-.74.41-3-1.44a1,1,0,0,0-.95.08,1,1,0,0,0-.43.88l.12,3.47-.64.55-3.24-.8a1,1,0,0,0-.92.27,1.07,1.07,0,0,0-.26,1l.77,3.38c-.18.21-.36.44-.53.66l-3.32-.12a1,1,0,0,0-.85.45,1.05,1.05,0,0,0-.07,1l1.37,3.15-.39.77-3.28.55a1,1,0,0,0-.74.62,1,1,0,0,0,.11,1l1.94,2.81s0,.1,0,.15l-1.06,1.13,2.86,4s27.5,12.68,53,.21c2.91-.52,3.59-5,3.59-5"/><path class="cls-9" d="M609.16,229.49c0,1.25-.74,2.26-1.65,2.26s-1.64-1-1.64-2.26.73-2.27,1.64-2.27,1.65,1,1.65,2.27"/><ellipse cx="593.55" cy="230.47" rx="3.42" ry="4.23"/><rect class="cls-45" x="566.96" y="203.86" width="66.98" height="49.42"/><path class="cls-9" d="M594.77,229.48c0,1.31-.76,2.36-1.71,2.36s-1.71-1.05-1.71-2.36.77-2.35,1.71-2.35,1.71,1.05,1.71,2.35"/><ellipse cx="608.09" cy="230.47" rx="3.42" ry="4.23"/><path class="cls-9" d="M609.32,229.48c0,1.31-.77,2.36-1.72,2.36s-1.71-1.05-1.71-2.36.77-2.35,1.71-2.35,1.72,1.05,1.72,2.35"/><path class="cls-44" d="M574,235.4c.69-.78,2.37-1.74,2.24-2.92a3.7,3.7,0,0,0-3.92-3.46,3.29,3.29,0,0,0-1.32.45l-.09,0s-6.55,3.21-2.82,9.65c0,.32,7.45,9.83,9.53,10.56,1.36.47-1.26-8.13-3.62-14.26"/><path class="cls-44" d="M627.22,235.12c-.8-.68-2.92-1.29-3-2.48a3.72,3.72,0,0,1,3.37-4,3.35,3.35,0,0,1,1.38.24l.08,0s6.95,2.21,4.21,9.12c0,.33-5.9,10.84-7.85,11.86-1.28.67.34-8.3,1.78-14.71"/><rect class="cls-45" x="566.97" y="203.88" width="66.97" height="49.4"/><rect class="cls-45" x="566.96" y="203.86" width="66.98" height="49.42"/><path class="cls-44" d="M563.18,220.13S561.6,217,559,213c-2.72,1.35-4.07,5-3,8.7,1.13,4.08,4.72,6.65,8,5.73s5.08-5,4-9a8.74,8.74,0,0,0-2.71-4.36,26.1,26.1,0,0,1-2.06,6.13"/><rect class="cls-45" x="566.97" y="203.88" width="66.97" height="49.4"/><path class="cls-44" d="M637.5,220.13s1.57-3.14,4.15-7.16c2.72,1.35,4.07,5,3.05,8.7-1.12,4.08-4.72,6.65-8,5.73s-5.07-5-3.95-9a8.75,8.75,0,0,1,2.72-4.36,26.1,26.1,0,0,0,2.06,6.13"/><path d="M604.72,235.72a3.63,3.63,0,1,1-7.25.25Z"/><path class="cls-46" d="M765.31,200.06a126.87,126.87,0,0,1,1.57,13.75,13.51,13.51,0,0,1-2.39,8.05c-.39,1.37-1.54,0-2.36,0-2,0-2.77-2.19-3.87-3.54s-.31-2.57.42-3.65c.78-.57,1.1-1.83,2.23-1.83s1-1.55.82-2.37c.75-1.15.29-2.85,1-4.11,1.32-.59.93-2.63,1.39-3.78.37-.82,0-2.39,1-2.74,0,0,.13,0,.11.18M764,153.12c-1.72-.2-3,1-4.46,1.62a32.2,32.2,0,0,1-3.65,1c-.89,1.83-3,2.9-4.07,4.62a18.25,18.25,0,0,1-6.1,8.62c-4.06,2.1-6.1,6.67-7.43,11-.46,1-.39,2.39-.88,3.22-1.61.45-.75-1.65-.93-2.65-.24-1.5,1.07-2.47,1.17-3.93a6,6,0,0,0,.65-3.38c-.18-2.61.61-5.79-1.24-7.93-1.09-.63-.75-2-1.15-3a13.41,13.41,0,0,0-4.07-3.65c-1.32-.13-2.52-1.83-3.87-1-.84,1-2.4,1-2.89,2.28-.31,1.65-2.15,1.21-3.36,1.61-1.53.6-3.51,0-4.77,1.22s-3.32,3-2.7,5.08c1.44,2.83,5.17,1.41,7.2,3.12a58.48,58.48,0,0,1-2.21,5.59,32.75,32.75,0,0,0-.15,7.47c.38,2.49-.26,5.68,1.83,7.44,1.18.43,1.11,1.82,1.57,2.84s1.33-.36,1.7.63c1,.58.1,1.82.69,2.55a5.08,5.08,0,0,1,2.57,1.37,21.41,21.41,0,0,1,3.13,2.65c.73,1.5,1.66-1.46,2.46-.35a1.83,1.83,0,0,0,2.38,1l.2-.09a9.32,9.32,0,0,0,4.09-1.77c.79,2.79.18,5.82.53,8.71a38.36,38.36,0,0,1,.91,6.41,30.45,30.45,0,0,1,1,6.5,23.09,23.09,0,0,1-2.23,13.31,3.2,3.2,0,0,1-2.53,2.56c-.92.42-2.82,1.17-2.18,2.49,2.12,1.82,5.48,1.62,7.91.69,1.61-.79.22-2.74,1-3.93,1.08-4.16.55-8.62,1.83-12.78a12.32,12.32,0,0,0,1.08-6.74c.25-1.41-.33-3.11.58-4.26a5.84,5.84,0,0,1,1.48-3.83,48.6,48.6,0,0,0,.46-6.49,9.92,9.92,0,0,1,4-.4c0,1.21-.86,2.6-.61,3.95a6.34,6.34,0,0,1-.82,4.4c-.56,2.37-1,5.3.53,7.3,2.45,2.69,5.65,4.59,8,7.46a1.68,1.68,0,0,1,.25,2.36l-.14.16a4.87,4.87,0,0,1-3.11,3.3c-1,.39-2.52,1.83-1.39,2.83a12,12,0,0,0,6.85-.45c1.5-.55.95-2.36,1.54-3.49a35,35,0,0,1,2.22,3.41c.94,1.39,2.54.24,3.66-.2a11.51,11.51,0,0,0-1.19-5.88c-.51-1.2-2.5-1.24-2.41-2.72,1-3.65,3.43-6.5,5.37-9.59,1.61-1.53.4-3.82.49-5.75a21.86,21.86,0,0,1,3.42-14.17,51.26,51.26,0,0,0,2.17,6.84,20.07,20.07,0,0,0,3.4,7.24c.75,2.59.54,5.48,1,8.16a34.23,34.23,0,0,1-.77,13.92c.13,1.66-1.44,2.88-1.3,4.51.44,1.5,2.2.29,3.11.93a3.47,3.47,0,0,0,4.16-1.83,20.43,20.43,0,0,1-.76-3.89,24.27,24.27,0,0,1-.81-11.9c.15-2.16,1.45-4.79-.23-6.63-.46-2,.32-4.11-.15-6.14a41.79,41.79,0,0,1-.38-15.8c.29-.73,0-2.08.78-2.48a6,6,0,0,1,1,3.94,12,12,0,0,1,.25,6.67c-1.33,1.7-.51,4-.34,5.92.22,1.35,1.62.38,1.82-.46a38.09,38.09,0,0,0,3-7.18c.84-1.13,0-2.46,0-3.65,1.3-.17.8-1.63.11-2.27-.69-2.33-.53-5-2.1-7a33.78,33.78,0,0,1-6.1-8.73c-1.66-5.24-6.41-8.73-8-14a11.35,11.35,0,0,0-5.09-7.44,23.52,23.52,0,0,0-3.66-1.33,19.4,19.4,0,0,1-3.23.4"/><path class="cls-47" d="M1014.18,603.49c0-10.89,8.83-16.31,19.71-16.31s19.71,5.42,19.71,16.31Z"/><path class="cls-48" d="M1020.3,596.59c0-4.94,6.71-7.06,13.59-7.06s13.55,2,13.55,7Z"/><path class="cls-49" d="M761.14,201.89a127.34,127.34,0,0,1,1.57,13.76,13.51,13.51,0,0,1-2.39,8c-.39,1.37-1.54,0-2.36,0-2,0-2.77-2.19-3.87-3.54s-.31-2.58.42-3.66c.79-.56,1.1-1.82,2.23-1.82s1-1.55.82-2.38c.75-1.15.29-2.85,1-4.11,1.32-.58.93-2.63,1.39-3.78.37-.82,0-2.39,1-2.74,0,0,.13,0,.11.19M759.86,155c-1.72-.2-3,1-4.46,1.63a32.2,32.2,0,0,1-3.65,1c-.89,1.82-3,2.9-4.07,4.62a18.25,18.25,0,0,1-6.1,8.62c-4.06,2.1-6.1,6.66-7.43,11-.46,1-.39,2.39-.88,3.21-1.61.46-.75-1.64-.93-2.65-.24-1.5,1.07-2.46,1.17-3.92a6,6,0,0,0,.65-3.38c-.18-2.62.61-5.79-1.24-7.93-1.09-.64-.75-2-1.15-3a13.28,13.28,0,0,0-4.07-3.65c-1.32-.13-2.52-1.83-3.87-1-.84,1-2.4,1-2.89,2.29-.31,1.64-2.15,1.2-3.36,1.6-1.53.61-3.51,0-4.77,1.23s-3.32,3-2.7,5.08c1.44,2.83,5.17,1.4,7.2,3.12a59.54,59.54,0,0,1-2.21,5.59,32.74,32.74,0,0,0-.15,7.47c.38,2.48-.26,5.68,1.83,7.43,1.18.44,1.11,1.83,1.57,2.85s1.33-.37,1.7.62c1.05.59.11,1.83.69,2.56a5,5,0,0,1,2.57,1.37,21.41,21.41,0,0,1,3.13,2.65c.73,1.49,1.66-1.46,2.46-.35a1.84,1.84,0,0,0,2.38,1l.2-.1a9.32,9.32,0,0,0,4.09-1.77c.79,2.8.18,5.83.53,8.71a37.49,37.49,0,0,1,.91,6.41,30.45,30.45,0,0,1,1,6.51A23.1,23.1,0,0,1,735.73,237a3.21,3.21,0,0,1-2.53,2.56c-.92.42-2.82,1.17-2.18,2.48,2.12,1.83,5.48,1.63,7.91.69,1.61-.78.22-2.73,1-3.92,1.08-4.17.55-8.62,1.83-12.79a12.31,12.31,0,0,0,1.08-6.74c.25-1.4-.33-3.1.58-4.25a5.85,5.85,0,0,1,1.48-3.84,48.45,48.45,0,0,0,.46-6.48,9.92,9.92,0,0,1,4-.4c0,1.2-.86,2.59-.6,3.94a6.39,6.39,0,0,1-.83,4.4c-.56,2.38-1,5.3.53,7.31,2.45,2.68,5.65,4.58,8,7.45a1.68,1.68,0,0,1,.25,2.36,1.07,1.07,0,0,1-.14.16,4.87,4.87,0,0,1-3.11,3.31c-1,.38-2.52,1.82-1.39,2.83a12.12,12.12,0,0,0,6.85-.46c1.5-.55,1-2.35,1.54-3.49a36.34,36.34,0,0,1,2.22,3.42c.94,1.39,2.54.24,3.66-.2a11.51,11.51,0,0,0-1.19-5.88c-.51-1.21-2.5-1.25-2.41-2.72,1-3.66,3.43-6.51,5.37-9.59,1.61-1.54.4-3.82.49-5.76A21.89,21.89,0,0,1,772,197.18a51.4,51.4,0,0,0,2.17,6.85,20.1,20.1,0,0,0,3.4,7.23c.75,2.6.55,5.48,1,8.17a34.17,34.17,0,0,1-.77,13.91c.13,1.67-1.44,2.89-1.3,4.51.44,1.5,2.2.3,3.11.94a3.47,3.47,0,0,0,4.16-1.83,20.59,20.59,0,0,1-.76-3.89,24.3,24.3,0,0,1-.81-11.91c.15-2.15,1.45-4.78-.23-6.63-.46-2,.32-4.11-.15-6.14a41.74,41.74,0,0,1-.38-15.79c.29-.73,0-2.09.78-2.49a6,6,0,0,1,1,3.95,12,12,0,0,1,.25,6.66c-1.33,1.7-.51,4-.34,5.92.22,1.35,1.62.39,1.82-.46a38,38,0,0,0,3-7.17c.84-1.14,0-2.47,0-3.66,1.3-.16.81-1.62.11-2.26-.69-2.34-.53-5-2.1-7a34,34,0,0,1-6.1-8.73c-1.66-5.24-6.41-8.73-8-14a11.36,11.36,0,0,0-5.09-7.43,24.63,24.63,0,0,0-3.66-1.34,19.41,19.41,0,0,1-3.23.41"/><rect class="cls-50" x="537.45" y="604.63" width="632" height="52.98" rx="20.65"/><rect class="cls-3" x="1050.36" y="173.3" width="4.16" height="76.53"/><path class="cls-9" d="M1054.39,173.42v76.29h-3.91V173.42h3.91m.25-.25h-4.41V250h4.41V173.17Z"/><rect class="cls-3" x="1057.53" y="194.84" width="4.16" height="55"/><path class="cls-9" d="M1061.57,195v54.75h-3.92V195h3.92m.25-.25h-4.42V250h4.42V194.71Z"/><rect class="cls-9" x="1030.55" y="169.2" width="4.59" height="78.26"/><rect class="cls-17" x="1109.03" y="185.37" width="21.48" height="79.73" transform="translate(78.76 695.25) rotate(-35.67)"/><rect class="cls-3" x="1109.53" y="204.35" width="21.23" height="42.83" transform="translate(78.53 695.6) rotate(-35.67)"/><path class="cls-9" d="M1116.25,202.36l24.83,34.58-17,12.24-24.83-34.59,17-12.23m.06-.35-17.45,12.52,25.12,35L1141.43,237l-25.12-35Z"/><rect class="cls-51" x="719.03" y="385.92" width="45.01" height="4.99"/><rect class="cls-51" x="719.03" y="457.41" width="45.01" height="4.99"/><rect class="cls-8" x="745.51" y="421.66" width="89.96" height="4.99"/><rect class="cls-52" x="745.51" y="439.53" width="208.81" height="4.99"/><rect class="cls-53" x="745.51" y="493.15" width="83.7" height="4.99"/><rect class="cls-8" x="840.24" y="493.15" width="127.61" height="4.99"/><rect class="cls-9" x="745.29" y="511.54" width="185.5" height="4.99"/><rect class="cls-9" x="845.69" y="421.66" width="45.01" height="4.99"/><rect class="cls-9" x="745.51" y="475.28" width="45.01" height="4.99"/><rect class="cls-9" x="802" y="475.28" width="24.94" height="4.99"/><rect class="cls-54" x="838.63" y="475.28" width="93.63" height="4.99"/><rect class="cls-9" x="745.29" y="403.79" width="237.57" height="4.99"/><circle class="cls-55" cx="532.44" cy="68.03" r="22.1"/><circle class="cls-56" cx="1289.02" cy="642.56" r="24.83"/><circle class="cls-54" cx="1340.22" cy="328.74" r="25.19"/><circle class="cls-57" cx="428.28" cy="655.48" r="18.87"/><circle class="cls-58" cx="318.69" cy="417.94" r="28.94"/><path class="cls-59" d="M1110.25,716.51a15.6,15.6,0,1,1-15.6-15.6A15.6,15.6,0,0,1,1110.25,716.51Z"/><path class="cls-60" d="M1313.84,328.74a26.38,26.38,0,1,1,26.38,26.37A26.38,26.38,0,0,1,1313.84,328.74Z"/><path class="cls-61" d="M1227.13,415.37l-15.54-15.14,1.25-3.23,21.69-.66-1.34,3.43-17.14.34,12.41,11.82Z"/><path class="cls-61" d="M1249.45,396.69l-19.07,25-2.78-1.09,19.07-25Z"/><path class="cls-61" d="M1264.06,420.63l-21.68.67,1.33-3.44,17.14-.33-12.41-11.83,1.34-3.43,15.53,15.14Z"/><path class="cls-53" d="M399.76,224.13l-1.5.85a18.66,18.66,0,0,1-4.16,1.79,5.94,5.94,0,0,1-4-.43,9.53,9.53,0,0,1-3.7-3,57.26,57.26,0,0,1-4-6.3,55.63,55.63,0,0,0-3.87-6.14,7.56,7.56,0,0,0-3.47-2.6,5.68,5.68,0,0,0-4.67.71l-2.51-4.46a5.69,5.69,0,0,0,3-3.63,7.62,7.62,0,0,0-.44-4.31,54,54,0,0,0-3.27-6.48,57.24,57.24,0,0,1-3.34-6.66,9.34,9.34,0,0,1-.64-4.7,6,6,0,0,1,1.71-3.67,17.93,17.93,0,0,1,3.68-2.64l1.51-.85,2.4,4.26-.84.48q-2.85,1.6-2.64,3.47t4,8.48q3.34,5.92,3.33,9.54a9.06,9.06,0,0,1-2.62,6.39,8.94,8.94,0,0,1,6.81,1q3.11,1.84,6.45,7.78,3.74,6.62,5.23,7.75c1,.76,2.44.6,4.33-.47l.85-.48Z"/><path class="cls-53" d="M372.77,170.13l1.51-.85a18.35,18.35,0,0,1,4.16-1.8,6,6,0,0,1,4,.43,9.4,9.4,0,0,1,3.7,3,55.75,55.75,0,0,1,4,6.29,54.75,54.75,0,0,0,3.86,6.15,7.68,7.68,0,0,0,3.47,2.6,5.71,5.71,0,0,0,4.67-.71l2.52,4.45a5.72,5.72,0,0,0-3,3.63,7.66,7.66,0,0,0,.44,4.32,54,54,0,0,0,3.27,6.48,57.27,57.27,0,0,1,3.34,6.65,9.38,9.38,0,0,1,.64,4.71,6,6,0,0,1-1.71,3.67,18.3,18.3,0,0,1-3.68,2.63l-1.5.85L400,218.35l.84-.48q2.85-1.6,2.64-3.47t-3.94-8.48q-3.36-5.92-3.34-9.54a9,9,0,0,1,2.64-6.36,9.12,9.12,0,0,1-6.83-1q-3.1-1.86-6.45-7.78-3.73-6.62-5.23-7.76c-1-.76-2.44-.6-4.33.47l-.85.48Z"/><line class="cls-62" x1="731.58" y1="693.02" x2="741.52" y2="733.78"/><line class="cls-62" x1="755.85" y1="703.88" x2="716.35" y2="722.19"/><polyline class="cls-63" points="1225.36 102.33 1222.13 107.4 1217.07 104.17"/><line class="cls-64" x1="1209.85" y1="99.58" x2="1199" y2="92.68"/><polyline class="cls-63" points="1195.39 90.38 1190.33 87.16 1193.55 82.09"/><line class="cls-64" x1="1198.15" y1="74.87" x2="1205.05" y2="64.02"/><polyline class="cls-63" points="1207.35 60.41 1210.57 55.35 1215.63 58.57"/><line class="cls-64" x1="1222.86" y1="63.17" x2="1233.7" y2="70.07"/><polyline class="cls-63" points="1237.32 72.37 1242.38 75.59 1239.15 80.65"/><line class="cls-64" x1="1234.56" y1="87.88" x2="1227.66" y2="98.72"/><path class="cls-65" d="M1149.85,657.61H556.44c-8.83,0-18.46-10.38-18.46-19.21l.11-12.78h630.73V638C1169.06,647.26,1158.69,657.61,1149.85,657.61Z"/><path class="cls-66" d="M924,31.85c-9.87,3.75-17.82,9.89-20.2,20.4-2.34,10.34,2.44,19.24,9.49,27l-8.12-1.84c-6.32-6.5-12.64-15.75-10.08-27.08S907.37,33.21,915.89,30Z"/><path class="cls-66" d="M918,80.27c9.66-3.86,17.83-10,20.2-20.41s-2.31-19.28-9.48-26.94l8,1.81c6.45,6.47,12.65,15.69,10.06,27.13s-12.13,17-20.78,20.22Z"/></svg>