<svg id="Слой_1" data-name="Слой 1" xmlns="http://www.w3.org/2000/svg" viewBox="0 0 1683.03 770"><defs><style>.cls-1,.cls-27{fill:#f2f2f2;}.cls-1{opacity:0.69;}.cls-2{opacity:0.41;}.cls-3,.cls-62{fill:#667fb7;}.cls-4{fill:#fcfcfc;}.cls-5{fill:#313333;}.cls-12,.cls-17,.cls-18,.cls-22,.cls-23,.cls-24,.cls-25,.cls-28,.cls-29,.cls-30,.cls-31,.cls-33,.cls-34,.cls-35,.cls-38,.cls-40,.cls-5,.cls-50,.cls-51,.cls-59,.cls-6,.cls-64,.cls-65{stroke:#fff;}.cls-10,.cls-12,.cls-17,.cls-18,.cls-22,.cls-23,.cls-24,.cls-25,.cls-26,.cls-27,.cls-28,.cls-29,.cls-30,.cls-31,.cls-35,.cls-36,.cls-38,.cls-40,.cls-42,.cls-44,.cls-46,.cls-48,.cls-49,.cls-5,.cls-50,.cls-51,.cls-59,.cls-6,.cls-62,.cls-64,.cls-65{stroke-miterlimit:10;}.cls-40,.cls-6,.cls-9{fill:#fff;}.cls-7{opacity:0.32;}.cls-25,.cls-8{fill:#f2a0a0;}.cls-10,.cls-26,.cls-36{fill:#a3b4b5;}.cls-10,.cls-26,.cls-27,.cls-36{stroke:#fdfdff;}.cls-10{opacity:0.25;}.cls-11,.cls-19{fill:#7866f2;}.cls-11{opacity:0.42;}.cls-12{fill:#9090e0;}.cls-13{fill:#45689b;}.cls-14{fill:#272822;}.cls-15{fill:#4242bc;}.cls-16{fill:#a1d6d1;}.cls-17,.cls-68{fill:#f2e750;}.cls-17,.cls-18,.cls-25,.cls-34,.cls-35,.cls-59,.cls-64{stroke-width:0.5px;}.cls-18{fill:#d0d8d9;}.cls-20{fill:#9992f4;}.cls-21{fill:#d8a7dc;}.cls-22{fill:#85edcf;}.cls-23{fill:#f9eb70;}.cls-23,.cls-33{stroke-width:0.75px;}.cls-24{fill:#f7b5ef;}.cls-24,.cls-40{stroke-width:0.25px;}.cls-26,.cls-27{stroke-width:3px;}.cls-28{fill:#7272d6;}.cls-29{fill:#3c8469;}.cls-30,.cls-32{fill:#559378;}.cls-31{fill:#69b797;}.cls-33,.cls-34,.cls-35,.cls-41,.cls-42,.cls-44,.cls-46,.cls-48,.cls-49,.cls-55,.cls-58,.cls-60,.cls-61{fill:none;}.cls-33,.cls-34,.cls-41,.cls-56,.cls-58,.cls-60,.cls-61{stroke-linecap:round;}.cls-33,.cls-34,.cls-41,.cls-56,.cls-60,.cls-61{stroke-linejoin:round;}.cls-37{fill:#9aa5a5;}.cls-38{fill:#9177f2;}.cls-39{fill:#020202;}.cls-41{stroke:#4c4c4c;opacity:0.62;}.cls-42{stroke:#9177f2;}.cls-42,.cls-44{stroke-width:8px;}.cls-43{fill:#bde5dd;}.cls-44,.cls-58{stroke:#71bbc6;}.cls-45{fill:#fffabd;}.cls-46{stroke:#f2e750;stroke-width:10px;}.cls-47{fill:#d8bfd9;}.cls-48,.cls-49{stroke:#d8a7dc;stroke-width:6px;}.cls-48{stroke-dasharray:4.04 4.04;}.cls-49{stroke-dasharray:3.95 3.95;}.cls-50{fill:#347ab4;}.cls-51{fill:#ffca1d;}.cls-52{fill:#8f1f1d;}.cls-53{fill:#e23a26;}.cls-54{fill:#e33b26;}.cls-56{fill:#6d8ef2;stroke:#6d8ef2;stroke-width:2px;}.cls-57{fill:#6a7bd9;}.cls-58{stroke-linejoin:bevel;stroke-width:7px;stroke-dasharray:13;}.cls-59,.cls-64{fill:#246377;}.cls-59{opacity:0.13;}.cls-60,.cls-61{stroke:#8b83ea;stroke-width:5px;}.cls-61{stroke-dasharray:7.39 7.39;}.cls-62{stroke:#fcfcfc;}.cls-63{fill:#8da2c6;opacity:0.47;}.cls-65{fill:#b1acea;}.cls-66{fill:#6262b5;opacity:0.61;}.cls-67{fill:#71bbc6;}</style></defs><title>main-img</title><circle class="cls-1" cx="854.9" cy="379.15" r="619.74"/><g class="cls-2"><rect class="cls-3" x="795.56" y="450.29" width="116.62" height="11.48" rx="5.4"/><path class="cls-4" d="M906.78,450.8a4.89,4.89,0,0,1,4.89,4.89v.69a4.9,4.9,0,0,1-4.89,4.9H801a4.9,4.9,0,0,1-4.89-4.9v-.69A4.89,4.89,0,0,1,801,450.8H906.78m0-1H801a5.89,5.89,0,0,0-5.89,5.89v.69a5.9,5.9,0,0,0,5.89,5.9H906.78a5.9,5.9,0,0,0,5.89-5.9v-.69a5.89,5.89,0,0,0-5.89-5.89Z"/></g><circle class="cls-5" cx="699.14" cy="443.97" r="10.28"/><circle class="cls-6" cx="699" cy="443.97" r="6.83"/><g class="cls-7"><path class="cls-8" d="M660.22,354.43a12,12,0,0,1-12-12V329.79h25.32l.06,12.68a12,12,0,0,1-12,12Z"/><path class="cls-9" d="M673.14,330.29v12.18a11.47,11.47,0,0,1-11.46,11.46h-1.46a11.47,11.47,0,0,1-11.46-11.46V330.29h24.38m.44-1H647.85a.09.09,0,0,0-.09.09v13.09a12.46,12.46,0,0,0,12.46,12.46h1.46a12.46,12.46,0,0,0,12.46-12.46V329.85a.56.56,0,0,0-.56-.56Z"/></g><path class="cls-10" d="M1007.43,424.73h22.62a0,0,0,0,1,0,0v28.8a9.81,9.81,0,0,1-9.81,9.81h-3a9.81,9.81,0,0,1-9.81-9.81v-28.8A0,0,0,0,1,1007.43,424.73Z"/><g class="cls-2"><rect class="cls-3" x="737.79" y="300.38" width="233.28" height="133.55" rx="16.33"/><path class="cls-4" d="M954.74,300.88a15.85,15.85,0,0,1,15.83,15.83V417.6a15.85,15.85,0,0,1-15.83,15.83H754.13a15.85,15.85,0,0,1-15.84-15.83V316.71a15.85,15.85,0,0,1,15.84-15.83H954.74m0-1H754.13a16.83,16.83,0,0,0-16.84,16.83V417.6a16.84,16.84,0,0,0,16.84,16.83H954.74a16.83,16.83,0,0,0,16.83-16.83V316.71a16.82,16.82,0,0,0-16.83-16.83Z"/></g><rect class="cls-11" x="955.65" y="245.87" width="97.96" height="9.71" rx="4.59"/><rect class="cls-12" x="665.38" y="486.06" width="23.59" height="228.81" rx="6.99"/><rect class="cls-12" x="1010.83" y="486.06" width="23.05" height="228.81" rx="7.18"/><rect class="cls-13" x="833.45" y="430.12" width="42.11" height="23.12"/><path class="cls-4" d="M875.07,430.62v22.12H834V430.62h41.12m1-1H833v24.12h43.12V429.62Z"/><rect class="cls-3" x="737.46" y="296.2" width="233.28" height="134.07" rx="16.33"/><path class="cls-4" d="M954.41,296.7a15.85,15.85,0,0,1,15.84,15.83V413.94a15.85,15.85,0,0,1-15.84,15.83H753.8A15.85,15.85,0,0,1,738,413.94V312.53A15.85,15.85,0,0,1,753.8,296.7H954.41m0-1H753.8A16.83,16.83,0,0,0,737,312.53V413.94a16.84,16.84,0,0,0,16.84,16.83H954.41a16.84,16.84,0,0,0,16.84-16.83V312.53a16.83,16.83,0,0,0-16.84-16.83Z"/><rect class="cls-14" x="748.66" y="307.45" width="210.98" height="112.5" rx="5.81"/><path class="cls-9" d="M953.83,308a5.31,5.31,0,0,1,5.31,5.31V414.15a5.31,5.31,0,0,1-5.31,5.3H754.46a5.31,5.31,0,0,1-5.3-5.3V313.26a5.31,5.31,0,0,1,5.3-5.31H953.83m0-1H754.46a6.31,6.31,0,0,0-6.3,6.31V414.15a6.3,6.3,0,0,0,6.3,6.3H953.83a6.31,6.31,0,0,0,6.31-6.3V313.26a6.32,6.32,0,0,0-6.31-6.31Z"/><polygon class="cls-15" points="1015.91 430.17 1013.55 430.62 1007.14 393.53 1009.51 393.08 1015.91 430.17"/><polygon class="cls-16" points="1022.57 429.32 1018.51 430.07 1013.72 401.7 1017.78 400.95 1022.57 429.32"/><rect class="cls-17" x="960.18" y="164.38" width="12.31" height="78.15"/><rect class="cls-18" x="973.46" y="171.74" width="16.71" height="70.79"/><rect class="cls-17" x="991.1" y="162.13" width="10.58" height="80.39"/><polygon class="cls-19" points="1006.65 393.47 1009.76 392.89 1011.03 400.41 1007.92 400.99 1006.65 393.47"/><path class="cls-9" d="M1009.35,393.48l1.1,6.53-2.12.39-1.1-6.53,2.12-.39m.82-1.17-4.09.76,1.43,8.5,4.09-.76-1.43-8.5Z"/><polygon class="cls-20" points="1013.24 400.45 1017.87 399.6 1020.25 413.69 1015.62 414.54 1013.24 400.45"/><path class="cls-9" d="M1017.46,400.18l2.21,13.11L1016,414l-2.21-13.11,3.64-.67m.82-1.17-5.61,1,2.55,15.08,5.6-1L1018.28,399Z"/><polygon class="cls-21" points="1026.71 430.43 1028.29 430.84 1036.99 394.54 1035.41 394.12 1026.71 430.43"/><ellipse class="cls-22" cx="1036.73" cy="392.89" rx="6.23" ry="6.51"/><ellipse class="cls-23" cx="1036.73" cy="392.89" rx="4.19" ry="4.43"/><ellipse class="cls-24" cx="1036.73" cy="392.89" rx="1.68" ry="1.76"/><rect class="cls-25" x="960.28" y="146.05" width="12.2" height="24.67"/><rect class="cls-3" x="973.92" y="150.82" width="15.63" height="25.66"/><path class="cls-9" d="M989.42,151v25.4H974V151h15.38m.25-.25H973.79v25.9h15.88V150.7Z"/><rect class="cls-25" x="991.1" y="153.71" width="10.58" height="14.1"/><rect class="cls-25" x="991.1" y="228.18" width="10.58" height="14.1"/><rect class="cls-26" x="742.58" y="147.88" width="84.39" height="102.4"/><rect class="cls-27" x="753.95" y="159.25" width="60.68" height="79.65"/><rect class="cls-26" x="834.07" y="178.82" width="87.49" height="78.75"/><rect class="cls-27" x="845.87" y="187.57" width="65.29" height="61.25"/><rect class="cls-26" x="645.37" y="178.82" width="88.2" height="78.75"/><rect class="cls-27" x="657.26" y="187.57" width="63.43" height="61.25"/><rect class="cls-28" x="683.23" y="491.16" width="339.31" height="23.96"/><rect class="cls-28" x="1010.83" y="493.77" width="23.4" height="26.74"/><rect class="cls-28" x="665.67" y="493.77" width="23.4" height="26.74"/><polygon class="cls-29" points="654.99 302.51 654.98 302.51 654.99 302.51 654.99 302.51"/><path class="cls-29" d="M642,305.07l0,.07a18.33,18.33,0,0,1,6.15-2.45A13.24,13.24,0,0,0,642,305.07Z"/><path class="cls-30" d="M655.84,304.3c-.27-.57-.53-1.12-.79-1.65-4.3,0-9-.35-12.83,2.64,3.85-3,8.53-2.66,12.83-2.64a.61.61,0,0,0-.07-.14,28.84,28.84,0,0,0-6.8.18,18.33,18.33,0,0,0-6.15,2.45,79.09,79.09,0,0,0,7.82,13.93c5.74,8.46,6.42,13.87,6.42,13.87l3.43-1.34A48.76,48.76,0,0,0,655.84,304.3Z"/><path class="cls-31" d="M648.18,303.13A19.21,19.21,0,0,1,655,303c-2-4-4-6.51-11.12-6.27-8.2.29-11.13,8.51-12,13.88-.41,2.6,5.33-.78,7.28-2.69a18.06,18.06,0,0,1,2.88-2.29l0-.07A13.24,13.24,0,0,1,648.18,303.13Z"/><path class="cls-31" d="M662.27,331.6c-1.67-1.14-5.78-4.9-7.28-21.93-.19-2.13-2.2-13.12,3-23.72.53-1.08,1.92-4.76,1.61-5.95-.5-1.87,8.64,11.08,9.09,12.66A53.65,53.65,0,0,1,670,315.49c-.74,4.13-1.42,4.45-2.14,9.4-.59,4.06-.56,6.88-2.14,7.61C664.43,333.08,662.83,332,662.27,331.6Z"/><path class="cls-32" d="M661.76,330.08c-1.56-2.77-.76-8,0-13.07a38.62,38.62,0,0,1,3-11.53c.34-.71,5.12-5.47,5.25-4.59a58.6,58.6,0,0,1,.19,9.2A56.81,56.81,0,0,1,668.07,322c-.88,3.15-3.48,9.61-4.35,9.61C662.63,331.62,661.86,330.26,661.76,330.08Z"/><path class="cls-31" d="M665.26,330.71c-3.06-3.24-1.5-9.33,0-15.22,1.13-4.42,2.34-9,6-13.43.67-.83,7-5.35,10.32-5.35.44,0,.89,5.21.38,10.72a43.4,43.4,0,0,1-4.28,13.88c-1.74,3.66-6.85,11.19-8.57,11.19A5.69,5.69,0,0,1,665.26,330.71Z"/><path class="cls-33" d="M662.23,326.62c0-.44.88-22,.88-22s0-9.67-.88-13.63"/><path class="cls-34" d="M668.39,326.62a31.38,31.38,0,0,1,3.08-9.68c1.27-2.46,2.66-4.3,4-7.91a32.72,32.72,0,0,0,1.32-4.84"/><path class="cls-35" d="M658.28,326.62a22.7,22.7,0,0,0-4-10.56c-1.64-2.26-4.3-4.9-5.72-9.67-.22-.73-.35-1.34-.44-1.76"/><rect class="cls-3" x="795.56" y="452.53" width="116.62" height="11.48" rx="5.4"/><path class="cls-4" d="M906.78,453a4.9,4.9,0,0,1,4.89,4.9v.69a4.9,4.9,0,0,1-4.89,4.9H801a4.9,4.9,0,0,1-4.89-4.9v-.69A4.9,4.9,0,0,1,801,453H906.78m0-1H801a5.9,5.9,0,0,0-5.89,5.9v.69a5.9,5.9,0,0,0,5.89,5.9H906.78a5.9,5.9,0,0,0,5.89-5.9v-.69a5.9,5.9,0,0,0-5.89-5.9Z"/><path class="cls-36" d="M1009.94,423.9h22.62a0,0,0,0,1,0,0v28.8a9.81,9.81,0,0,1-9.81,9.81h-3a9.81,9.81,0,0,1-9.81-9.81V423.9A0,0,0,0,1,1009.94,423.9Z"/><path class="cls-37" d="M1010,424.4h8a0,0,0,0,1,0,0v38.11a0,0,0,0,1,0,0h-.44A7.56,7.56,0,0,1,1010,455V424.4A0,0,0,0,1,1010,424.4Z"/><rect class="cls-38" x="955.23" y="243.36" width="100.47" height="9.19" rx="4.34"/><rect class="cls-11" x="632.07" y="354.97" width="62.86" height="6.23" rx="2.94"/><rect class="cls-38" x="631.26" y="353.36" width="64.46" height="5.9" rx="2.79"/><path class="cls-8" d="M661.89,353.43a12,12,0,0,1-12-12V328.79h25.32l.06,12.68a12,12,0,0,1-12,12Z"/><path class="cls-9" d="M674.81,329.29v12.18a11.47,11.47,0,0,1-11.46,11.46h-1.46a11.48,11.48,0,0,1-11.46-11.46V329.29h24.38m.44-1H649.52a.09.09,0,0,0-.09.09v13.09a12.46,12.46,0,0,0,12.46,12.46h1.46a12.46,12.46,0,0,0,12.46-12.46V328.85a.56.56,0,0,0-.56-.56Z"/><rect class="cls-39" x="849.54" y="299.46" width="9.19" height="5.01" rx="2.37"/><path class="cls-5" d="M671.35,426.91h28.28a0,0,0,0,1,0,0v27.44A7.66,7.66,0,0,1,692,462H679a7.66,7.66,0,0,1-7.66-7.66V426.91A0,0,0,0,1,671.35,426.91Z"/><path class="cls-40" d="M663.29,331.87a2.89,2.89,0,0,1,.29,1.28,4,4,0,0,1-1.22,2.5,12.87,12.87,0,0,0-1.42,1.32,2.22,2.22,0,0,0-.54.83,2.39,2.39,0,0,0,.34,1.71,3.89,3.89,0,0,0,.83,1.13,4.64,4.64,0,0,1-1.61-1.52,2.11,2.11,0,0,1-.49-1.56c.07-.35.29-.58.73-1a20.7,20.7,0,0,1,1.67-1.37,4.22,4.22,0,0,0,1-1,3.46,3.46,0,0,0,.39-1.28A5.66,5.66,0,0,0,663.29,331.87Z"/><path class="cls-40" d="M665.1,335.35a8.71,8.71,0,0,0-.88.49,5.54,5.54,0,0,0-1.08.88,2.14,2.14,0,0,0-.49.69,1,1,0,0,0-.1.49,1.31,1.31,0,0,0,.3.59c.26.37.38.41.49.68a1.46,1.46,0,0,1,.1.39,1.52,1.52,0,0,1-.1.69,1.81,1.81,0,0,1-.49.68,2.4,2.4,0,0,1-.59.4s.09-.12.2-.3a1.13,1.13,0,0,0,.19-.58,1,1,0,0,0-.19-.59c-.1-.16-.12-.14-.3-.39a5.21,5.21,0,0,1-.29-.49,2.11,2.11,0,0,1-.2-.49,2,2,0,0,1,0-.69,1.75,1.75,0,0,1,.2-.59,2.27,2.27,0,0,1,.39-.49,4.35,4.35,0,0,1,.59-.49,6.24,6.24,0,0,1,1.37-.68A4.8,4.8,0,0,1,665.1,335.35Z"/><path class="cls-40" d="M665.4,340.93a1.73,1.73,0,0,1,.48-.19,1.49,1.49,0,0,1,.89,0,1.22,1.22,0,0,1,.68.59,1.12,1.12,0,0,1,.1.68,1.53,1.53,0,0,1-.49.79,3.18,3.18,0,0,1-.78.58,5.15,5.15,0,0,1-.79.3c-.15.05-.39.1-.39.1l.49-.3a4.12,4.12,0,0,0,.69-.49,1.7,1.7,0,0,0,.49-.59,1.07,1.07,0,0,0,.09-.58,1.11,1.11,0,0,0-.19-.49.85.85,0,0,0-.3-.3,1.09,1.09,0,0,0-.39-.1A3,3,0,0,0,665.4,340.93Z"/><path class="cls-40" d="M665,341.42a2.8,2.8,0,0,1-.68.4,5.55,5.55,0,0,1-.88.19l-.69.1c-.39.05-.57.06-1.08.1l-1.07.1c-.12,0-.62,0-1.28,0a7.28,7.28,0,0,1-1.66-.2,1.71,1.71,0,0,1-.41-.12.61.61,0,0,1-.17-.16.17.17,0,0,1,0-.18.42.42,0,0,1,.11-.13,1.82,1.82,0,0,1,.19-.1l.3-.09.29-.1.29-.1.3-.1.39-.1a5.37,5.37,0,0,1,.59-.09l-.3.09a5.68,5.68,0,0,0-.68.3l-.3.19-.11.1a.12.12,0,0,0,0,.21,3.42,3.42,0,0,0,.39.09,5.38,5.38,0,0,0,1,.09c1,0,.61,0,1.27,0s1.16,0,1.76-.09c.32,0,.77-.08,1.38-.2Z"/><path class="cls-40" d="M663.83,343.09l.59.39a3.28,3.28,0,0,1-1.08.3,19.66,19.66,0,0,1-2.06.19,7.55,7.55,0,0,1-1.24,0l-.62-.08a3.1,3.1,0,0,1-.39-.09,2.45,2.45,0,0,1-.49-.2c-.15-.08-.29-.17-.3-.29a.31.31,0,0,1,.1-.2,1.45,1.45,0,0,1,.69-.39.37.37,0,0,0-.1.19.32.32,0,0,0,0,.2c.05.13.25.17.39.2a6.75,6.75,0,0,0,1.08.09h.68a6.56,6.56,0,0,0,.89,0l.78-.06a3.92,3.92,0,0,0,.78-.1A2.24,2.24,0,0,0,663.83,343.09Z"/><path class="cls-40" d="M663.34,344.76l.78.49a7.23,7.23,0,0,1-1.57.39,11.81,11.81,0,0,1-1.85.07,6.6,6.6,0,0,1-1.08-.17,3,3,0,0,1-.69-.29.39.39,0,0,1-.2-.2.25.25,0,0,1,.09-.26.57.57,0,0,1,.21-.13,1.23,1.23,0,0,1,.31-.11.42.42,0,0,0,0,.11c0,.12.24.18.3.19a6.26,6.26,0,0,0,1.4.16h.67a9.9,9.9,0,0,0,1-.1A4.52,4.52,0,0,0,663.34,344.76Z"/><path class="cls-40" d="M666.67,345.79a.25.25,0,0,1,.13.28c0,.16-.06.19-.23.33a2,2,0,0,1-1,.41c-.43.1-.64.15-1,.2s-.64.09-1.73.19c-.63.06-1,.06-1.2.07-.67,0-1.17,0-1.54,0l-1.5-.08a10.93,10.93,0,0,1-1.54-.11,4.81,4.81,0,0,1-1.11-.28c-.2-.12-.27-.16-.26-.25a.41.41,0,0,1,.2-.28,2.26,2.26,0,0,1,.55-.25,6,6,0,0,1,.88-.29,2.19,2.19,0,0,1,.49-.1h.22l-.41.11a2,2,0,0,0-.54.2,2.21,2.21,0,0,0-.27.17.29.29,0,0,0-.13.21c0,.15.44.27.54.3a5.58,5.58,0,0,0,1.28.19h3.33c1,0,1,0,1.27,0s.29,0,1.18-.1a5.08,5.08,0,0,0,.88-.09,5,5,0,0,0,.72-.19l.44-.17c.17-.08.23-.14.25-.23a.45.45,0,0,0,0-.19.36.36,0,0,0-.06-.1Z"/><path class="cls-40" d="M657.94,347.65a11.35,11.35,0,0,0,1.28.14c.2,0,.32,0,.69,0l1.57,0c.66,0,1.14,0,1.86-.1s1.18-.1,1.86-.19a4.84,4.84,0,0,0,1.27-.3,3.06,3.06,0,0,0,.79-.39l.29-.19a1.33,1.33,0,0,1-.2.39,1.61,1.61,0,0,1-.68.49,10.4,10.4,0,0,1-2.55.49c-.5,0-.94.07-1.57.1-1,0-1.73,0-2.15,0a8.11,8.11,0,0,1-1.67-.2C658.36,347.8,657.94,347.65,657.94,347.65Z"/><path class="cls-41" d="M680.8,424.06c-1.88-3-3.22-6.57-2.25-9.95,1-3.56,3.88-4.46,5.92-8.41,1.3-2.53,2.13-6.05,1.3-11"/><path class="cls-41" d="M685.3,423.83c-1.91-3.12-2-5.36-1.66-6.87.7-3.25,3.51-4.36,5.33-9a17.87,17.87,0,0,0,1.07-4.27"/><path class="cls-41" d="M690,423.24c-1.58-2.39-1.59-4-1.31-5,.48-1.69,2-2.62,2.73-5.45a9,9,0,0,0,.23-1.3"/><circle class="cls-42" cx="642" cy="67.95" r="20.04"/><circle class="cls-43" cx="936.89" cy="85.31" r="28.91"/><circle class="cls-44" cx="1148.73" cy="588.05" r="22.51"/><circle class="cls-45" cx="1161.53" cy="263.12" r="22.83"/><circle class="cls-46" cx="592" cy="600.46" r="17.11"/><circle class="cls-47" cx="473.94" cy="476.03" r="26.23"/><path class="cls-48" d="M969.37,642.15A14.14,14.14,0,1,1,955.23,628,14.14,14.14,0,0,1,969.37,642.15Z"/><circle class="cls-49" cx="1161.53" cy="263.12" r="23.91"/><path class="cls-50" d="M878.44,206.56v1.51H861.61a5.8,5.8,0,0,0-4.16,2.42,14.69,14.69,0,0,0-2.45,6.9c0,1-.37,1.93.43,6.63.52,3.06,2.9,5.9,4.83,6.5a25.63,25.63,0,0,0,5.24.18l-.06-4.85s.06-3.65,1.63-5.4,5.35-1.91,5.35-1.91,10.87.27,12.72-.09a5.53,5.53,0,0,0,3.2-2,6.25,6.25,0,0,0,1.24-2.59c.46-3.07,0-12.41,0-12.41s.11-2.73-3.93-4.28a23.34,23.34,0,0,0-7.95-1.09,20.35,20.35,0,0,0-7.65,1.41c-2.63,1.22-2.75,3.12-2.75,3.12v6Z"/><path class="cls-51" d="M878.48,232.24v-1.52H895.3a5.76,5.76,0,0,0,4.16-2.41,12.87,12.87,0,0,0,1.49-2.81,12.56,12.56,0,0,0,1-4.09c0-1,.37-1.93-.42-6.62-.52-3.06-2.9-5.9-4.84-6.51a25.53,25.53,0,0,0-5.23-.18l.05,4.84s-.05,3.66-1.63,5.4-5.35,1.91-5.35,1.91-10.87-.27-12.73.09a5.52,5.52,0,0,0-3.19,2,6.25,6.25,0,0,0-1.24,2.59c-.46,3.07,0,12.41,0,12.41s-.12,2.73,3.92,4.28a23.2,23.2,0,0,0,8,1.1,20.46,20.46,0,0,0,7.65-1.4c2.63-1.23,2.76-3.13,2.76-3.13v-6Z"/><circle class="cls-6" cx="884.94" cy="237.14" r="2.03"/><circle class="cls-6" cx="871.97" cy="201.66" r="2.03"/><path class="cls-52" d="M671,224.69s-5.57-.2-6.56-5.71l2.33-1s-.56,3.93,4.33,4.46l-.1,2.28"/><path class="cls-52" d="M706.11,224.69s5.57-.2,6.56-5.71l-2.34-1s.57,3.93-4.32,4.46l.1,2.28"/><path class="cls-52" d="M688.45,216.7a51.06,51.06,0,0,0-13.79,1.69v8.94A51.06,51.06,0,0,0,688.45,229a47.46,47.46,0,0,0,15.26-2.17v-8a47.46,47.46,0,0,0-15.26-2.17"/><path class="cls-52" d="M704,224.79a2.7,2.7,0,0,1-.05-1.5c.24-.95.91-1.47,1.5-1.17a1,1,0,0,1,.38.34h0a4,4,0,0,1,.14,4.71c0,.14-3.11,3.72-3.82,3.83-.47.08.6-3.65,1.82-6.21"/><path class="cls-52" d="M674.28,224.37a2.13,2.13,0,0,0,.17-1.48c-.21-1-1-1.67-1.69-1.51a1,1,0,0,0-.47.25h0s-2.29,1.7-.49,4.62c0,.16,3.4,4.42,4.23,4.7.55.19-.45-3.75-1.72-6.57"/><path class="cls-53" d="M671.08,224.62h0"/><path class="cls-54" d="M707.43,221.57c0-.13-.07-.25-.11-.38l1.25-1.8a.67.67,0,0,0,.07-.63.63.63,0,0,0-.48-.4l-2.1-.35-.26-.5.89-2a.69.69,0,0,0-.05-.64.66.66,0,0,0-.54-.29l-2.14.08-.34-.42.49-2.18a.67.67,0,0,0-.16-.61.62.62,0,0,0-.59-.17l-2.08.51-.41-.35.07-2.23a.66.66,0,0,0-.27-.57.63.63,0,0,0-.61-.05l-1.94.93-.48-.27-.34-2.2a.62.62,0,0,0-.38-.49.59.59,0,0,0-.6.07l-1.73,1.3-.52-.16-.75-2.09a.64.64,0,0,0-.46-.41.62.62,0,0,0-.58.2l-1.46,1.63-.53-.06-1.12-1.89a.6.6,0,0,0-.53-.31.59.59,0,0,0-.53.31L687,207l-.53.06L685,205.45a.61.61,0,0,0-.58-.2.64.64,0,0,0-.46.41l-.75,2.09-.51.16-1.73-1.3a.61.61,0,0,0-.61-.07.64.64,0,0,0-.38.49l-.34,2.2-.47.27-1.95-.93a.61.61,0,0,0-.6.05.67.67,0,0,0-.28.57l.07,2.23-.41.35-2.08-.51a.6.6,0,0,0-.58.17.65.65,0,0,0-.17.61l.49,2.17c-.11.15-.23.29-.34.43l-2.13-.08a.66.66,0,0,0-.55.29.69.69,0,0,0,0,.64l.89,2c-.09.17-.17.33-.25.5l-2.11.35a.67.67,0,0,0-.48.4.7.7,0,0,0,.07.63l1.25,1.8,0,.1-.68.73,1.84,2.6s17.66,8.14,34,.13c1.88-.33,2.31-3.18,2.31-3.18"/><path class="cls-9" d="M694.22,221.27c0,.8-.47,1.45-1.05,1.45s-1.06-.65-1.06-1.45.47-1.46,1.06-1.46,1.05.65,1.05,1.46"/><ellipse cx="684.2" cy="221.9" rx="2.2" ry="2.72"/><rect class="cls-55" x="667.12" y="204.81" width="43.03" height="31.74"/><path class="cls-9" d="M685,221.27c0,.83-.49,1.51-1.1,1.51s-1.1-.68-1.1-1.51.5-1.52,1.1-1.52,1.1.68,1.1,1.52"/><ellipse cx="693.54" cy="221.9" rx="2.2" ry="2.72"/><path class="cls-9" d="M694.33,221.27c0,.83-.5,1.51-1.1,1.51s-1.1-.68-1.1-1.51.49-1.52,1.1-1.52,1.1.68,1.1,1.52"/><path class="cls-54" d="M671.65,225.07c.45-.51,1.53-1.12,1.44-1.88a2.38,2.38,0,0,0-2.52-2.22,2.32,2.32,0,0,0-.85.29h-.05s-4.21,2.06-1.81,6.19c0,.21,4.78,6.32,6.12,6.79.87.3-.81-5.23-2.33-9.16"/><path class="cls-54" d="M705.83,224.88c-.52-.43-1.88-.82-1.91-1.59a2.38,2.38,0,0,1,2.17-2.57,2.18,2.18,0,0,1,.88.16l0,0s4.47,1.42,2.71,5.86c0,.21-3.8,7-5.05,7.62-.82.43.22-5.34,1.15-9.46"/><rect class="cls-55" x="667.12" y="204.82" width="43.02" height="31.73"/><rect class="cls-55" x="667.12" y="204.81" width="43.03" height="31.74"/><path class="cls-54" d="M664.69,215.26s-1-2-2.67-4.6c-1.75.86-2.62,3.22-2,5.59.72,2.62,3,4.27,5.16,3.68s3.26-3.19,2.53-5.81a5.62,5.62,0,0,0-1.74-2.8,16.7,16.7,0,0,1-1.32,3.94"/><rect class="cls-55" x="667.12" y="204.82" width="43.02" height="31.73"/><path class="cls-54" d="M712.43,215.26s1-2,2.67-4.6c1.74.86,2.61,3.22,2,5.59-.73,2.62-3,4.27-5.16,3.68s-3.26-3.19-2.54-5.81a5.64,5.64,0,0,1,1.75-2.8,16.7,16.7,0,0,0,1.32,3.94"/><path d="M691.37,225.28a2.33,2.33,0,1,1-4.65.15Z"/><path class="cls-56" d="M1114.11,405.52,1100,391.79l1.13-2.92,19.66-.61-1.21,3.12-15.54.3,11.25,10.72Z"/><path class="cls-56" d="M1134.35,388.58l-17.29,22.63-2.52-1,17.29-22.63Z"/><path class="cls-56" d="M1147.59,410.29l-19.65.6,1.21-3.11,15.53-.31-11.25-10.72,1.22-3.11,14.08,13.73Z"/><path class="cls-57" d="M530.22,260.56l-1.37.77a16.33,16.33,0,0,1-3.77,1.63,5.38,5.38,0,0,1-3.65-.39,8.55,8.55,0,0,1-3.35-2.7,51.16,51.16,0,0,1-3.61-5.71,49.06,49.06,0,0,0-3.5-5.56,6.83,6.83,0,0,0-3.15-2.36,5.16,5.16,0,0,0-4.23.64l-2.28-4a5.13,5.13,0,0,0,2.73-3.29,6.92,6.92,0,0,0-.39-3.91,50.15,50.15,0,0,0-3-5.88,52.32,52.32,0,0,1-3-6,8.6,8.6,0,0,1-.58-4.26,5.42,5.42,0,0,1,1.55-3.33,16.64,16.64,0,0,1,3.34-2.39l1.36-.77,2.19,3.86-.77.44c-1.72,1-2.51,2-2.39,3.14s1.32,3.69,3.58,7.69c2,3.58,3,6.47,3,8.65a8.26,8.26,0,0,1-2.38,5.79,8.17,8.17,0,0,1,6.18.92q2.81,1.68,5.85,7.06,3.38,6,4.74,7t3.92-.42l.77-.43Z"/><path class="cls-57" d="M505.75,211.61l1.36-.77a16.38,16.38,0,0,1,3.78-1.63,5.38,5.38,0,0,1,3.65.39,8.62,8.62,0,0,1,3.35,2.7,49.94,49.94,0,0,1,3.6,5.71,50.27,50.27,0,0,0,3.51,5.56,6.92,6.92,0,0,0,3.14,2.36,5.15,5.15,0,0,0,4.23-.64l2.28,4a5.19,5.19,0,0,0-2.73,3.29,6.93,6.93,0,0,0,.4,3.91,50.58,50.58,0,0,0,3,5.87,49.92,49.92,0,0,1,3,6,8.48,8.48,0,0,1,.58,4.26,5.37,5.37,0,0,1-1.55,3.33,16.27,16.27,0,0,1-3.33,2.39l-1.37.77-2.18-3.86.77-.44c1.71-1,2.51-2,2.38-3.15s-1.31-3.69-3.57-7.68c-2-3.58-3-6.47-3-8.65a8.16,8.16,0,0,1,2.4-5.77,8.24,8.24,0,0,1-6.19-.94q-2.81-1.68-5.85-7.06c-2.26-4-3.84-6.34-4.74-7s-2.21-.54-3.93.43l-.77.43Z"/><line class="cls-58" x1="766.01" y1="668.71" x2="775.02" y2="705.66"/><line class="cls-58" x1="788.01" y1="678.55" x2="752.2" y2="695.15"/><path class="cls-59" d="M794.53,202.36a84.8,84.8,0,0,1,1,8.84,8.68,8.68,0,0,1-1.54,5.17c-.25.88-1,0-1.51,0-1.31,0-1.79-1.41-2.49-2.27s-.2-1.66.27-2.35c.5-.36.7-1.17,1.43-1.17s.63-1,.53-1.53c.48-.74.19-1.83.66-2.64.84-.37.59-1.69.89-2.43.23-.52,0-1.53.67-1.76,0,0,.08,0,.07.12m-.81-30.13c-1.11-.13-1.94.63-2.87,1a20.69,20.69,0,0,1-2.34.63c-.58,1.17-1.9,1.87-2.62,3A11.69,11.69,0,0,1,782,182.4c-2.6,1.35-3.91,4.28-4.77,7-.29.62-.25,1.53-.56,2.06-1,.29-.49-1.05-.6-1.7-.16-1,.69-1.58.75-2.52a3.89,3.89,0,0,0,.42-2.17c-.12-1.68.39-3.72-.8-5.09-.7-.42-.48-1.28-.74-2a8.5,8.5,0,0,0-2.61-2.35c-.85-.08-1.62-1.17-2.49-.67-.54.64-1.54.62-1.85,1.47-.2,1.06-1.39.77-2.16,1-1,.39-2.25,0-3.06.79s-2.14,1.93-1.74,3.26c.93,1.82,3.32.9,4.62,2A36.66,36.66,0,0,1,765,187.2a21.32,21.32,0,0,0-.09,4.79c.24,1.6-.17,3.65,1.17,4.78.76.28.72,1.17,1,1.83s.86-.24,1.09.4c.68.37.07,1.17.45,1.64a3.21,3.21,0,0,1,1.65.88,14.13,14.13,0,0,1,2,1.7c.47,1,1.07-.94,1.58-.22a1.18,1.18,0,0,0,1.53.65l.13-.07a6,6,0,0,0,2.62-1.13c.51,1.79.12,3.74.34,5.59a23.92,23.92,0,0,1,.59,4.12,19.71,19.71,0,0,1,.61,4.18,14.94,14.94,0,0,1-1.43,8.55,2.06,2.06,0,0,1-1.63,1.64c-.59.27-1.81.75-1.4,1.6,1.36,1.17,3.52,1,5.08.44,1-.5.14-1.76.67-2.52.69-2.67.35-5.54,1.17-8.21a7.88,7.88,0,0,0,.7-4.33c.16-.9-.21-2,.37-2.73a3.81,3.81,0,0,1,1-2.47,32.2,32.2,0,0,0,.3-4.16,6.28,6.28,0,0,1,2.55-.26c0,.77-.55,1.67-.38,2.53a4.12,4.12,0,0,1-.53,2.83c-.37,1.53-.61,3.4.34,4.69,1.57,1.73,3.62,2.95,5.11,4.79a1.08,1.08,0,0,1,.17,1.52l-.1.1a3.11,3.11,0,0,1-2,2.12c-.62.25-1.62,1.18-.89,1.82a7.77,7.77,0,0,0,4.4-.29c1-.35.61-1.51,1-2.24a21.1,21.1,0,0,1,1.43,2.19c.6.89,1.63.15,2.35-.13a7.49,7.49,0,0,0-.76-3.78c-.33-.77-1.61-.79-1.55-1.74.63-2.35,2.2-4.18,3.45-6.16,1-1,.26-2.45.32-3.7a14.05,14.05,0,0,1,2.19-9.1,32.15,32.15,0,0,0,1.4,4.4,12.69,12.69,0,0,0,2.18,4.64c.48,1.67.35,3.52.67,5.25a21.93,21.93,0,0,1-.5,8.94c.09,1.06-.92,1.85-.83,2.9.28,1,1.41.18,2,.59a2.24,2.24,0,0,0,2.68-1.17,12.43,12.43,0,0,1-.49-2.5,15.51,15.51,0,0,1-.52-7.65c.09-1.38.93-3.07-.15-4.26-.3-1.26.21-2.64-.1-3.94a27.08,27.08,0,0,1-.24-10.15c.19-.47,0-1.33.5-1.59a3.84,3.84,0,0,1,.64,2.53,7.79,7.79,0,0,1,.16,4.28c-.86,1.1-.33,2.57-.22,3.81.14.86,1,.24,1.17-.3a24.06,24.06,0,0,0,1.9-4.61c.54-.73,0-1.58,0-2.35.83-.1.52-1,.07-1.45-.44-1.5-.34-3.24-1.35-4.52a21.81,21.81,0,0,1-3.92-5.6c-1.06-3.37-4.11-5.61-5.15-9a7.27,7.27,0,0,0-3.27-4.78,16.1,16.1,0,0,0-2.35-.86,12,12,0,0,1-2.07.26"/><polyline class="cls-60" points="1119.75 125.46 1116.53 130.52 1111.46 127.3"/><line class="cls-61" x1="1105.23" y1="123.33" x2="1095.87" y2="117.38"/><polyline class="cls-60" points="1092.75 115.39 1087.69 112.17 1090.91 107.11"/><line class="cls-61" x1="1094.88" y1="100.87" x2="1100.84" y2="91.52"/><polyline class="cls-60" points="1102.82 88.4 1106.04 83.34 1111.1 86.56"/><line class="cls-61" x1="1117.34" y1="90.53" x2="1126.7" y2="96.48"/><polyline class="cls-60" points="1129.81 98.47 1134.88 101.69 1131.65 106.75"/><line class="cls-61" x1="1127.68" y1="112.99" x2="1121.73" y2="122.34"/><path class="cls-62" d="M954.39,461.51c0-7,5.67-10.48,12.66-10.48s12.67,3.49,12.67,10.48Z"/><path class="cls-63" d="M958.32,457.08c0-3.18,4.31-4.54,8.73-4.54s8.7,1.31,8.7,4.48Z"/><path class="cls-64" d="M791.85,203.54a82.18,82.18,0,0,1,1,8.84,8.68,8.68,0,0,1-1.54,5.17c-.24.88-1,0-1.51,0-1.3,0-1.78-1.41-2.49-2.27s-.2-1.66.27-2.35c.51-.36.71-1.17,1.43-1.17s.64-1,.53-1.53c.48-.74.19-1.83.66-2.64.84-.37.6-1.69.89-2.43.23-.53,0-1.53.67-1.76,0,0,.08,0,.07.12M791,173.39c-1.1-.13-1.94.62-2.86,1.05a24,24,0,0,1-2.35.63c-.57,1.17-1.9,1.87-2.62,3a11.73,11.73,0,0,1-3.91,5.54c-2.61,1.35-3.92,4.28-4.78,7-.29.62-.25,1.53-.56,2.06-1,.29-.48-1.06-.6-1.7-.15-1,.69-1.58.75-2.52a3.81,3.81,0,0,0,.42-2.17c-.12-1.68.39-3.72-.8-5.1-.7-.41-.48-1.27-.73-1.94a8.53,8.53,0,0,0-2.62-2.35c-.85-.08-1.62-1.17-2.49-.67-.54.64-1.54.62-1.85,1.47-.2,1.05-1.39.77-2.16,1-1,.39-2.25,0-3.06.79s-2.14,1.93-1.74,3.26c.93,1.82,3.32.9,4.62,2a35.7,35.7,0,0,1-1.42,3.59,21.41,21.41,0,0,0-.09,4.8c.25,1.6-.16,3.65,1.17,4.78.77.28.72,1.17,1,1.83s.86-.24,1.09.4c.68.37.07,1.17.45,1.64a3.17,3.17,0,0,1,1.65.88,13.6,13.6,0,0,1,2,1.7c.47,1,1.07-.94,1.58-.22a1.17,1.17,0,0,0,1.53.64.38.38,0,0,0,.13-.06,6.11,6.11,0,0,0,2.63-1.13c.5,1.79.11,3.74.34,5.59a24.92,24.92,0,0,1,.58,4.12,19.71,19.71,0,0,1,.61,4.18,14.86,14.86,0,0,1-1.43,8.55,2.06,2.06,0,0,1-1.63,1.64c-.59.27-1.81.75-1.4,1.6,1.37,1.17,3.52,1,5.08.44,1-.5.14-1.76.67-2.52.69-2.67.35-5.54,1.18-8.21a8,8,0,0,0,.69-4.33c.16-.9-.21-2,.37-2.73a3.81,3.81,0,0,1,1-2.47,30.52,30.52,0,0,0,.3-4.16,6.28,6.28,0,0,1,2.55-.26c0,.77-.55,1.66-.38,2.53a4.12,4.12,0,0,1-.53,2.83c-.36,1.53-.61,3.4.34,4.69,1.57,1.73,3.63,2.95,5.12,4.79a1.09,1.09,0,0,1,.16,1.52l-.09.1a3.12,3.12,0,0,1-2,2.12c-.62.25-1.62,1.18-.89,1.82a7.77,7.77,0,0,0,4.4-.29c1-.35.61-1.52,1-2.24a23,23,0,0,1,1.44,2.19c.59.89,1.63.15,2.34-.13a7.39,7.39,0,0,0-.76-3.78c-.33-.77-1.61-.79-1.55-1.74.63-2.35,2.21-4.18,3.45-6.16,1-1,.26-2.46.32-3.7a14,14,0,0,1,2.19-9.1,33.05,33.05,0,0,0,1.4,4.4,12.85,12.85,0,0,0,2.18,4.64c.48,1.67.35,3.52.67,5.25a21.93,21.93,0,0,1-.5,8.94c.09,1.06-.92,1.85-.83,2.89.28,1,1.41.19,2,.6a2.22,2.22,0,0,0,2.67-1.17,13.32,13.32,0,0,1-.49-2.5,15.64,15.64,0,0,1-.52-7.65c.1-1.38.93-3.07-.15-4.26-.29-1.26.21-2.64-.09-3.94a26.87,26.87,0,0,1-.25-10.15c.19-.47,0-1.34.5-1.59a3.84,3.84,0,0,1,.64,2.53,7.79,7.79,0,0,1,.16,4.28c-.85,1.09-.33,2.57-.22,3.8.14.87,1,.25,1.17-.29a24.06,24.06,0,0,0,1.9-4.61c.54-.73,0-1.58,0-2.35.84-.1.52-1,.07-1.45-.44-1.5-.34-3.24-1.35-4.52a21.66,21.66,0,0,1-3.91-5.61c-1.07-3.36-4.12-5.6-5.15-9a7.33,7.33,0,0,0-3.28-4.77,15.28,15.28,0,0,0-2.34-.86,12.2,12.2,0,0,1-2.08.26"/><rect class="cls-65" x="645.85" y="462.24" width="409.18" height="34.03" rx="9.26"/><rect class="cls-66" x="666.31" y="496.81" width="22.2" height="10.33"/><rect class="cls-66" x="1011.33" y="496.81" width="22.35" height="10.33"/><rect class="cls-66" x="689.64" y="496.81" width="320.55" height="10.33"/><rect class="cls-3" x="977.67" y="185.22" width="2.58" height="49.07"/><path class="cls-9" d="M980.13,185.35v48.82H977.8V185.35h2.33m.25-.25h-2.83v49.32h2.83V185.1Z"/><rect class="cls-3" x="982.28" y="199.06" width="2.58" height="35.24"/><path class="cls-9" d="M984.74,199.18v35h-2.33v-35h2.33m.25-.25h-2.83v35.49H985V198.93Z"/><rect class="cls-9" x="964.91" y="182.54" width="2.95" height="50.27"/><rect class="cls-18" x="1015.32" y="192.93" width="13.8" height="51.21" transform="translate(64.36 637.11) rotate(-35.67)"/><rect class="cls-3" x="1015.69" y="205.17" width="13.55" height="27.42" transform="translate(64.22 637.34) rotate(-35.67)"/><path class="cls-9" d="M1019.94,204,1035.78,226l-10.8,7.75-15.84-22.07,10.8-7.75m0-.35-11.2,8,16.13,22.48,11.21-8L1020,203.62Z"/><rect class="cls-67" x="764.8" y="321.75" width="28.91" height="3.21"/><rect class="cls-67" x="764.8" y="367.67" width="28.91" height="3.21"/><rect class="cls-8" x="781.81" y="344.71" width="57.78" height="3.21"/><rect class="cls-68" x="781.81" y="356.19" width="134.13" height="3.21"/><rect class="cls-57" x="781.81" y="390.63" width="53.76" height="3.21"/><rect class="cls-8" x="842.66" y="390.63" width="81.97" height="3.21"/><rect class="cls-9" x="781.67" y="402.45" width="119.15" height="3.21"/><rect class="cls-9" x="846.16" y="344.71" width="28.91" height="3.21"/><rect class="cls-9" x="781.81" y="379.15" width="28.91" height="3.21"/><rect class="cls-9" x="818.09" y="379.15" width="16.02" height="3.21"/><rect class="cls-45" x="841.63" y="379.15" width="60.14" height="3.21"/><rect class="cls-9" x="781.67" y="333.23" width="152.6" height="3.21"/></svg>