<svg id="Слой_1" data-name="Слой 1" xmlns="http://www.w3.org/2000/svg" viewBox="0 0 190.67 180.52"><defs><style>.cls-1,.cls-13,.cls-31{fill:#fff;}.cls-2{fill:#d7d8d6;}.cls-3{fill:#98a8d3;}.cls-4{fill:#d0e5f4;}.cls-5{fill:#e08282;}.cls-6{fill:#d9e8f5;}.cls-7{fill:#a7c6d1;}.cls-8{fill:#c3dded;}.cls-9{fill:#cce2f2;}.cls-10{fill:#ebede8;}.cls-11{fill:#76a0b0;}.cls-12{fill:#707b84;}.cls-13{stroke:#aaafe8;}.cls-13,.cls-14,.cls-15,.cls-16,.cls-31,.cls-32{stroke-miterlimit:10;}.cls-13,.cls-31{stroke-width:0.5px;}.cls-14,.cls-15{fill:none;}.cls-14{stroke:#efeee6;}.cls-14,.cls-16,.cls-32{stroke-width:0.25px;}.cls-15{stroke:#909aa5;}.cls-16{fill:#ea8a54;stroke:#ea8a54;}.cls-17{fill:#f9fcf5;}.cls-18{fill:#f4e992;}.cls-19{fill:#96bcb5;}.cls-20{fill:#e4f0f9;}.cls-21{fill:#d8e9ef;}.cls-22{fill:#a1b6e5;}.cls-23{fill:#d1dfe8;}.cls-24{fill:#ced9ea;}.cls-25{fill:#aab2b1;}.cls-26{fill:#d6e4ed;}.cls-27{fill:#6a7bd9;}.cls-28{fill:#fffbff;}.cls-29{fill:#6d8ef2;}.cls-30{fill:#e58989;}.cls-31{stroke:#a2c8dd;}.cls-32{fill:#f26101;stroke:#f26101;}.cls-33{fill:#000202;}</style></defs><title>ourClients</title><ellipse class="cls-1" cx="95.33" cy="90.26" rx="95.33" ry="90.26"/><rect class="cls-2" x="89.52" y="36.99" width="48.65" height="97.39"/><rect class="cls-3" x="96.53" y="94.7" width="9.01" height="13.8"/><rect class="cls-3" x="109.34" y="94.7" width="9.01" height="13.8"/><rect class="cls-3" x="122.14" y="94.7" width="9.01" height="13.8"/><rect class="cls-3" x="102.94" y="117.2" width="21.86" height="14.94"/><rect class="cls-4" x="97.01" y="95.22" width="8.06" height="12.78"/><rect class="cls-4" x="109.81" y="95.22" width="8.06" height="12.78"/><rect class="cls-4" x="122.62" y="95.22" width="8.06" height="12.78"/><rect class="cls-5" x="93.14" y="34.4" width="41.41" height="2.59"/><rect class="cls-6" x="104.07" y="117.99" width="19.6" height="13.63"/><rect class="cls-7" x="89.52" y="41.72" width="48.65" height="5.36"/><polygon class="cls-8" points="117.87 95.22 117.87 108.06 109.81 108.06 117.87 95.22"/><polygon class="cls-8" points="105.07 95.22 105.07 108.06 97 108.06 105.07 95.22"/><polygon class="cls-8" points="130.68 95.22 130.68 108.06 122.62 108.06 130.68 95.22"/><rect class="cls-3" x="96.53" y="73.87" width="9.01" height="13.8"/><rect class="cls-3" x="109.34" y="73.87" width="9.01" height="13.8"/><rect class="cls-3" x="122.14" y="73.87" width="9.01" height="13.8"/><rect class="cls-4" x="97.01" y="74.38" width="8.06" height="12.78"/><rect class="cls-4" x="109.81" y="74.38" width="8.06" height="12.78"/><rect class="cls-4" x="122.62" y="74.38" width="8.06" height="12.78"/><polygon class="cls-8" points="117.87 74.38 117.87 87.22 109.81 87.22 117.87 74.38"/><polygon class="cls-8" points="105.07 74.38 105.07 87.22 97 87.22 105.07 74.38"/><rect class="cls-3" x="97.33" y="52.4" width="13.15" height="13.32"/><rect class="cls-4" x="98.03" y="52.9" width="11.77" height="12.33"/><polygon class="cls-8" points="109.79 52.9 109.79 65.3 98.03 65.3 109.79 52.9"/><rect class="cls-3" x="116.73" y="52.4" width="13.15" height="13.32"/><rect class="cls-4" x="117.43" y="52.9" width="11.77" height="12.33"/><polygon class="cls-8" points="129.19 52.9 129.19 65.3 117.43 65.3 129.19 52.9"/><polygon class="cls-8" points="130.68 74.38 130.68 87.22 122.62 87.22 130.68 74.38"/><polygon class="cls-9" points="123.67 117.99 123.67 131.62 104.07 131.62 123.67 117.99"/><rect class="cls-5" x="87.96" y="132.15" width="51.76" height="2.23"/><rect class="cls-3" x="113.36" y="117.57" width="1.03" height="14.13"/><rect class="cls-10" x="41.13" y="63.32" width="54.11" height="74.94"/><rect class="cls-3" x="47.83" y="101.99" width="10.94" height="11.35"/><rect class="cls-3" x="63.38" y="101.99" width="10.94" height="11.35"/><rect class="cls-3" x="78.82" y="101.99" width="11.14" height="11.35"/><rect class="cls-3" x="54.77" y="119.23" width="26.97" height="17.79"/><rect class="cls-6" x="48.41" y="102.51" width="9.79" height="10.32"/><rect class="cls-6" x="63.95" y="102.51" width="9.79" height="10.32"/><rect class="cls-6" x="79.49" y="102.51" width="9.79" height="10.32"/><rect class="cls-11" x="39.94" y="61.95" width="56.47" height="1.37"/><rect class="cls-6" x="55.83" y="120.41" width="24.7" height="15.6"/><rect class="cls-3" x="47.83" y="85.16" width="10.94" height="11.35"/><rect class="cls-3" x="63.38" y="85.16" width="10.94" height="11.35"/><rect class="cls-3" x="78.92" y="85.16" width="10.94" height="11.35"/><rect class="cls-6" x="48.41" y="85.68" width="9.79" height="10.32"/><rect class="cls-6" x="63.95" y="85.68" width="9.79" height="10.32"/><rect class="cls-6" x="79.49" y="85.68" width="9.79" height="10.32"/><rect class="cls-3" x="47.83" y="69.32" width="10.94" height="11.14"/><rect class="cls-3" x="63.38" y="69.32" width="10.94" height="11.14"/><rect class="cls-3" x="78.92" y="69.32" width="10.94" height="11.14"/><rect class="cls-6" x="48.41" y="69.74" width="9.79" height="10.32"/><rect class="cls-6" x="63.95" y="69.74" width="9.79" height="10.32"/><rect class="cls-6" x="79.49" y="69.74" width="9.79" height="10.32"/><polygon class="cls-9" points="73.74 105.8 73.74 112.88 63.95 112.88 73.74 105.8"/><polygon class="cls-9" points="58.2 105.8 58.2 112.88 48.41 112.88 58.2 105.8"/><polygon class="cls-9" points="89.28 105.8 89.28 112.88 79.49 112.88 89.28 105.8"/><polygon class="cls-9" points="73.74 87.71 73.74 96.05 63.95 96.05 73.74 87.71"/><polygon class="cls-9" points="58.2 88.3 58.2 96.05 48.41 96.05 58.2 88.3"/><polygon class="cls-9" points="89.28 87.71 89.28 96.05 79.49 96.05 89.28 87.71"/><polygon class="cls-9" points="73.74 72.38 73.74 80.11 63.95 80.11 73.74 72.38"/><polygon class="cls-9" points="58.2 72.38 58.2 80.11 48.41 80.11 58.2 72.38"/><polygon class="cls-9" points="89.28 72.38 89.28 80.11 79.49 80.11 89.28 72.38"/><polygon class="cls-9" points="80.53 126.83 80.53 135.89 55.83 135.89 80.53 126.83"/><rect class="cls-11" x="38.15" y="136.89" width="60.06" height="2.75"/><rect class="cls-3" x="67.51" y="119.93" width="1.33" height="16.05"/><rect class="cls-12" x="107.02" y="85.99" width="2.67" height="8.9"/><rect class="cls-12" x="138.65" y="85.99" width="2.67" height="8.9"/><rect class="cls-13" x="102.28" y="78.25" width="43.2" height="7.74" rx="1.62"/><polyline class="cls-14" points="144.76 78.52 145.32 79.89 145.6 84.01 144.76 85.72 109.9 85.95 103.43 85.92 102.67 85.41"/><rect class="cls-15" x="102.28" y="78.17" width="43.2" height="7.74" rx="1.62"/><path class="cls-16" d="M112.65,83.53a2.31,2.31,0,0,1-1,.19A1.6,1.6,0,0,1,110,82a1.72,1.72,0,0,1,1.82-1.8,2,2,0,0,1,.85.18l-.14.47a1.48,1.48,0,0,0-.71-.16,1.17,1.17,0,0,0-1.2,1.28,1.15,1.15,0,0,0,1.17,1.26,1.92,1.92,0,0,0,.76-.16Z"/><path class="cls-16" d="M116.39,81.94a1.64,1.64,0,0,1-1.68,1.79A1.6,1.6,0,0,1,113.09,82a1.65,1.65,0,0,1,1.67-1.8A1.6,1.6,0,0,1,116.39,81.94Zm-2.68,0c0,.74.43,1.3,1,1.3s1-.55,1-1.31c0-.58-.28-1.3-1-1.3S113.71,81.33,113.71,82Z"/><path class="cls-16" d="M117.17,81.19c0-.35,0-.64,0-.92h.54l0,.55h0a1.17,1.17,0,0,1,1.06-.63,1,1,0,0,1,1,.68h0a1.51,1.51,0,0,1,.38-.44,1.18,1.18,0,0,1,.75-.24c.45,0,1.11.3,1.11,1.47v2h-.6V81.74c0-.65-.24-1-.74-1a.78.78,0,0,0-.72.56.9.9,0,0,0,0,.3v2.09h-.6v-2c0-.54-.24-.93-.71-.93a.85.85,0,0,0-.76.61.76.76,0,0,0,0,.3v2h-.6Z"/><path class="cls-16" d="M123,81.38c0-.44,0-.79,0-1.11h.55l0,.58h0a1.33,1.33,0,0,1,1.2-.66,1.53,1.53,0,0,1,1.43,1.72,1.6,1.6,0,0,1-1.54,1.82,1.18,1.18,0,0,1-1-.53h0V85H123Zm.61.9a1,1,0,0,0,0,.25.94.94,0,0,0,.92.72c.65,0,1-.53,1-1.31s-.36-1.26-1-1.26a1,1,0,0,0-.93.77.93.93,0,0,0,0,.25Z"/><path class="cls-16" d="M128.85,83.65l0-.42h0a1.27,1.27,0,0,1-1,.5,1,1,0,0,1-1-1c0-.82.73-1.27,2-1.26v-.07a.7.7,0,0,0-.77-.78,1.68,1.68,0,0,0-.88.25l-.14-.4a2,2,0,0,1,1.11-.31c1,0,1.28.71,1.28,1.39v1.26a4.87,4.87,0,0,0,.06.81Zm-.09-1.72c-.67,0-1.43.1-1.43.76a.54.54,0,0,0,.58.59.82.82,0,0,0,.81-.57.43.43,0,0,0,0-.19Z"/><path class="cls-16" d="M130.35,81.19c0-.35,0-.64,0-.92h.54l0,.56h0a1.25,1.25,0,0,1,1.12-.64c.47,0,1.2.28,1.2,1.44v2h-.62v-2c0-.54-.2-1-.78-1a.88.88,0,0,0-.83.62.88.88,0,0,0,0,.29v2h-.61Z"/><path class="cls-16" d="M134.36,80.27l.74,2c.08.22.16.49.22.69h0c.06-.2.13-.46.22-.7l.67-2h.65l-.93,2.41a5.13,5.13,0,0,1-1.16,2.12,1.66,1.66,0,0,1-.75.4l-.15-.52a1.71,1.71,0,0,0,.53-.3,1.84,1.84,0,0,0,.52-.68.5.5,0,0,0,0-.15.45.45,0,0,0,0-.16l-1.25-3.12Z"/><rect class="cls-17" x="85.85" y="95.25" width="77.08" height="47.63"/><rect class="cls-18" x="91.01" y="91.81" width="65.91" height="3.93"/><rect class="cls-19" x="85.85" y="95.02" width="77.08" height="2.09"/><rect class="cls-3" x="95.63" y="105.37" width="10.32" height="10.32"/><rect class="cls-3" x="114.72" y="105.37" width="20.44" height="10.2"/><rect class="cls-20" x="96.41" y="106" width="8.76" height="9.06"/><polygon class="cls-21" points="105.16 110.02 105.16 115.08 96.41 115.08 105.16 110.02"/><rect class="cls-19" x="82.74" y="142.93" width="85.55" height="2.66"/><rect class="cls-22" x="94.73" y="125.53" width="12.92" height="17.4"/><rect class="cls-6" x="95.7" y="126.56" width="10.99" height="8.25"/><polygon class="cls-23" points="106.69 132.38 106.69 134.86 95.7 134.86 106.69 132.38"/><rect class="cls-24" x="104.93" y="135.76" width="0.88" height="2.14" rx="0.44"/><rect class="cls-25" x="104.07" y="136.66" width="1.34" height="0.35" rx="0.18"/><rect class="cls-20" x="115.38" y="106.04" width="19.16" height="8.87"/><polyline class="cls-26" points="134.53 108.5 134.53 114.91 115.38 114.91"/><rect class="cls-3" x="138.77" y="105.37" width="20.44" height="10.2"/><rect class="cls-20" x="139.43" y="106.04" width="19.16" height="8.87"/><polyline class="cls-26" points="158.58 108.5 158.58 114.91 139.43 114.91"/><rect class="cls-3" x="114.72" y="123.52" width="20.44" height="10.2"/><rect class="cls-20" x="115.38" y="124.19" width="19.16" height="8.87"/><polyline class="cls-26" points="134.53 126.64 134.53 133.06 115.38 133.06"/><rect class="cls-3" x="138.77" y="123.52" width="20.44" height="10.2"/><rect class="cls-20" x="139.43" y="124.19" width="19.16" height="8.87"/><polyline class="cls-26" points="158.58 126.64 158.58 133.06 139.43 133.06"/><rect class="cls-3" x="124.68" y="123.86" width="0.54" height="9.51"/><rect class="cls-3" x="124.68" y="105.77" width="0.54" height="9.51"/><rect class="cls-3" x="100.52" y="105.77" width="0.54" height="9.51"/><rect class="cls-3" x="148.73" y="123.86" width="0.54" height="9.51"/><rect class="cls-3" x="148.73" y="105.77" width="0.54" height="9.51"/><rect class="cls-27" x="27.58" y="110.8" width="6.38" height="1.06"/><rect class="cls-27" x="27.58" y="126.21" width="6.38" height="1.06"/><rect class="cls-28" x="32.9" y="94.85" width="49.97" height="54.75"/><rect class="cls-29" x="38.74" y="103.89" width="10.1" height="14.35" rx="1"/><rect class="cls-29" x="53.1" y="103.89" width="10.1" height="14.35" rx="1"/><rect class="cls-29" x="67.45" y="103.89" width="10.1" height="14.35" rx="1"/><rect class="cls-29" x="55.22" y="126.74" width="22.33" height="14.36" rx="1"/><rect class="cls-3" x="39.28" y="129.4" width="11.16" height="18.49" rx="1"/><rect class="cls-6" x="55.76" y="127.28" width="21.26" height="13.29"/><rect class="cls-6" x="39.28" y="104.42" width="9.04" height="13.29"/><rect class="cls-6" x="53.63" y="104.42" width="9.04" height="13.29"/><rect class="cls-6" x="67.98" y="104.42" width="9.04" height="13.29"/><rect class="cls-30" x="36.62" y="93.39" width="42.53" height="1.46"/><rect class="cls-30" x="31.3" y="147.48" width="53.16" height="2.13"/><rect class="cls-31" x="22.8" y="106.54" width="5.85" height="24.45"/><path class="cls-32" d="M25.1,110.78a1.14,1.14,0,0,0,.53.15c.29,0,.42-.14.42-.32s-.11-.3-.4-.41-.59-.36-.59-.62a.68.68,0,0,1,.76-.64,1.1,1.1,0,0,1,.54.13l-.1.29a.87.87,0,0,0-.45-.12c-.23,0-.36.13-.36.3s.13.26.41.37.58.33.58.66-.3.66-.82.66a1.29,1.29,0,0,1-.62-.15Z"/><path class="cls-32" d="M24.87,113.41h.4v1.37h0a.75.75,0,0,1,.28-.28.81.81,0,0,1,.41-.11c.29,0,.77.18.77.94v1.3h-.4v-1.26c0-.35-.13-.65-.51-.65a.58.58,0,0,0-.54.4.53.53,0,0,0,0,.19v1.32h-.4Z"/><path class="cls-32" d="M26.86,121a1.08,1.08,0,0,1-1.1,1.17A1.05,1.05,0,0,1,24.71,121a1.07,1.07,0,0,1,1.09-1.16A1,1,0,0,1,26.86,121Zm-1.75,0c0,.48.28.85.67.85s.67-.36.67-.86-.19-.84-.66-.84S25.11,120.57,25.11,121Z"/><path class="cls-32" d="M24.87,126.06c0-.29,0-.51,0-.72h.36l0,.38h0a.88.88,0,0,1,.79-.43,1,1,0,0,1,.93,1.12,1,1,0,0,1-1,1.18.77.77,0,0,1-.68-.35h0v1.19h-.39Zm.39.58a.78.78,0,0,0,0,.16.61.61,0,0,0,.6.47c.42,0,.67-.34.67-.85s-.24-.81-.66-.81a.63.63,0,0,0-.6.49.9.9,0,0,0,0,.16Z"/><rect class="cls-6" x="40.87" y="131" width="7.97" height="8.51"/><rect class="cls-7" x="32.9" y="97.51" width="49.97" height="3.01"/><polygon class="cls-9" points="62.67 108.42 62.67 117.78 53.63 117.78 62.67 108.42"/><polygon class="cls-9" points="48.31 108.03 48.31 117.78 39.28 117.78 48.31 108.03"/><polygon class="cls-9" points="77.02 108.42 77.02 117.78 67.98 117.78 77.02 108.42"/><polygon class="cls-9" points="48.84 132.87 48.84 139.52 40.87 139.57 48.84 132.87"/><polygon class="cls-9" points="77.02 130.46 77.02 140.6 55.76 140.57 77.02 130.46"/><circle class="cls-33" cx="49.34" cy="140.86" r="0.42"/></svg>