<svg id="Слой_1" data-name="Слой 1" xmlns="http://www.w3.org/2000/svg" xmlns:xlink="http://www.w3.org/1999/xlink" viewBox="0 0 202.38 185.51"><defs><style>.cls-1{opacity:0.4;fill:url(#Безымянный_градиент_96);}.cls-14,.cls-2,.cls-32{fill:#fff;}.cls-3{fill:#d7d8d6;}.cls-4{fill:#98a8d3;}.cls-5{fill:#d0e5f4;}.cls-6{fill:#e08282;}.cls-7{fill:#d9e8f5;}.cls-8{fill:#a7c6d1;}.cls-9{fill:#c3dded;}.cls-10{fill:#cce2f2;}.cls-11{fill:#ebede8;}.cls-12{fill:#76a0b0;}.cls-13{fill:#707b84;}.cls-14{stroke:#aaafe8;}.cls-14,.cls-15,.cls-16,.cls-17,.cls-32,.cls-33{stroke-miterlimit:10;}.cls-14,.cls-17,.cls-32{stroke-width:0.5px;}.cls-15,.cls-16{fill:none;}.cls-15{stroke:#efeee6;stroke-width:0.25px;}.cls-16{stroke:#909aa5;}.cls-17{fill:#ea8a54;stroke:#ea8a54;}.cls-18{fill:#f9fcf5;}.cls-19{fill:#f4e992;}.cls-20{fill:#96bcb5;}.cls-21{fill:#e4f0f9;}.cls-22{fill:#d8e9ef;}.cls-23{fill:#a1b6e5;}.cls-24{fill:#d1dfe8;}.cls-25{fill:#ced9ea;}.cls-26{fill:#aab2b1;}.cls-27{fill:#d6e4ed;}.cls-28{fill:#6a7bd9;}.cls-29{fill:#fffbff;}.cls-30{fill:#6d8ef2;}.cls-31{fill:#e58989;}.cls-32{stroke:#a2c8dd;}.cls-33{fill:#f26101;stroke:#f26101;stroke-width:0.75px;}.cls-34{fill:#000202;}</style><linearGradient id="Безымянный_градиент_96" x1="220.81" y1="-10.28" x2="-7.37" y2="183.69" gradientUnits="userSpaceOnUse"><stop offset="0.08" stop-color="#fffabd" stop-opacity="0.6"/><stop offset="0.38" stop-color="#e2e6f5"/><stop offset="0.42" stop-color="#e1e6f5"/><stop offset="0.46" stop-color="#e0e7f5"/><stop offset="0.51" stop-color="#e0e7f5"/><stop offset="0.59" stop-color="#dfe7f5"/><stop offset="0.65" stop-color="#dee7f5"/><stop offset="0.66" stop-color="#dee7f5"/><stop offset="0.89" stop-color="#acd5f4"/><stop offset="0.99" stop-color="#66bcf2"/></linearGradient></defs><title>ourClients</title><ellipse class="cls-1" cx="100.48" cy="92.02" rx="95.33" ry="90.26"/><rect class="cls-2" x="165.25" y="47.71" width="34.01" height="8.12" rx="4.06"/><rect class="cls-2" x="2.63" y="43.46" width="30.2" height="8.12" rx="4.06"/><rect class="cls-2" x="150.13" y="35.31" width="34.01" height="8.12" rx="4.06"/><rect class="cls-2" x="10.86" y="32.83" width="34.01" height="8.12" rx="4.06"/><rect class="cls-2" x="31.98" y="163.95" width="34.01" height="8.12" rx="4.06"/><rect class="cls-2" x="148.25" y="155.83" width="34.01" height="8.12" rx="4.06"/><rect class="cls-2" x="126.5" y="11.22" width="34.01" height="8.12" rx="4.06"/><rect class="cls-2" x="44.75" y="172.07" width="34.01" height="8.12" rx="4.06"/><rect class="cls-3" x="94.66" y="38.75" width="48.65" height="97.39"/><rect class="cls-4" x="101.68" y="96.46" width="9.01" height="13.8"/><rect class="cls-4" x="114.48" y="96.46" width="9.01" height="13.8"/><rect class="cls-4" x="127.29" y="96.46" width="9.01" height="13.8"/><rect class="cls-4" x="108.09" y="118.96" width="21.86" height="14.94"/><rect class="cls-5" x="102.15" y="96.97" width="8.06" height="12.78"/><rect class="cls-5" x="114.96" y="96.97" width="8.06" height="12.78"/><rect class="cls-5" x="127.76" y="96.97" width="8.06" height="12.78"/><rect class="cls-6" x="98.28" y="36.15" width="41.41" height="2.59"/><rect class="cls-7" x="109.22" y="119.75" width="19.6" height="13.63"/><rect class="cls-8" x="94.66" y="43.48" width="48.65" height="5.36"/><polygon class="cls-9" points="123.02 96.97 123.02 109.81 114.96 109.81 123.02 96.97"/><polygon class="cls-9" points="110.21 96.97 110.21 109.81 102.15 109.81 110.21 96.97"/><polygon class="cls-9" points="135.82 96.97 135.82 109.81 127.76 109.81 135.82 96.97"/><rect class="cls-4" x="101.68" y="75.62" width="9.01" height="13.8"/><rect class="cls-4" x="114.48" y="75.62" width="9.01" height="13.8"/><rect class="cls-4" x="127.29" y="75.62" width="9.01" height="13.8"/><rect class="cls-5" x="102.15" y="76.13" width="8.06" height="12.78"/><rect class="cls-5" x="114.96" y="76.13" width="8.06" height="12.78"/><rect class="cls-5" x="127.76" y="76.13" width="8.06" height="12.78"/><polygon class="cls-9" points="123.02 76.13 123.02 88.97 114.96 88.97 123.02 76.13"/><polygon class="cls-9" points="110.21 76.13 110.21 88.97 102.15 88.97 110.21 76.13"/><rect class="cls-4" x="102.48" y="54.16" width="13.15" height="13.32"/><rect class="cls-5" x="103.17" y="54.65" width="11.77" height="12.33"/><polygon class="cls-9" points="114.94 54.66 114.94 67.05 103.17 67.05 114.94 54.66"/><rect class="cls-4" x="121.88" y="54.16" width="13.15" height="13.32"/><rect class="cls-5" x="122.57" y="54.65" width="11.77" height="12.33"/><polygon class="cls-9" points="134.34 54.66 134.34 67.05 122.57 67.05 134.34 54.66"/><polygon class="cls-9" points="135.82 76.13 135.82 88.97 127.76 88.97 135.82 76.13"/><polygon class="cls-10" points="128.82 119.75 128.82 133.38 109.22 133.38 128.82 119.75"/><rect class="cls-6" x="93.11" y="133.9" width="51.76" height="2.23"/><rect class="cls-4" x="118.5" y="119.32" width="1.03" height="14.13"/><rect class="cls-11" x="46.27" y="65.08" width="54.11" height="74.94"/><rect class="cls-4" x="52.98" y="103.75" width="10.94" height="11.35"/><rect class="cls-4" x="68.52" y="103.75" width="10.94" height="11.35"/><rect class="cls-4" x="83.96" y="103.75" width="11.14" height="11.35"/><rect class="cls-4" x="59.92" y="120.98" width="26.97" height="17.79"/><rect class="cls-7" x="53.56" y="104.26" width="9.79" height="10.32"/><rect class="cls-7" x="69.1" y="104.26" width="9.79" height="10.32"/><rect class="cls-7" x="84.64" y="104.26" width="9.79" height="10.32"/><rect class="cls-12" x="45.09" y="63.7" width="56.47" height="1.37"/><rect class="cls-7" x="60.97" y="122.17" width="24.7" height="15.6"/><rect class="cls-4" x="52.98" y="86.92" width="10.94" height="11.35"/><rect class="cls-4" x="68.52" y="86.92" width="10.94" height="11.35"/><rect class="cls-4" x="84.06" y="86.92" width="10.94" height="11.35"/><rect class="cls-7" x="53.56" y="87.43" width="9.79" height="10.32"/><rect class="cls-7" x="69.1" y="87.43" width="9.79" height="10.32"/><rect class="cls-7" x="84.64" y="87.43" width="9.79" height="10.32"/><rect class="cls-4" x="52.98" y="71.08" width="10.94" height="11.14"/><rect class="cls-4" x="68.52" y="71.08" width="10.94" height="11.14"/><rect class="cls-4" x="84.06" y="71.08" width="10.94" height="11.14"/><rect class="cls-7" x="53.56" y="71.49" width="9.79" height="10.32"/><rect class="cls-7" x="69.1" y="71.49" width="9.79" height="10.32"/><rect class="cls-7" x="84.64" y="71.49" width="9.79" height="10.32"/><polygon class="cls-10" points="78.88 107.55 78.88 114.64 69.1 114.64 78.88 107.55"/><polygon class="cls-10" points="63.34 107.55 63.34 114.64 53.55 114.64 63.34 107.55"/><polygon class="cls-10" points="94.42 107.55 94.42 114.64 84.64 114.64 94.42 107.55"/><polygon class="cls-10" points="78.88 89.47 78.88 97.8 69.1 97.8 78.88 89.47"/><polygon class="cls-10" points="63.34 90.06 63.34 97.8 53.55 97.8 63.34 90.06"/><polygon class="cls-10" points="94.42 89.47 94.42 97.8 84.64 97.8 94.42 89.47"/><polygon class="cls-10" points="78.88 74.14 78.88 81.86 69.1 81.86 78.88 74.14"/><polygon class="cls-10" points="63.34 74.14 63.34 81.86 53.55 81.86 63.34 74.14"/><polygon class="cls-10" points="94.42 74.14 94.42 81.86 84.64 81.86 94.42 74.14"/><polygon class="cls-10" points="85.67 128.59 85.67 137.65 60.97 137.65 85.67 128.59"/><rect class="cls-12" x="43.29" y="138.64" width="60.06" height="2.75"/><rect class="cls-4" x="72.66" y="121.68" width="1.33" height="16.05"/><rect class="cls-13" x="112.16" y="87.75" width="2.67" height="8.9"/><rect class="cls-13" x="143.8" y="87.75" width="2.67" height="8.9"/><rect class="cls-14" x="107.43" y="80.01" width="43.2" height="7.74" rx="1.62"/><polyline class="cls-15" points="149.9 80.28 150.46 81.65 150.74 85.76 149.9 87.47 115.05 87.71 108.57 87.68 107.81 87.16"/><rect class="cls-16" x="107.43" y="79.93" width="43.2" height="7.74" rx="1.62"/><path class="cls-17" d="M117.8,85.28a2.17,2.17,0,0,1-1,.2,1.61,1.61,0,0,1-1.69-1.73A1.72,1.72,0,0,1,117,82a2.1,2.1,0,0,1,.85.17l-.14.48a1.32,1.32,0,0,0-.71-.16,1.27,1.27,0,0,0,0,2.54,1.66,1.66,0,0,0,.75-.17Z"/><path class="cls-17" d="M121.54,83.69a1.66,1.66,0,0,1-1.69,1.8,1.61,1.61,0,0,1-1.62-1.74,1.66,1.66,0,0,1,1.68-1.8A1.61,1.61,0,0,1,121.54,83.69Zm-2.68,0c0,.74.42,1.3,1,1.3s1-.56,1-1.32c0-.57-.29-1.3-1-1.3S118.86,83.08,118.86,83.73Z"/><path class="cls-17" d="M122.31,82.94c0-.35,0-.63,0-.91h.54l0,.54h0a1.18,1.18,0,0,1,1.07-.62,1,1,0,0,1,1,.68h0a1.28,1.28,0,0,1,.38-.44A1.15,1.15,0,0,1,126,82c.45,0,1.11.29,1.11,1.47v2h-.6V83.5c0-.65-.23-1-.73-1a.81.81,0,0,0-.73.56,1,1,0,0,0,0,.31v2.09h-.6v-2c0-.53-.24-.93-.7-.93a.85.85,0,0,0-.77.62,1,1,0,0,0,0,.3v2h-.61Z"/><path class="cls-17" d="M128.14,83.13c0-.43,0-.78,0-1.1h.55l0,.58h0a1.33,1.33,0,0,1,1.2-.66,1.54,1.54,0,0,1,1.44,1.72,1.61,1.61,0,0,1-1.54,1.82,1.19,1.19,0,0,1-1-.53h0v1.83h-.61Zm.61.9a1.86,1.86,0,0,0,0,.26,1,1,0,0,0,.92.72c.65,0,1-.54,1-1.31s-.36-1.26-1-1.26a1,1,0,0,0-.93.76,1.09,1.09,0,0,0,0,.25Z"/><path class="cls-17" d="M134,85.41l0-.43h0a1.27,1.27,0,0,1-1,.51,1,1,0,0,1-1-1c0-.82.72-1.27,2-1.26v-.07a.7.7,0,0,0-.77-.78,1.64,1.64,0,0,0-.88.25l-.14-.41a2.13,2.13,0,0,1,1.11-.3c1,0,1.29.71,1.29,1.39V84.6a5,5,0,0,0,.05.81Zm-.09-1.73c-.67,0-1.43.11-1.43.77a.55.55,0,0,0,.58.58.85.85,0,0,0,.82-.56.75.75,0,0,0,0-.2Z"/><path class="cls-17" d="M135.49,82.94c0-.35,0-.63,0-.91H136l0,.56h0a1.25,1.25,0,0,1,1.12-.64c.46,0,1.19.28,1.19,1.44v2h-.61v-2c0-.54-.21-1-.79-1a.87.87,0,0,0-.82.63.85.85,0,0,0,0,.29v2h-.62Z"/><path class="cls-17" d="M139.5,82l.74,2c.08.22.17.49.22.69h0c.07-.2.14-.46.22-.71l.67-2H142l-.92,2.41a5.2,5.2,0,0,1-1.16,2.12,1.73,1.73,0,0,1-.76.4l-.15-.52a1.75,1.75,0,0,0,.54-.3,1.8,1.8,0,0,0,.52-.69.63.63,0,0,0,0-.14.41.41,0,0,0,0-.16L138.83,82Z"/><rect class="cls-18" x="91" y="97.01" width="77.08" height="47.63"/><rect class="cls-19" x="96.15" y="93.57" width="65.91" height="3.93"/><rect class="cls-20" x="91" y="96.77" width="77.08" height="2.09"/><rect class="cls-4" x="100.77" y="107.13" width="10.32" height="10.32"/><rect class="cls-4" x="119.86" y="107.13" width="20.44" height="10.2"/><rect class="cls-21" x="101.55" y="107.76" width="8.76" height="9.06"/><polygon class="cls-22" points="110.31 111.77 110.31 116.84 101.55 116.84 110.31 111.77"/><rect class="cls-20" x="87.88" y="144.69" width="85.55" height="2.66"/><rect class="cls-23" x="99.88" y="127.29" width="12.92" height="17.4"/><rect class="cls-7" x="100.84" y="128.32" width="10.99" height="8.25"/><polygon class="cls-24" points="111.83 134.13 111.83 136.61 100.84 136.61 111.83 134.13"/><rect class="cls-25" x="110.08" y="137.52" width="0.88" height="2.14" rx="0.44"/><rect class="cls-26" x="109.21" y="138.41" width="1.34" height="0.35" rx="0.18"/><rect class="cls-21" x="120.52" y="107.79" width="19.16" height="8.87"/><polyline class="cls-27" points="139.68 110.25 139.68 116.67 120.52 116.67"/><rect class="cls-4" x="143.91" y="107.13" width="20.44" height="10.2"/><rect class="cls-21" x="144.57" y="107.79" width="19.16" height="8.87"/><polyline class="cls-27" points="163.73 110.25 163.73 116.67 144.57 116.67"/><rect class="cls-4" x="119.86" y="125.28" width="20.44" height="10.2"/><rect class="cls-21" x="120.52" y="125.94" width="19.16" height="8.87"/><polyline class="cls-27" points="139.68 128.4 139.68 134.81 120.52 134.81"/><rect class="cls-4" x="143.91" y="125.28" width="20.44" height="10.2"/><rect class="cls-21" x="144.57" y="125.94" width="19.16" height="8.87"/><polyline class="cls-27" points="163.73 128.4 163.73 134.81 144.57 134.81"/><rect class="cls-4" x="129.83" y="125.62" width="0.54" height="9.51"/><rect class="cls-4" x="129.83" y="107.53" width="0.54" height="9.51"/><rect class="cls-4" x="105.66" y="107.53" width="0.54" height="9.51"/><rect class="cls-4" x="153.88" y="125.62" width="0.54" height="9.51"/><rect class="cls-4" x="153.88" y="107.53" width="0.54" height="9.51"/><rect class="cls-28" x="32.73" y="112.55" width="6.38" height="1.06"/><rect class="cls-28" x="32.73" y="127.97" width="6.38" height="1.06"/><rect class="cls-29" x="38.04" y="96.61" width="49.97" height="54.75"/><rect class="cls-30" x="43.89" y="105.64" width="10.1" height="14.35" rx="1"/><rect class="cls-30" x="58.24" y="105.64" width="10.1" height="14.35" rx="1"/><rect class="cls-30" x="72.6" y="105.64" width="10.1" height="14.35" rx="1"/><rect class="cls-30" x="60.37" y="128.5" width="22.33" height="14.36" rx="1"/><rect class="cls-4" x="44.42" y="131.16" width="11.16" height="18.49" rx="1"/><rect class="cls-7" x="60.9" y="129.03" width="21.26" height="13.29"/><rect class="cls-7" x="44.42" y="106.17" width="9.04" height="13.29"/><rect class="cls-7" x="58.77" y="106.17" width="9.04" height="13.29"/><rect class="cls-7" x="73.13" y="106.17" width="9.04" height="13.29"/><rect class="cls-31" x="41.76" y="95.15" width="42.53" height="1.46"/><rect class="cls-31" x="36.45" y="149.23" width="53.16" height="2.13"/><rect class="cls-32" x="27.94" y="108.3" width="5.85" height="24.45"/><path class="cls-33" d="M30.25,112.53a1,1,0,0,0,.52.16c.29,0,.43-.14.43-.33s-.11-.29-.41-.4-.58-.36-.58-.62a.68.68,0,0,1,.76-.65,1.12,1.12,0,0,1,.54.14l-.1.29A.93.93,0,0,0,31,111c-.24,0-.37.14-.37.3s.13.27.42.37.58.34.58.67-.3.66-.83.66a1.22,1.22,0,0,1-.61-.15Z"/><path class="cls-33" d="M30,115.17h.4v1.37h0a.71.71,0,0,1,.29-.28.79.79,0,0,1,.41-.12c.29,0,.76.19.76.94v1.31h-.4v-1.26c0-.35-.13-.65-.51-.65a.57.57,0,0,0-.53.39.6.6,0,0,0,0,.2v1.32H30Z"/><path class="cls-33" d="M32,122.73a1.07,1.07,0,0,1-1.09,1.16,1,1,0,0,1-1.06-1.13,1.08,1.08,0,0,1,1.09-1.17A1,1,0,0,1,32,122.73Zm-1.74,0c0,.48.27.84.66.84s.67-.36.67-.85-.18-.85-.66-.85S30.26,122.33,30.26,122.75Z"/><path class="cls-33" d="M30,127.81c0-.28,0-.51,0-.71h.36l0,.37h0a.85.85,0,0,1,.78-.42,1,1,0,0,1,.93,1.11,1,1,0,0,1-1,1.18.77.77,0,0,1-.67-.34h0v1.19H30Zm.4.59a.78.78,0,0,0,0,.16A.61.61,0,0,0,31,129c.43,0,.67-.35.67-.85s-.23-.82-.65-.82a.65.65,0,0,0-.61.5.88.88,0,0,0,0,.16Z"/><rect class="cls-7" x="46.02" y="132.75" width="7.97" height="8.51"/><rect class="cls-8" x="38.04" y="99.27" width="49.97" height="3.01"/><polygon class="cls-10" points="67.81 110.18 67.81 119.53 58.77 119.53 67.81 110.18"/><polygon class="cls-10" points="53.46 109.78 53.46 119.53 44.42 119.53 53.46 109.78"/><polygon class="cls-10" points="82.17 110.18 82.17 119.53 73.13 119.53 82.17 110.18"/><polygon class="cls-10" points="53.99 134.63 53.99 141.28 46.02 141.33 53.99 134.63"/><polygon class="cls-10" points="82.17 132.22 82.17 142.36 60.9 142.33 82.17 132.22"/><circle class="cls-34" cx="54.48" cy="142.61" r="0.42"/></svg>