<svg xmlns="http://www.w3.org/2000/svg" xmlns:xlink="http://www.w3.org/1999/xlink" viewBox="0 0 226.2 233.57"><defs><style>.cls-1{fill:#7a7af3;opacity:0.1;}.cls-2{fill:#8722b2;opacity:0.08;}.cls-3{fill:#ccbe15;opacity:0.17;}.cls-10,.cls-4,.cls-5,.cls-6{fill:none;}.cls-4{stroke:#d29cff;}.cls-4,.cls-5,.cls-6{stroke-miterlimit:10;}.cls-11,.cls-4,.cls-5{opacity:0.42;}.cls-5{stroke:#49f2d3;}.cls-6{stroke:#bcdfe4;}.cls-7{fill:#bcdfe4;opacity:0.18;}.cls-8{fill:url(#Безымянный_градиент_8);}.cls-9{opacity:0.92;}.cls-10{stroke:#f8dff4;stroke-linecap:round;stroke-linejoin:round;stroke-width:2px;stroke-dasharray:4.59 4.59;}.cls-11{fill:#f8dff4;}.cls-12{fill:#9bf0d9;opacity:0.13;}.cls-13{fill:url(#Безымянный_градиент_14);}</style><linearGradient id="Безымянный_градиент_8" x1="15.24" y1="43.04" x2="183.41" y2="169.01" gradientUnits="userSpaceOnUse"><stop offset="0" stop-color="#d29cff" stop-opacity="0.1"/><stop offset="1" stop-color="#bcdfe4" stop-opacity="0.26"/></linearGradient><linearGradient id="Безымянный_градиент_14" x1="15.67" y1="43.81" x2="183.9" y2="169.82" gradientUnits="userSpaceOnUse"><stop offset="0.01" stop-color="#d29cff" stop-opacity="0.3"/><stop offset="1" stop-color="#bcdfe4" stop-opacity="0.25"/></linearGradient></defs><title>signin7</title><g id="Слой_1" data-name="Слой 1"><polygon class="cls-1" points="226.61 186.18 226.61 109.24 188.75 151.49 226.61 186.18"/><polygon class="cls-1" points="226.01 173.75 226.01 122.15 198.65 150.48 226.01 173.75"/><polygon class="cls-2" points="127.27 233.57 70.31 233.57 101.58 211.26 127.27 233.57"/><polygon class="cls-2" points="112.31 233.13 85.63 233.13 100.28 221.27 112.31 233.13"/><polygon class="cls-3" points="125.99 0.84 182.96 0.84 151.68 23.16 125.99 0.84"/><polygon class="cls-3" points="140.96 1.29 167.64 1.29 152.99 13.14 140.96 1.29"/><circle class="cls-4" cx="207.68" cy="109.24" r="2.36"/><circle class="cls-5" cx="32.03" cy="128.86" r="2.36"/><rect class="cls-4" x="32.83" y="183.98" width="4.62" height="4.62" transform="translate(192.2 80.12) rotate(66.63)"/><polygon class="cls-6" points="186.37 77.14 187.72 73.72 191.12 75.04 189.77 78.46 186.37 77.14"/><polygon class="cls-6" points="66.48 38.13 64.31 33.05 69.34 30.86 71.51 35.93 66.48 38.13"/><polygon class="cls-7" points="0.76 100.11 0.76 21.27 43.05 64.55 0.76 100.11"/><polygon class="cls-7" points="1.37 87.37 1.37 34.49 29.67 63.53 1.37 87.37"/></g><g id="Слой_2" data-name="Слой 2"><rect class="cls-8" x="-0.4" y="-0.79" width="226.07" height="233.57"/><g class="cls-9"><path class="cls-10" d="M194.08,198.37a7.31,7.31,0,1,1-7.31-7.31A7.31,7.31,0,0,1,194.08,198.37Z"/></g><circle class="cls-11" cx="207.68" cy="109.24" r="6.77"/><circle class="cls-12" cx="35.39" cy="186.18" r="8.41"/><rect class="cls-13" width="226.2" height="233.57"/></g></svg>