<svg xmlns="http://www.w3.org/2000/svg" xmlns:xlink="http://www.w3.org/1999/xlink" viewBox="0 0 226.2 233.57"><defs><style>.cls-1{fill:#7a7af3;opacity:0.1;}.cls-2{fill:#8722b2;opacity:0.08;}.cls-3{fill:#ccbe15;opacity:0.17;}.cls-10,.cls-12,.cls-17,.cls-18,.cls-4,.cls-5,.cls-6{fill:none;}.cls-4{stroke:#d29cff;}.cls-17,.cls-18,.cls-4,.cls-5,.cls-6{stroke-miterlimit:10;}.cls-13,.cls-4,.cls-5{opacity:0.42;}.cls-5{stroke:#49f2d3;}.cls-6{stroke:#bcdfe4;}.cls-7{fill:#bcdfe4;opacity:0.18;}.cls-8{fill:url(#Безымянный_градиент_8);}.cls-9{opacity:0.92;}.cls-10{stroke:#f8dff4;stroke-width:2px;stroke-dasharray:4.59 4.59;}.cls-10,.cls-12,.cls-17,.cls-18{stroke-linecap:round;}.cls-10,.cls-12{stroke-linejoin:round;}.cls-11{opacity:0.12;}.cls-12{stroke:#9a73ef;stroke-dasharray:5.4 5.4;}.cls-13{fill:#f8dff4;}.cls-14{fill:#9bf0d9;opacity:0.13;}.cls-15{fill:url(#Безымянный_градиент_14);}.cls-16{opacity:0.3;}.cls-17,.cls-18{stroke:#8cc63f;}.cls-18{stroke-dasharray:0 10.02;}</style><linearGradient id="Безымянный_градиент_8" x1="15.24" y1="43.04" x2="183.41" y2="169.01" gradientUnits="userSpaceOnUse"><stop offset="0" stop-color="#d29cff" stop-opacity="0.1"/><stop offset="1" stop-color="#bcdfe4" stop-opacity="0.26"/></linearGradient><linearGradient id="Безымянный_градиент_14" x1="15.67" y1="43.81" x2="183.9" y2="169.82" gradientUnits="userSpaceOnUse"><stop offset="0.01" stop-color="#d29cff" stop-opacity="0.3"/><stop offset="1" stop-color="#bcdfe4" stop-opacity="0.25"/></linearGradient></defs><title>signin8-16</title><g id="Слой_1" data-name="Слой 1"><polygon class="cls-1" points="225.6 178.03 225.6 117.39 195.76 150.69 225.6 178.03"/><polygon class="cls-1" points="225.13 168.24 225.13 127.56 203.56 149.9 225.13 168.24"/><polygon class="cls-2" points="133.23 233.91 64.35 233.91 102.17 206.92 133.23 233.91"/><polygon class="cls-2" points="115.14 233.37 82.87 233.37 100.59 219.03 115.14 233.37"/><polygon class="cls-3" points="125.99 0.84 182.96 0.84 151.68 23.16 125.99 0.84"/><polygon class="cls-3" points="140.96 1.29 167.64 1.29 152.99 13.14 140.96 1.29"/><circle class="cls-4" cx="210.04" cy="72.48" r="2.36"/><circle class="cls-5" cx="32.03" cy="128.86" r="2.36"/><rect class="cls-4" x="32.83" y="183.98" width="4.62" height="4.62" transform="translate(192.2 80.12) rotate(66.63)"/><polygon class="cls-6" points="193.38 120.75 194.73 117.34 198.13 118.65 196.78 122.07 193.38 120.75"/><polygon class="cls-6" points="66.48 38.13 64.31 33.05 69.34 30.86 71.51 35.93 66.48 38.13"/><polygon class="cls-7" points="0.76 100.11 0.76 21.27 43.05 64.55 0.76 100.11"/><polygon class="cls-7" points="1.37 87.37 1.37 34.49 29.67 63.53 1.37 87.37"/></g><g id="Слой_2" data-name="Слой 2"><rect class="cls-8" x="-0.4" y="-0.79" width="226.07" height="233.57"/><g class="cls-9"><path class="cls-10" d="M194.08,198.37a7.31,7.31,0,1,1-7.31-7.31A7.31,7.31,0,0,1,194.08,198.37Z"/></g><g class="cls-11"><circle class="cls-12" cx="32.03" cy="23.16" r="5.17"/></g><circle class="cls-13" cx="32.03" cy="128.86" r="9.15"/><circle class="cls-14" cx="210.04" cy="72.48" r="5.94"/><rect class="cls-15" width="226.2" height="233.57"/><g class="cls-16"><line class="cls-17" x1="165.86" y1="40.51" x2="165.86" y2="40.51"/><line class="cls-18" x1="174.02" y1="34.7" x2="186.26" y2="26"/><line class="cls-17" x1="190.34" y1="23.1" x2="190.34" y2="23.1"/><line class="cls-17" x1="171.37" y1="48.26" x2="171.37" y2="48.26"/><line class="cls-18" x1="179.53" y1="42.46" x2="191.78" y2="33.75"/><line class="cls-17" x1="195.86" y1="30.85" x2="195.86" y2="30.85"/><line class="cls-17" x1="176.88" y1="56.02" x2="176.88" y2="56.02"/><line class="cls-18" x1="185.05" y1="50.21" x2="197.29" y2="41.51"/><line class="cls-17" x1="201.37" y1="38.6" x2="201.37" y2="38.6"/><line class="cls-17" x1="182.4" y1="63.77" x2="182.4" y2="63.77"/><line class="cls-18" x1="190.56" y1="57.97" x2="202.81" y2="49.26"/><line class="cls-17" x1="206.89" y1="46.36" x2="206.89" y2="46.36"/></g></g></svg>